<mxfile host="app.diagrams.net" agent="Mozilla/5.0 (Macintosh; Intel Mac OS X 10_15_7) AppleWebKit/537.36 (KHTML, like Gecko) Chrome/138.0.0.0 Safari/537.36" version="28.0.7">
  <diagram name="第 1 页" id="a8N-SqQZVT7hHqdHGY7i">
    <mxGraphModel dx="1018" dy="575" grid="1" gridSize="10" guides="1" tooltips="1" connect="1" arrows="1" fold="1" page="1" pageScale="1" pageWidth="827" pageHeight="1169" math="0" shadow="0">
      <root>
        <mxCell id="0" />
        <mxCell id="1" parent="0" />
        <mxCell id="LX5frSj_GaNoOFAAcOwU-1" value="" style="verticalLabelPosition=bottom;html=1;verticalAlign=top;align=center;strokeColor=none;fillColor=#00BEF2;shape=mxgraph.azure.user;" vertex="1" parent="1">
          <mxGeometry x="350" y="340" width="47.5" height="50" as="geometry" />
        </mxCell>
        <mxCell id="LX5frSj_GaNoOFAAcOwU-2" value="" style="verticalLabelPosition=bottom;html=1;verticalAlign=top;align=center;strokeColor=none;fillColor=#00BEF2;shape=mxgraph.azure.website_generic;pointerEvents=1;" vertex="1" parent="1">
          <mxGeometry x="130" y="344" width="50" height="42.5" as="geometry" />
        </mxCell>
        <mxCell id="LX5frSj_GaNoOFAAcOwU-3" value="" style="shape=flexArrow;endArrow=classic;html=1;rounded=0;" edge="1" parent="1">
          <mxGeometry width="50" height="50" relative="1" as="geometry">
            <mxPoint x="200" y="364.75" as="sourcePoint" />
            <mxPoint x="330" y="364.75" as="targetPoint" />
          </mxGeometry>
        </mxCell>
        <mxCell id="LX5frSj_GaNoOFAAcOwU-11" value="" style="shape=image;imageAspect=0;aspect=fixed;verticalLabelPosition=bottom;verticalAlign=top;image=data:image/png,iVBORw0KGgoAAAANSUhEUgAAAVAAAAC0CAYAAADCSnT5AAAAAXNSR0IArs4c6QAAIABJREFUeF7sfQd4XOWZ9Znei6QZ9S65d+NOMbbBdAKhBBJCSE82m82/JdmEhBJIzyabsslmlyQEQui9ODbuBhvjbstNltU1KjOj0Wh6n3/PO5IxxZIBAwbr8+PHlubOvd/97r3nvuW851VgbIytwNgKjK3A2Aq8oxVQvKNvjX1pbAXGVmBsBcZWAGMAOnYTvC8r8J9PrbdHs+lCJJXOdCZTksxknUooVcMHT6ZT9mw2qx3+OZ3NGBRQ2DNZ2JQKhTGRTuUpAEUmi8zxE9ap1f5sJhtWKBFQKJVelQI+rVrjUivRrlaYm791/bze9+UExw5yRq7AGICekZf93Z/0z1etMiUHddOTqdT4RCpTm8lm6pPpTGU0niiJxJK2TDarUSgVSgUUiiyyKp1GkzXqNQq9VguLUQeTTqNQKpXIIqtWQAG9TpNVKxXIKhQqBaDUadTQqtXQa9VQKJUwG7SCnIosoBy6a7PZLEKxJDKZDOKJFKKJJCKxRNIfjKQD4WjGH4kpQtE4v5PKZrNJk047aNRpurQadYNOo9pm0Gq2fOvaxU3vfjXG9nCmrsAYgJ6pV/4kzvvOO+9U6iafNyuayCxIpJJz4snUDH84Vp7JQq9RqdQFeWY4rUZlns2sKTCblFaLHnaTESq1CgPhCKKxJCKJJMKROCLxJCLxBKKxBMLxJOLJlMwglkgilU4fm00snkIqk/tZqVAik32dwXnCWROEVUqlgLPVZIDVpIPVoEeexQin3Yw8s1HcrYFgCB5/KNvZ60t0ugcygUgsm81k43lmQ4dBq91o1mletNgq1vzTpePiJ7FEY5uc4SswBqBn+A1w/On/6LEN54aj8UujydQyXyBSlwEMxfmWbGmBXV1WaNcW5VmRbzfB4w/D5fXD7Q/BOxiGPxjGYCR2bFcmvRb5FhOMOi2Mei2MOg2MBi34e4NWI5alYujO02pVyKSzSKVzQKnVqKFWKhGKxeV38WQ6B7Kp10BWwFWpgFGvg0apBPdh0Gug1+QiAOFoHIFIDIOhKAaCUXgCIfQPhuR3HDq1GqVOO0rzrShz2lFVnIdwOI62bm+2sdMd63QPZNPpVIKgatRpNxl1ulWF9ZZVX54zJzl2u4ytwPErMAagZ+j98JsVW63egeCnItHEjf3ByKS0AsaSAptifJlTW1teqHLaLWjr60dH3wBc/YNweQaRTKegUqhQ6rCi3GlHYZ4Feg3BUIFkOoOBYBgDwQh8wSgGQxGEogmkMxm66a9bZe7DoFcf+x0BlcA5PJQKgqMaGqUaOi3/akD3/vjBPUZiCSTTacSTScQTaQSjcQQjcXHpeUxasAVWo8yzKM+CQrsFxflWGLRq9A4E0e0dRJfXj9aefoRjCViNetSVOlBb5kBdSUEOVHu82aZOd7y1rz+jVakGHVbjeqNOc99tNyx78Qy9dcZO+7gVGAPQM+R2uHP9erWiO3l1OJ6+yTMYWgSV0ji5ukQ9vb5MW+HMR1e/H0ddHjR1utHrD0Kn1qC2pABVJXkw6/QCSB5/CD2+QQEeuuS0Igk6drMR+RYj8iwG2C1GFFhMsJr1YkkyNhlPpQTs+J0Y/6ZSiEYTsvJ08bOZ1wMsXX267ql0FrFE6k1u/vAlUykUMNAKVSmh06pg0utgNRpg1mthNRtgM+uhUirgG4ygbyAI90BQgJMgz/OhJVpdXIC60gLUljqh16nR3O1Fs8uL5m6PvABMBi0mlBdiWm0pivItaGrvy+5p6oq39/VnrHp9n92k/7vFoPnzd65fuvMMuZXGTnMMQM+Me+DnT24uHIxE/s3tD90YSyXza0udqhn15dq6Uqeirc+Hfc3dONzZJxZkZVEe6sscsJr0CIRjOOryivVJIMuzmFDmsKKkwIbSAhuKC6wIRRICpr39AQwEIhgIReEPhREbim1yhcWF12mh12qg16lg1Omg1/D/anHlOeh6q15Lxud+p1WLi07LlMkknY4W6JuvGXGXcdZkJi3ATIAOhmPiqjMEQOBkmIGWMweBvtBmRlG+Fc48M/LNBvlOc3c/Wro9sq1aqUJNaR5qS2mFOmExanG4w429zd1o7fXCrNcJmM6oL4NJq8XBVldmd1NX3D0QShfajAfsJsPvssXKh+5csiR30LHxkV6BMQv0I3Z5f/Lo6spgLPOv3mDk44l02jF3QpVm7uQaFd3bvS0uNDR3i0U4obwIEyuLBCAPtvegtScHliX5Nowrd4orW5xnQafHj5aefnS6B9DrCwoY0TV22kwCqHSJ861G2E0G2M0GZtNP2xX1h2Nw+wLo8wfhGQgdi+OqVSp5gdSW5KPCmSdhB57z0S4PuvsHUWAzY3ptqQAnXwYNrS7sa+6By+OHw2bCjLoyzJlYKS7/K/ub47uPdGatBp3LYTX+KV9v+dW/XL8oetouytjE3tUKjAHou1q+0+PLP3t0W/FgbOCunoHQ1Wq1yrRgSo125oQKVUefH68caJUYX01JAabWFItr3uRy43CnG4w1Tq4uFnBgTLO11yeuK11YXzAiFmB1MYHFIQBDsNSoj1E3T4+TPwWzIAugwz2AFrFEvXB5B8XFL3fYBTRLCqyyhvtauuEeCKEk34Lp9WWYXluGRDKNfS0ubDvUhmQqK0C6YFIVwtEYtu5vS+xv7U7nm/XtdqP+Hmth9n++edFF4VMw5bFdnCYrMAagp8mFeLvTIMVIUX/253sHQ9+OptOl500fpzlrUpWKbvfm/S0Sz6wvc2L2uDL4QzFsP9IhcUhantPrylBbkofmHh/2t3TjSJcHpAFNqKTl6ZTYZ4HN9Han9JHaPpPNioXJMEdDa7eEBKqLCgRQ860GAVt+NhiJYmp1CRZOrpEXzN5ml6x/ry+AWfXlOGdGHRTIYsfB9sTOxo60w2JsdFhNd992w9InP1ILdoaezBiAfsgu/E8ef3nKQDD44w7v4NK6cqd62VkTdUx2rN3dKK4prcmpNaXo8wWw9WAbwvEE5k+sxjnT6jAYjmLb4TYcanODpMgJFU5MrynDuAoHNOrXsuAfsiV5X6ZLQG3v9aGhpRsH2npkXceVOTFnQiVIMthyoFUs97oyB86eWiv/7j3qkmvA6zKzvgxLZo5HPJHEpt2N8UNtfamyfOtau13zzVs/fsGR9+Ukxg5yyldgDEBP+ZK+Nzu8/YHVX3cNBG7VaDX2ZbMm6iqK8xWb9jVhZ2MnJlQWYtGUGonbbdnfKpnjBZOrMXtcBdr7BuQhbnZ5UFmUj/mTq8Ri+ii64u/Nyr/1XgmoTV1uvHqoDYfb3Shz2DB3UpUkzXYe6UBjh1vWm2A6saoIe5q6sH7PESQSKZw3sx5njavAvmZXZuPupgSy6f5im+X3zoKaX4wR+N/Pq/jujzUGoO9+Dd+zPZCr2dsf+Fmb2/eptj6/4adfvkrlCYSxeschhKNJLDtrHIx6PTbubRLS+LnTa7FgSg2aujzYtOco+gYCmFRVLGDKpBCz7WPjvVkB8klfPdiGPUddQu3ii8phM2NXYycOtPViak0JlsweB5tJj5f3teDVQ+3CeFgyazzKC6x4ueFoctvB9pRFr91VV1L45W9fe86B92amY3s9lSsw9kSdytU8Rfv60ZNrxvv9qV+4/IGlCyfX6GZPrFT98++eRGVhPuZNqsLUmjLsOtIu1Jop1cVYdtYEZJDB+l1N2N/SI3E6PqykHI2N938F+gfD2Ha4HdsOd0gV1uIZ9dBo1Niw+wj8oahYpedMqxXa1NpdR8Q7mDuxEnMnVuC/nnwJDqsplkokvRUO222337jsL+//GYwd8WRXYAxAT3al3oftfvjEmiUud/h/4+l0+cXzp+ryrEbFC6/sR38wiu5+P75+9WK8sHW/zOTCsyZiXIVTXHYmLVg6uXT2eLF0mF0fG6fHCrD4gK77niYX6sqcWDS1RpJTLze0iAUq16yqWCzS1Tsbsbe5C7/62jXQaJRYsXl/otPti9YU5d+TpzHdPkaHOj2u6fGzGHvSToNr8sNH11y4v63/z4lMuvCrV52rDUQT+Pu2A1AplLhswWT09Afw80fW4fols3DZgqlIJJN4/pUDQmSndbNoau0xYvppcDpjUzjBChzu6MOGPUfR6fZh7sQqTKkukRjqwbZenD2tVsD0tj89j+qSAuGpLp8zEdPrSrFpd1P6lf2tycpC68YCq/Zr37p6WfPYIp8eKzAGoB/gdbj74bXLu7yBe9RaTZHFbNCRe9jW4xMr8uzptXiloVXc9PmTqrG3pQuXzJuMVdsPi+LQ5Qsmo7688AOc/dih3+kKJFMpbD/ciXW7GmE06LB8zgThl67bcwTdngC+ce1iKTF9ccch7GrsknjqsrPGY2+TK/uHZ15OzRtfvq/EZvnst69f3PBO5zD2vVOzAmMAemrW8W3t5YePrLuoqz/4+zRQds2SmTpmyn/x6HrcfNFcLJ42Diu2HUSX249LF0wWovtzW/bjgRe34dMXzcNF8ybDbtK/reONbXz6roCr348VrxwES2uXzByH3U1d8IejMGrVuHj+FKGlbT3Uhhe3H5aa/f2tvfjSpQuzz2zZF0c646p0WD9/6/VLN56+Z/jRntkYgL6P1/dHj6w7u90z+KBOryv62LnTda29/Vi17bAkhhjHnFBRJO76NYtnSAXQ81sOCIn7vBn1win81o0XvI+zHTvU+7kCFIPesLsJ97+4TZKA1y6ejV2N7VL9RNf+/Jn1ONLpwV33rxRmxRcvXyg6q0+/tDeuyGRd5Q7TV757/QWr3885jx1L6NRj471egbsff3Hc/qOeZy1mQ/X1F8zVs8Z6/e4mnDu9DjPHleP5VxrwzOYG/ORLH5OSyWc370NTlxdXLJwmmdloIoXfPLEB3/7khe/1VMf2/wGvwNMv7UWStfjdXtEcuGLRFHmpvri9ETPqSkUgmlVOPb6A1OXzZZtOZfDUpt2JRDzlrSiwffW2G5c++wGfxhlz+DEAfQ8v9S8f3ZLfHR588HCXZ0lhgU1z3ow6Bd21c2fUSYnlExv3ioYlgXT74Q4pEWx29eOyBVOE1jLM20xnsvjB/atwxy0Xv4ezHdv16bACj27YhSnVpUJP6/MF8eyWBnR6BnDpvMnSsuTplxqQzmbwky9dAe9gBE9s3I10NotrzpsJg06Dx9btTMSjid6qQtvNY679e39FxwD0PVhjam+iJ/2jw67+ry2eVa/b39anOuLqk1K+C2aPx/NbD6CtdwA3Lp0t0mr/9eRGMEP77U8tlwfnrcYd967A9z976Xsw27Fdnk4rcO/KV3H+jHoRfxke5JU+s6VBBE2Wz52IB1fvhMNuEsm9q86ejmgigcc27BZhkxuWzcaupi68su9ossBkbK8sst5067VLXz2dzvGjNJcxAD3FV/P7D67+ZmO3744FU2r0k2tLVE+9tA+vHGjDr/7x40Ks3tHYgY+fN0OSQ8+8vA/723owraYMBp0aVy6adsLZ3H7vC7jrs5ed4tmO7e50W4Ef/+1FfOPaJULAf+MIRWNCX7v371vx7zdeiDyriTFQ1JYWyD1Fkv4j63ZJm5WqwnwsnTUOj63fFbcbNHtLi6w3fPPKxa2n2/l+2OczBqCn6AoyQdTcN/BYSWFewQVzJmif23IQkXgcN14wB9+/d4WU9ZGzyQqh1TuO4OV9zbhs0WScPaVWyPDsHnnRvEknnM0P/7oS//KJZWN8z1N0vU7X3ZzMi/J7f3xe6u63HmjDpQsnw2LQ47GNu0Uchq58jzeAb/7haVw4dxJuXHoW2nv7s09u3J0szzO/7LDZbvzmx892n67n/2Gb1xiAvssr9h8Prnf0RKJP+aKxeTdeMFe77VA7GrvcuOnCOQhGYvjbmp3y72//6Rrh/jGmRV4nkwPDCkhbD7TCF4ri0vmTTzib+1a9KopKrGn/qA22/WBc72QGxTo+yuNkAHQ4nEMV/hWvHpT4+WULJ0sFGi1Uxs/p6dy4bA4YU6Vq1NXnTqd4SfaFzQfiBWbdY86Jts+Nqea/+ztpDEDfxRre9eCa25/cevC2T104T1lcYFU+u7kBly6agvoSB+5fvU16A80eX45Ne1rQHwqJcvkVC6a+SbV999EutPX6cPU50084mw17jkiPoAvOmvAuZnzqvsoumX3+kPQXYguQSCyOLBTSiiMz1OOIfeDY7Yg/ZtLp17X7YMiCAsTZtwBOvli4H/6JJXK9k44f7BPPG5c9l7QalXTu1KpVb2iBnLu1Cbhmg05ihg6rWbY/XQeTRgS8r3988YhTfCPIhmOkMzWgsasPV587Q4RlfvK31fjqVedJwcXOI514+uV9OHtaHS6cPR7//j/PZNLpVGz++Mp/vv2Gpf97uq7Hh2FeYwD6Dq7SDx9bt+yoq//hqjKnbWdTp8ZhtUjDsWvPn4XntjSgvXcAt1w8T5qc/fjB1dKv567PXSZN195q5GTR2nHThXNPOBv2Hnp842784ygP1zs4nRG/kha1dr9kghPJFLLZ3C2TyaahVKqQ4u8UCmhVymMAys/ZkjiVylmWySS7ZOaGXquWPvDDbYyPPzj7HxE032qQ2sO55PahEdCkOH4mq4ROrQQbzLEffQ6yXxvcTqBYCQF2rYbgmzsGz4WN58ocdhTnW6Sv/Ac5Vm07JM3xzp85/m0B6PDGg+EYnnxpr/SyUimA6tICHGjpFVCdM7ECG/c0YfWORikjbe7xIM+oT/Z6A776Ivs1t35i6eYP8tw/rMceA9C3ceXYpK3T43sxjsyk65acpX1pbxMeXrcb//OvnwDbZ7Bi6KJ5E0Vp55nN+6XVQ32pE9Ul+Thvev0Jj8TgPxMD/3zdkhFnc+s9z+GHX7j8PZWlC0Tiog7ERMQQykCtViKdJjBlhTkcS6Sl26ZCmZU2x0Y9Ex6KXK/3LAtSFSBkErDUKmXOIs1moB5qB8J9JVKv77lGyhYBlJQt8l6z2RwQ0rEX516Rs2Tld/xMgJzH4nEAhVIBjRJSwaNXvQaECoUStNBkDgqawkoYDQRqpRyDbZHp+vIYWpUKCkWuHTKvWVVR/vsKqj9/eC2+cNmiE75oh2+O0dx8Zu2/87/PwZlnwleuOEeKNNh14Kblc6SP1TMv7cNfV2/Dr//pOmgVSjywelvcptfsLTLZr/73G8/pfhuPxBm/6RiAnuQtcMcDq+8+3O39t48vma31h6LKtTuP4JKFk/DitsPibrJ6hJQSluIx887KkQvnTsTq7YfFhaRYxIkGH+Q7/rJi1Cz7H194RfbLVh2navDY7X0+6cJJjNESLDM58COYsF86/0+rTzPUGpMWnEqlRCKdQTiVQSyTRQoKxDMZJDNZxJIZJDJpZLIKadCWIqQqFEgkMwJ0dNuTyZw1yaHT66ASkB6yMgmQCgUYJiC4CTArFGKBqlVq+X+SbZWVOSuSIA1lriqEGEsbU+arVBImYeDnqRQyyRR0agUI93kmPcxqlVjI0XhSwJRC1AwLcB7yushCAJShCIojk1r0XglR86VAYPzB5y4f8dLyxfXzh9fgezePzAl+6uV90GvU2N3UCafdIupdT760R+b/qQvmCu3paLdH+l198oI5aOr0ZJ7asCtRV+Z4QNP08pfvvPPOkwtKn6ob8UO6nzEAHeXC/eThdTOa+wefd9itRYtnj9P8bfUO4WpeNHcifv/0yzjU0Ytf/sPHpdPln194BZXFebju/NnHsuVrdzXKA754xrgRj8SH585bLh1Riu5Aaw92NXXi08vnvavbjUB0oL1PumwSJeg2kkNIwIgnUwJYOo1GAFSr1Qq4+KIJhNJZhNMZRGhBZiHfUappyXE3WXHN2RZYp9cKKGp1tCgz0sbCUZAnLjaBl+DU3NYFu82CeDyJaDSGeDIpgKnTamUbpVKJUDgCq9mEDEE4nUY0Fod+KImk0WgQjkTgzM+DyWgQC5chhs6uPhi12mOx2OEbPBKNSZM89qDXSBxUIa2W9VBAwzhsPAGDSoUii16uVzSeyIGqXicWbzqTBq1ZAqpeq8LkqhI47eZ3dR2O/zJFYxpaXCOGcbg9e11t3t+Mz1y0YMRjswy4MM8sZcJMbDIGyoKN6uJ8PLRuJ+xGg8x/1vgK+XnBpGpcNHcSVm8/lNy6vyU2ubLwi9+7fskjp+wEP6I7GgPQE1zY36xo0vV4mh9s9w5e/qnl87RUGm/s9OALVyyQhmKsKGKCiIMWC12kL1y+8E0ixpsbWsSKIwF6pPE/z24WSgrb6p5o8EG+7U8viBv/TgZb9B5q7xP3m8ro4XhyKB6ZhkZFcFPBbNBKfNEdTSCYziIOJcLZrIBTKpmEUqGC2WJALJlESbED7n4/TAYDnA47evr6odWq4ci35UBVrLgsjrZ2obTIIZ0qCYrcF0HcYjbBajEJaNJC7ejqQVVl6bFTa213oaaqTH6ORKIIhaMocubLz7F4Aq5uN+x2C8LhqJwHwTUciWJifZUAMPfJG9zV6xGQzbdZkUwm5Xt9Hp9Ym/yc82cogK47lFmYlUroGHJIJZFv0MCs1SESTYCmqLRtFguZibGMHEPaQJc531Vd9M8eXoObL5yH4gLriJeWYSKH1YSFU2tG3I4WaHVRHmaNqzh2j67cfhibG5px7eIZ8AbC+PVjm/C9m5dj/uRqiY+u292ETy47C4V2Cx5asz2eTaUPldoKL/nW9fN638n9diZ8ZwxA3+Iq/+CRddfsaum+N5HOmr5wxdnKh9fukOw3rY4/vrAFhXkWfPrCuXhmy348+/I+fPGKhScM/B9q7xUhkBuWnTXi/fRSQzOCkfiIVCbugHSmmfUVUhd9MoPx1V1HOsWytBh0kgln3I+WGN1pxv1oZXkiMfgTacRUakSyCgEruvIqLbPbTAolMWV8DXQ6LZLJFJraXIjHE5g8vlroWAR3gmVjcwdqKkqh1qjE+vQPhuDpH5CEUpGzACaTQbanRegfDKK4iOGIXCyzrZ0AWnLstNo7elBVUSJg5fcHZb52q1lAi9/l8fLzcqr7vJF73F6kk2mxZDVaNfLtVuj1WrR39mJ8XaVsI6CqUCCbyWDf4RaJu1ZXsN+7Wuba2uoSMDYbDNBoGSMAtFDArMxAn87AptdCo8wimkxBq1JL6IHnxoQa+8tPqioc8SX4VteM/ep/9+RGfPfTF416SX/0wCr80zWLYTaMrMj1yPpd0vtqSs1r68mdMx784JqdGAhFpPHg3AlVaOzy4HOXzIfdYsBfV+2Q+PQtl8zH9kOdmT88vTF75byJf7jrpuX/OOrkzsANxgD0uIs+lCRam1Eqxp87o177u2deFurRLRfPx0v7mrHrSBc+d+l8CfLfv2qH9FGfN6kC1y2edcJbh4rkD6/bOSo1hVUmv31yE77zqeUj3oYExN89xYdt5BjY0W4vGtv7YDHpBSwj8YQAGi0zWl4FdlOOhpTMIqnTwxOMyMMVjcRQWOSQ2GB+vg19bi8qS4skptja1YuCPCu8/X5UlBUJMNqtVtisJgEzWpy0BrvdXui0GkSjcVitZtisZnR29aK8rHjIhc/S40Zbh+uYxUmjrrvHjUJngYASR1dnL8orcqWtHs8ALBYTDHqd/Nzd3YfiIgfUkrnPAWhrezdqqsslDJJIJARk+32DYqWWlTgF4IbCqeimtaxRw2Yxo93VK/stK3LgcHMHSpz5cPX1w2a1IBKKIB5LSLzVqNdBkcnAiAx06QzMSsj6ksLFBD73P6zPw0oiCsXYTW/NvDj+IvP+qCkuEEtwpBGJJ/EfD6/F7Z8ZXRPhv595GVedM1162r/VYFnoP/zqEXxm+XwsmlaLv67aJobBTcvnotXVjwfWbBf3ny/fSeVFyaYu9+DEsvzrvnPdkg1nIE6e8JTHAHRoaViCebDTe9c1y2ZrfYGoknSk8kI7Lpk3BQ+t3YEL50yQSqKNe49i7e4juOmCuWLNtbi8UkZ3onGyCSJ+//v3rcS/fWKJWIQjjd8+uRGXL5z6unppbk/Li5w/ZtCLCyxC4A9Fk0OZ5CwKbEYEIgn0RRJI6/QYiMfh84fF+nMW5otlWVLslCRNV1cvkqkkpk2olcQDrbIDR9oFHyaPqxYrjm44Lc66mnI5RjSWQJ+nX9z0PLsNhY68Y258IBQRN9zJ3w259319XrFIuU92qwwFw/J/gjwtRFq4tHjJ+0zEEzAaDdDqtNJfaGBgEBXlJcfc9FAoLPtwOOy5xBM5pPG4gD3DBP0Dg7CYjDInhlw6u3sxQaxSpYAjt2t39aGqvBhFBXYkU2k0tXbBaDLKPBjeyKQy8Hp9MOh00EpSTQV9JgWrKgsjqVxcp0xGKFUMU9Dlp4VfYDNhVl35UOz19VeW1KOfPbQad3/+8lFbsVATlGO0cBC3+cH9K/HNGy6ATnvidtW3//l5aWpHScXrl85CNJYUJsnHzp4m4PncK/vxh+dexu++cb0Ilfz5+S0Jp0W/sdho/9hYe5HcdTzjAfSnT6wv7/AE1xiM+ppLFkzR3rdyGyZXF2FSZRF++fh6zK4vF3dmIBjFPS9skZgSa9ZVSgWau73spjhqQP/7f1mJW2+6YNTe62t2NspFGY0sz1gmE1bDmVhSj7YdbBWX22YywBeMCPWI6EWrk2Wknb4gEloN/CnA4xscIrhnxToTepFCAaeDAhZZ+AYGkU7mMtPFzgJJyLR19qCspBB9Xh+KHPmwmA0ChMFQBO7+AQEYAnChM1/ApbXNhcqKkqGsO917oKOzBw5HHmKxOCKRmLQmkRik2SiWJGOK3IfNbhVgdPd6UFjsFAva7fagoCBfQD0SjiKZoNtMNoAKBqNewLesrEh+ZtacANrp6kVpsVPmw2hnIBQeCiekUVdVJmrwnAC37e71yvkS/BlnZRyXY9+hFiHoV1eWyxoFgyEMDgaQn29HW6tLwJ69jUjYVycTsGtUsKgVEiYJx1Iw65mEywUpmHw6a3ylSNINjz88uxkLp9SMGpJhiIQlnHfecomKUTuTAAAgAElEQVRYzqON7/35+VEz+sN0KHo/f1u9E8FoDJ9cehbW7G5EZ98AvnD52fjFI2tRYDWiuMCGG5acxTba6b9vbYhNqXB+6bvXL31wtHl81D8/owH0+w+tu+2Qy/Od65aepevzBZSbD7Tgi5cvEhmxB17cDpvZgNtvvhhPvLQHjR0efOmKs1GU91rmlXw7ujrfuOb8Ee+Th9bsxNTaUkyrfX086o1fIuH+7gdW4Qefu2xUrueDa3Yg32YSkGT8jlZXMJoQ64cPG63NWCIFVyAKtd2KTm8AXt+gWIAEtsFAQFxcghgTLCXFRZIccXv6JQtdV1kilhrjhATYcTUVYnGxHUVjSyfqh6xOWnauHo/EIgk8w4mjUCiCwUBIwgFMPg0GwwgEgmLx2ewWydIzpunu9cJZmCtPZaZ7wOdHfgETRVn0e/pR4MypEvH/jqHt/D4/LFYLNFqNWKrhYBi0QAmeJrMBVotZrMZ4LC4hAckNEUIVEEuU4E3ruaTIAYvZiEAwDN9AAPXVZbJ27V29AlK0dCPROAw6LQZDERQVsTW0UkDU2++DmrHfTAYlxYXodrkRDkck7GFQKmBIJ2FTK6FRKcQqJVeV12Y4WVVfViDX7PFNe09K53VTQzO8A6ERvZ3h+ykQieG/n3lJBEfejmdEg+DelVuxcHINZtSX4U/Pb0W724fffuNaHGjpkUz+9UtnS7uRv/79lUQykTpaXViw5EyurT8jAZRtgzt6Q6ssFmP5xfMnq+9buV3A7fzZ4yQWxCQH40f/+9xmseDOmVorbtMb+6qfrHve2NmHrQfb8JmL5o/6QiZNamJVEc4an8uevtWgNUzL94lN+8RiiKeSksmm9VZRnCdg6U9mAbMBh492Cc+xvrZc4polRU4EQyEBT7q0wVBYqoLKS4vg9vqQbzWjpLBAHvQedz8GBkMCEuLuEgCyWdAdZxab/zca9SjIs4EZ84qKkpz7/X+cRiaeXK5eAWGlSgmz2QidXg93n0dAcXhfvn4/zFazgB/Bd8Djg91BJkIWfq8fdoddLNNwIARrnl0sRm7jKOQ+AItOg0w4DGeeBSZSnFIpcfcZlzRaLEipVAgwsZQhWyKNru4+1FaXC/B293ok885y0Qm1lRKfHa5aam5zIRiKYtbUetmmr39AXkClJYUSVyWFigCaZ7fC4/WhoqwE8USOGcCTZyy4vLgA2mQOSI3Cr81IaIA1AOFITlnplosXYMmscSPyS+lZsNkcPY63Uml64z1C5gcTU2xIeKLBl/9fV2/H/7v29S9/vkDIXX7lYJsklv7jkXXyQv2Hj52DUocdf1uzA4PhKL585dk43O7OPL1pT3xShfO7d3xi6X+OenN/BDc44wD09r+9+KtnXz38tR996UpVW69PwRuFWfS2bh9WvHoAN180T8jFj23YI8mfe//9UxLDOtG47c+Umbt0RIuRN+V373keP/zi6HEu9sP59WMb31I8uT8QwbZDbRIjJUgxEbCp4agQ+CkycrS3HymNFoGsAp7+AILhCGbOnIhYNC7ubFlpkTyojFOSg0n3u6ykCIlEEu2dLhQW5KG6vFjAk1YYXc/KsiL4BoNiodVUloiFRouNn+fZLCgi2GaBUCQqrn9xsVNinfw/46K0BAuLc83vSE9nUobxVKOZiaeMzI3AphcqERAcGITJZpH1DA0MwpxnE+pROpGEwWyCIp2CQ6tGpcOGPIMGTAslYnEYyAUdcseZQOIgSEoRgF6HUBbY3eKCymSC0WAYqpoCmpo7xMKuriiWRBJB2R8ICVjy/Ab8QYyvqRBwJYh2druFflVY6EB//wAymbQce3AwKC8hb/+AvJzy8qzo7fEKIDPJZtZooEvF4TTqkUyn8Oi6XZgzoRKVhXlSCmsxaLBgco0k6944nti0RxSXTib2ye8yRn7N4plvotQdv18mh6i/cKL4fd9AEPc8txnNPf249ablIr3I8BDZJ6Tx/U2YKeMlVvr/fvNEekJpfluVw7z029df2PERxMkTntIZA6A/eXTjtCO9/asrivIL9rf3qMnnoyoSY1J/emGLANC158+UihyWVS6dNR506UfT4Py9ZDunjXizcvXZ62ZWfcWobjy3ZcXR7HHlmD1khdLifOVAq3TjpDUYiibkoef/vcEINu09iuXnz0EMKnnIayqLMRAIwWwxCzeyvbNHLE9amNFoVICUD3plOSlCCng8/cIDJQjWVpZKTJP7J3dzmCTf1eOWLDMpLgRcxhYZFy0uKoBWoxVg7e3zCmDStZY4plIpgEnOpsVmzomKkNrk9cFMa5KgSoZAIACD1SKfJyIRqDQaKNUqxIIh6C1mpJhMUqswsTgfxTqVuNfKoYy6cFNVKplvjvWZFSYB46riMWSzEnOlFUsQDCk1aA/FZbuubrewCpio6nL1SfyW50jrehxDFColBgNh9Hr6BURbOrqPJcDozhOxe/s8MBr0AvK0LmOxmFjhjvw8Ae7unj6xbo82dyEUjcJu1mP9pj2YN64MU2uKJcwiLxrGg5UKmPV6LJxSLTFVDgIZ46S333zRqGEdbs+XE/smjXbf/vXFbVITP7GyaES8++ffPiEhkM9eskiSkkwy3XjBWZhYUYiH1u1AT39QKFE3XTgv+9CqbfHJ5QW33/HJC39+poDoGQGgtz24+j+Pdvu+cstlC3Vrdx5RsB/Rr7/+cew40imu9RcuXYiiPIu4NGyx8flLFwrR/GSsy/W7j0jyZrTET99ACH9esWVUmhJvPNJVmEX9zqcuFKkyun7M8LJGnCIRLEuvKLSj2T2IuFKFhrYeCTvMmlaPfLtF4o0ud79wLF3dfbBYzeKuEyQINIOBoCRFmNGmFcV91lTQBU2iobEZdqtFrM1h8KS1yznsP9wilUFlpYUCmNy+y5WjJ9FSC4XDAlTOoVghky9cG3//APRmkwAd9xWLROVflU4r28dDYSg1KmRZQplmBWGWqXiM+z9azdGBIPL0WsypcMoacFJKlRoKViux3DORgIaWo9Ti535mxRPd62HOJ7/D+CS3Z0KJa7alpVvimc6CvGOZ/NYOl7wcJo+vESqVxE2VEOu7ratXrHNnvl2y9UwSFRTkyXxYAMDMvD8QRElJoRDzOzq7UV5egnA4LCWlFSVOsbAbDrWiq9sjMWZdOo08jQIGrQqBcDy3JkPCKLwP5k2swm+e3IgvXbkIZQW5F85oY+PeJjCzP5I4N/fBe/vOz1wiL4mRBpkh//Tx83Dfqm0w6bXSg+nB1Tsk5MLkqss9gK/9+jEJL9Ci/svfX03GorHWKkf+uWdCbPQjDaA/e3zjuMM93g1F+bbCC+dNUP9pxatC/WElTp8vhOl1pfjYOdNwuL0P96/aho+fNxPzJlUeu59+9fgGcVlGcuF5s/7h2ZED9sM7pGt1ybxJo/ZzZ534H557SehIl8yfjO7+AOxmg8iUja8owpFuN7RmK3rDrOyJYUJtOey2XHKLFh0TP8xIk1YUCAZRUlQoSQ8CCsshDQadJHjIc0zE45hUVyWg1eP2iRVKi7GitFCSS8Mlmq0dPUIH8vkDKC8tzNF6slkBzn4fqUJmAWp+d9AfgK3ALnPhX1pFIf8gDDarWKDJeALJSFQsVP4dJmeqdDoBpHQ8DrXBgLOLrNjuCeHcUhs0tMiYzU6lBDyZmaeLzkFrddgiJXtAq9eLK56rRFIgHovlaEcajcRHmTjrDcXgV+kkk88YJ91+xkSH3XhyX/kZhU+OtnXBbNQLNYmWKfd5pLUTBqMRBr0erp5eAd7qyjJ0dfdKPJTJNp9vUKz9LlcPxteUSzJqeLCCq6W9R5JY5JVa1QrkGXTwDgZz4igA1u9pkhr8z126QK7/aCNXqZaLlRreIhQw/H1atQ+u3Yl/fkP88632f7xwybZDHXjqpb349HJS+JJ4bP0esUYfXb9TqrE8/jC+ePnZaOv1Zh9dsys+qcLxrTtuWPbb0eb9Yf78Iwugdz209nsHurzfu2n5XG2nx6+gO/6VK8+R/tortx3Ej794JcqddnFD3AMhybBbja+v7mA5XIXTLm/WEd/SfyHnbimM+pHFfilJR53Qb93w1u2JaaFsP9wOBvgLrCb8ccUWnDe9DnazEXVlDhzt6kdSo0ZYQR5kAJPHVcF6HCWGczza3i0gNxyjY2KHDzctTcbqCDqkAxFU2jq7UVVaJEkjfsc7MCj0HvJJCRDMUpPqw4QK+ZNGo1G4lQQaAjSz2V7vgLisRrMRer1eElWDjH+q1VDrdGK5sulZPByROKYA3jANhxJ0Q7X26WgUamOO3pOk1WYyYVGRFVv7AijXq6R3lBZZsZj0dPHJQ00moNRomL4XYCY7X6lmdVCOlTBccZROpaA3EFRZgUQXPyLHaQolkVFr5Hx7etzCTiBv0uP1D4UpHLnkWFmRAF2v2yfx2kqxwElxOir/ktDP4w8OhlCQb8sllcpL0dPrhtlikmOStzp7ypsVuZikO9LaJRZsvl4DRTyKAotBPCOXx48LZk9AVqkQlalF0+pgHAEYmanv94dFPHmkwSolhqxGu6/58rz93hW4+3OvtZJhsQWTrkT4G5fMwkPrdmPtzkY8cNvN6OjzgTTAKxZNlQKU+1ZuS8ZiseYqR/7ij6o1+pED0J88urqyzRPaVJBvK714/iTNH1/Yiqk1JVg8cxzueX4z1GoFiuw2kZxjWSYJ8ifSXzzS6cbWQ624efnI2XPqODI5w/7dow1aoXT32dv7+HGwrRcH23ulUZjXH5IH2e0PYs2OI1g+bwLURhOSag1cngGMry6DI//NFSa0OI+0u3LxyY6cKllFWTFcPYzvFciDXVnOEtCc21lfWQbvgF+sUsbvJtZXijVGS4agQsuLWXTGOU1Go1ijBMhAICRJIrrADme+gEhfrwd2cieVChF+DvjotpvF+kxGozIXAgktS7EgGa8LhaFmYmgINNUmo1h3BFD1cQCaGALU4d9r6RKbdaixGaEeAhS+GLLUC6XpyYorAqlKJS69Vk9LM1f3HovEYDQZxLrs9PpxeCAiFCgm0xgvJoeUn3X3eCSZRPYBrVICMnfQ0taNgnyraLzmaGApVFaUiiVNrirJ/lxPVmIxWdXa3iXfpwVcmG+HI++tK4OC4SgON3cJvzgeDGHX/mZ89cpFcA+EpSyVvFdyew1aNc6eWvemrD29qjv/8nfcfsvI1ict4zv/shJ3f/6yUYn7DDvRunwrgWeGlp7ctBc3XTAHv3vmJUkw0Rolf3rYKGGm/lBrb/bpl/bGplcXfuW71y29f7Tn48P2+UcKQL//4JrvrNp99Pvf/vRFqp7+QeWGvU348uVno7HTLe7Qly5bBKVKIS2C6cp/5WPnwm46cU0x43d3379SyMsjDfLufvvEydUyk6z84wdWS4dNyYj7gth6qE36wXd7AxJnCkfjKHHYEI4nsK+9D0d6BlBXVYKqskKhxpxoHG7phMViHnqYvXA6C9DZ1ZOr5gFQ6HRI3LOvz4M8mxlFBXlCEt93qFm+U19dDq1GI9lxut5MmpCaUyjEeZOAJ39P8PQPBsRlN5lMOcWleAIBfxAmu1UsToYGEqEwFKwXF85nrrooFY2KdclBV50grNRqkI6zXFIhFmUqGhPLdGGpHVt7/EjF41DRuj3OSk1FIgJGs0uY+FEikxiyRocSRwRT/iWQqkVZihJ4cUlwkd9JoCbb4LmdjdAZjSgsLBCeJoGWiaDevn6poyeo0kLn9wmifNHQ8nTm2yRu7B0IwkP2QZFT1q2jg7HPYrS1u8RaFqUohUKSSi5XD2ZMrh+xeoUqUI+v2IyJtaUotZqgy6RyveD7WfxAqzpXlMCYPTPgAuwAKEZDScVFo4iMUFCZ15zKS6MN9uoaCEVPSIciY+RXj21Al8eH//jqVbhv1XZJfrH0mcbHA6t3iAZETUk+fvPY+gSymR0LFlWf/+U5c3KuyEdgfCQA9GePbitu9/WtV6jUdYFYREMqCGuAL50/RTLapQ4rPrlsDro8g/jDsy/DH4ziD//6iZO6fHffvwrf/MTSN7XheOOXWbFBkvFIakrD39m07yhaXP2SCOJDxr/BcFySOYy1ERC6/GFYHPk40tEHZ54V42tyqkQnGnzwjra5UFZWLAmMnEgH4OpxizUUDIdRVlwknEy6k5PrGfcEmjtcsJlNMBj0ApgEC9acd7h6odfpYLNZ0NHVC7PJIODMeCetrrw8G6QU02KSrDkt1XAoLK4seY4p1o8z0aNSC0AOD4ImAUVc9yErVCOUpqwApMpgQJo0pGwW51Q6saXTmxNDZouPt3D5nSYdZjitsr1iSLCZx5IYaTon2jycTOK/GkrdDWmMMpnVEk7C5R0Ua5VFBrFoDF6fH1XlJVJ62enqE8pXvs0iliWTSXzxMNzBklbui4UFXBuGSHwDfvT7BsRiJ7aVFhehvbNbvAJa7uykSfAdbTAW3dDYDrNRBxMyyNNroFOr4QuE5EUTiSVFZ5ZK+nwRsMHc164+b8TdDqt5sThkpBLP4Z0w+08uaUXhiRXC2I7m71sPiLLXV648Gy63X8TEv3TFIlGWunfFq9JGZe6EClKhMqlUMjSlvPjiW68//5XR1uDD8PmHHkC//+CaLx/s8v7q+gvnaDt6fcq/rNyGn335CnR5/dK+4POXLZTKCbobh9t78dX/szp/9cSG18V1RrpQFJ6tL3diVn1Ouu5Eg5xMNowbrSqJQLG9sUNiRZQkyzcbpWrI6w+jpjQfBzu8KCwtxOFO0mO0mDouR2AfbTS2dsFszll2jGeWFheis6sbBY48uPv6JVPu9vjEXZ0yoQYmgx5+VtT4/KihhJwoLqUFIBjnI6CwdFO0MNMZAeKc1rwCeQV2ya7TGvN5+mGyWQUMmZmO+gehoNVnyCU9xO0WMHntHJJ03WmZUbyY7v2QklOWAsqMjyqUYj2eU1OMLe19ueomuucU66D5lclAodYIMCtUKky3GyRGevzIJJLHgJvfzaTSUOuoNZor9SR3NKNS47A/miPwDwzmEljptKwVaV105Tla2rokgUaFqrqqUnHHGSdNpVMoLy6Uf/cfaYNOp5OqK+6PVjsJ9+SDcjBpx0otsiJmTqob7XIe+3xgMIiDzS7kmQ1QpxKw6dQwaDTo9QegVWvQ6xvEyw3NuPVTy98UFnrjQVgqTJbJSL23hr/D+/TWe57Hj744cgeEF7YelJhtbakTFDBh65D5E6tAet+sceW4fOEUvLS/BQ9SnGRiNS48awL+5+mXEhPLnb++44al3zrphThNNxz9yTxNJ/7LR7cYesOBlaFkauGnL56veXjtTimZ4z2fTGXEAr1h6Wz0D0bw+2deknpjiiDzQf7pQ6vxlSvPFarSaIO9gJ59uWHUtzv385MHV+Ozl5AS9dZCux3uAVGsJ3m6uceLla8ewuKZ9SIpxr5IepsF3khS+HYzJ1SPavUOz506mwRQZoGHrU9WJQ0GQ2IhMeZnNpkkkUTHlQLGrKAhPWdCXYXQfmjl8aERS7alU9x+ZpAlE80ESSAEj8eXc9st5lxyiBSkRBLhwYCAJOlIKr0W6VgCEs9k0oa9kWIxaEyv1X9nKJ4ci+Wy8BQ5TiahMZtzLj2BS60W4D27phivtHugoIsfi8s+COKpUETCAlSYz6SSoo85t7r4GEizgZ3k3xlrZVVUMiXAnEml5FzTqTS8sTS6YyTc50SSSTcKDgbhcOQLo4HrRnc+R1PqFetz6sRa4YkOx0MppFJbUSIFC53dHuF9lpQUIZVKirIU46qMP1dV5K4LhVoYh6ba04lioSe6H939gzjS6hLFJGUsigqHDY0dfVi5/RCuXDgFFpNB7n+2yc63vrbWw/uLJpL4/r1/x92fZ+ho9Fp6uuAvNbTg85eOLNzMaj0yRWil8mVLQ+VIZ580tNuwuwkH23rk2dm0r1nI+NefPwtLZ48jCyDZ5/F31Rc7F3yYE0wfSgC9++G1yw+4PE+cN2O8saakQPnnFVtx3ZJZCESi+M9H10uGnTqI5GhSJPYrHzv7dTw6toIlKf3caSdnCVCY4fZPXzyqiANBkPt+oxXKzOXm/W3SYoFEdImlZShSnMSTG/figgVT4CguRHNnL6bUVaIgzzIarr/u88bWTqEsEdAISlUVpeI2FhXmo8/dLw8wid7MCk+fWCtG3KGj7VLCWC+iGgZk+CedxZGWDkk8MdnARApjgwza9fX1S127z+eX/kEmJogyueZw0VAEyXhMQJCgSaBiTHI4qz7stnNuuVgnuYdZAUqJecbjElpQKFTyud5ghCKdxtwqB7a198vxae0qdbmkEMGR1qdQrMIRaAx6nFvpgJpuPulVtKAZyyWti5YoY57UCkik0NXXD3ckCZXRKKES/o2FIxJ6oGq+u88rhHpSvUgn45oVs9oqk0UoEkFVGYGaivkQChfDHsWF+agoLsT+I60SOmHMlQR7SuXxJcZ/qX9K9550L16Lt2OFHn+xu3q9aOnqE+v2aGs3vnb1OfAHqeifyDWPUkIoTIunj3ud+hMLOSaUF44qmTd8LMZUl501ftT2Md/943NvUpI62uUGKYNXnTsdJflW/O8Lm2E3mbB0dj3aenzSSoSMmNae/szDq7cnplYXf/X265f85W3d9KfJxh8qAL3zzjuV6dqFf23zBa778pXnaV452IqWHi8+e8kCefMxmUPr7V+uXyqxzgpHnsQlmdk8fjBxwzYGb6wDPtE1YfUFxWZPBnD/68mNWDxzvFQc8Y285UCrtK1gHJLK9HxgORu2Uzjs8kKpN+BQWw8m1ZdhYs3IYYK3mp/wPhtbJBNM0CTXkdVGFPhl9nfY+uQDXezMQ57FjGg8jtbOHqk66nD1CbiUlxTCTUqSSiFSdJw7AZ613aRBFZcU5lzudEZ4nkLuNxpEsCMRJadTJeClGop3pkQjM5cgYvIoGQoJWDIZJJbpUPxTZzbBotLCqlbDZlDBwK6ZkkjPiu4qKV3DVUaxVAbBWBKDiSyCVGWKkoCvFiCuzTOjymYErVsBaLVKatnDZAQk07mWJEEmtRgeyNXnk3qViETlhWbLs4lOKifmcXths5lBQRSWZ0p7E2VOMZ9KVARXqjdxXejO2ywmOPJsYokS4IqLC0HqFK1Q6qH2ur3IszFzHxerlJ4AqVCMd7+TwRfHio27YLUYUJlvQTwUQX2ZQ54FtlRhEo/rx+QN6UQML9GFHk1DdnguLOT48d9eHDXMRW1aMln+7RPL3nQaZAX8acVWefZuunAOvv7bJ1BTnI9vfmKZdHj90wtbRUKPrJPfP7UxmafXbTHXGC74sPWq/9AA6E+f3Djp5YOdL1tMOtvXrl6sotoMeWwTKgpx799fldatJMH/w68ehfX/EiI3L5+HyTWvpwodf5VZicEa35EIx8PbM9v4uyc3nZRiOKXBfvy31aLqtL+lB9UlBeKeF1OIOBjGpIpiNLR3o7DIiRb3gLiIMyfVDInxvv3HiYRs9mWnWAdr3MtLiwVICdjMlBcVOmA2GcUiorYnh3A8CwtECITCxgODAWl7wbjmhPqqITGQXPURrVD+y0GQ4Ta0OsPBkFhStNxIORIqEsswdTohtXPQDRcXna4zOaHMgg9l4M0qDQp0Wjj0KoRiceFY9np9MmfKxRGArr/8fDzy/Hqx+HgONptVKoeKnflw5lsRjibhSWThTyWkzl6ZTkHDpnXsxBkKQaHSQD2k3C4hAyahSNYneEdjElfVGXQwmU0SGyWAMhPv9fSLynxNTbn8Tl4E7HefTqOppUsAvbzYKa4+z//w0Q5MnVAjlvGBpjYJAzBMQmUrzpuLQ+FpAl84GhVGAxNY9VUn11XgRHcFk3m7DraKqr5RmUEBm+KplfAGci8FWtC8ci/vbcKtN10ExwiaDscfg+EwEvhHy+iv23VEXrQjVeG9erANT7/cgGgigRuWzJYEE7UnivNtrFqSRoWfuWguHl+/J712Z2P04hl153z7hqV73/6T8MF840MBoHc8uOanjd2+byybM1HHum/SaUh8336oXd66/D+BkPyzZzfvxx/+9QaJi400/v7qQbnxToa7yf2wKokB8dE6YjLW9PunXgL/ZSmeyaBDKBqXaia+lYNsxGYwoM3lxqxJNRK7ejejobEVRUVO9A/kehMxo0+aES1Rab+RSonFQ8WkmopisZqYKBpfW5HLxwwlcCgeTGAQa5NK72q16GdScIQSbfw3GAiJ0AfFLxJsBkd5OrrBQwT4YZea8U+CBt1rWp8aUqugEAA1a7WosNtgVJEm1Yumlg54vB4hxTOemcmkBKjoj958/VW475GnhrLouWojyeqrtTCazKirqcIEVviYDOgKxNHn9wmYM4TATL6ozw+pPPH/w+Ap1i/J9OwTb9BBbzSI5abIZhBkFZXdKpY1xZ7pctOKYgVTT59XwJSk+tIiytHlqqhojRr0WhTYbejscaPX45MyT4Kn202L1IneXo8IQJPeVF2Vi4nOmFQ3KhfzZO4NfzCCfY1tEh/NRmOoctowEIxIixjymK1Go/TvOm9G3bEa+xPtl8bCLx9dh+/fMrJADr/PNsz0/kYDZtLzvvDzB/HVj52Dc2fU43dPbkBdqVO8w1f2t+KFrQdw8dyJ2NPigscXTEwqcfz0thuX3n4y5/5Bb3NaA+hPH3q5tMXn3ZyfZy6/9vxZ6l8/sQm9/X78+ycvxB9XvIJzp9bhonmT0N7rk58vXzAFff4gCm1mLJgyctOtt6O9yYvU0x/A39Zsf0t3Zfgi7mvuRqd7AM48M+5fuQ1zJlegvMCO4jwbjvR4UVZRgoajLpQX5qO2YmQRh5O5MZjAOdLmQmlJEdrau1BVVSaCHqTdkGLEn5kwoStZUpgvDzZd8KqKIqlpp/VJTiDl6Zi5Z9sLxlJZaUQwjcUSKCp2inUnCSMp0xyERq9HPBKVOCJdZrEwmWmXbHmO68kfhl09tN0AACAASURBVEszmQHXm4woZWM3LcsgXWg43IRQYBCpRBTpZFwszkw6JepGjDfymF+8+Ubcc99Dr5VlsismAVR6EWmg1uqg0RlRW1ONmVPGCbC2ByMIhILHrGICJeekFhAf6h46ZCnTOk6HI9CbjQKmyVgMefl24cqSUtbX60VpaaFk6FPJVM6d12pwtLUT42orcgklZc7SO9DYkmuol2dHvz9n+fMlxtJO9oKiG88X04A/INxQCpxQOvDtJpNGui/aut1o7/GgzG5BKhYVT4w9tD6xZDYSqYx0IbWbjMIfPdFg9vz8GfWYXH1i743fPdnWMtyWXRIYRmBxRqfHj69+7Gys331UEqpfu+pc8Wqo/WAx63DHzZfg/pWvJn3+cOcEp3Puv1y/yHcyz8IHtc1pC6A/eHj9/2vo6PvxTRfN18XTKcWj63bj+mWz8bunNgnX8qtXngOH3XQs6/cPV50n9cKufj+e2LBXGm+NNh5YvR0TKoowd+LIpZrD++Gb+ZrzZqKqONcZcniwZp09k2pLC4RrWphnQqfbD7o450yvR3lZIXoGqUqUxJzJNTkF+FMwSJyn7iXpS+l0Cs6CApGlYzKEQsBOR77UwLMUlCIYrFOn+073jrzPkqICAQH+jjFQ9lxn/Iwuu6u7VwCUgMI6dLrt/EuLNujzv87yJIiyBl0sUSZ2hED/mmWqz6RR78hHIBDAlh374fX0IhWPIJmIieXJrDWtTuGQDlnEXJ6vfuEz+O8/3icrlWNBMTPOvzlLlMkatUYLtc4Ig9GKmdMnYVJ1GVyRDLzJuCSQCMrcltYtOaa0ilUG/bEwA8nvUhGl1cJss0pxg7jyVGLy+UWaj9lz0phymXkFAoGwsA8YSmBfKFYs8ZpyjRkLHQgE4fEFpJCBAiuU7CMpny8gxkRJJ6OCUyQcESv0VA5a13sPt8u1W7NlD64+dxpqigrQ7h6ARqVEIp2WlyqrmYryX5+sPNjai5XbD0oOYbRBqUfKPo4ExsP7YF7gY+dMl0z9nmYXHlm7C5+/bIGwH+55fot8FksksXZHI8wmnWiPNrT0ZF7Y3BCdWuG85rufWLpqtPl8UJ+fdgD6mxVbra093tWxNGZ9/vIFmic3NQhIXHXODDDbfrTbjfu+82mwWRt5Z7yAFOg4nmdIAQQ2Zxstvsns+N33rcIPv3jFmxJNb3VBCM5/fuFVfO/Ty+V4BJpXD7YjlU1L8kF6qwPQUkBXr0OTqx/rG45i9qQazBpfLXG7Uzn2HmqGw1kg3EKJ76lUQn1ixpqlm7SA2tu7MGNynbjQHVRmMhlhtZrE6qSlmRMQVqCyvFgsAYIYO3h2d7uPZd1Ftd5iQUYBRMMxJJPMpLNHUDJXmjmUeZdsexbyO7rQdLnzLCbUWI043NyJ7bv3IR4JIBkNI5mMI5VM5CzPoRjrG9fmeAB942dSGSQydgRSHTRaPbQGMyoqq3DuvOkIJoD2gX6oDDlKD+eTo0KZBNw5pDKKoiZMRLEHvM0CjVKFbCaNUCAkySI2lCspcYrlyQeeIEorufFoh/yOGqoETjISWtq7MUkKFLLYc7AZVZVlYomL215ZKnxSUp0oYs1YLhWiTpUb/8b1YTJ17dYGTKgqltj05IoiSd4QqBg7ZWiJLwr2+SL4R2IJ3HXfSnz35uWiPTrSIF/4e398AT/60hWjhiBoNPzowRdfJ6833IV0ck0JLp03Cfeu3CZ0p09eMEeoheRIM4dBgP+vJzckS23mZ39yy8XXnspn51Tt67QC0B8+su6ihk734xfOm2ysK3UomUmni65SKCVOwsTM/au24/yZdXhxRyO+dPmiN1mDXBgShhlvvGzhlFHXiRl2DgognMxggJ0Xlm9TqjiVFdpF9IFxIHJOx1U4sK+1D9WVJWBnTL71Z07MNWE7lUPk5ZrahavZ3tEtDyjrrrVarTyg+Xl2KUNk7C6XrMiC8VK2IeYY5n0ePtp+DHxZiUNAov4lq5C0+pzlSQ5kwB8QS47gOZw0otWYZtnlkEVHgjyPI58rFODrotZpx6u7D+PQ4cNIRINIxMJSUplK5WhXI42RAHT4e8MvDlqiWp1BQDTPUYSLzp2LpM6AjmBISPQMKxAoBeCFQ0qR5kTuBaBUyudUcWI4gsCal2/LqfwnEpIQEipTNis0Llp3ufp2NUoKHceESxpbyAstFWBt7eqBVquT9ezu7ZP15lzpHdACpIXLFxMb2NktI8fr38190+byoLnLjSqHFYloDOPLnTjU2Qedii/alJzThEonnt1yQPic1I0YbTy+cY94e6NJOHI/z25ukJ5R588c97rd8rhU5Kcb/49Xn4dfPLoG0UQa/3j1uZJw/cNzm1Gab8W1S2bh8fW7Ui2dbs+4YuuC002w+dQ+1aOt/Ak+Jz0pUbPo8YM97ssnVZZoCE5UJfrMxfPw+Ma9UrJ2y8XzhCD/j79+DHVlTvz7jctOmLnmg/ndPz4vggl0yUYaTKKwXPOLly8cVRSZ+wlGoviH/3wMX7hiESLRBPItJnj8QZlTRx8FNAyIsHHbwCDmTak/aTL8210670AAvmBYHmQ2QivIs4t473A1Eq0Kxt1IwSly5Ik1SmClTN1w8ohuKEs22XudLr/HOyAPFWNVJaVFYmGTnM0Ko1Qqg8CAX+KJAphDZGxJHEUoFpKFSqOVkktaomy6Vms1YfOOgzhypBHxyCASsRxflBlufm+0cTIAOrwPJndYpqnRGaAzmGErKMTF5y9ESqVGi9t7rBqKc+Wx+T4bjttyH2KhRmMw2qwS3mB2mIkl0s56WQ6r0yCVTMNBwLPlkmJNrZ2YNI716DnqFXmhdNOdBXaJN5NZYDIZhe3Al1B+nlW2oWITVazsdquIRTO5914OXs/tB1uh0SihTidR5bAL8yEcpbRfSoTDjVod/u2G0TvCklbGZotUaBquwz/R3JlIvesvK/GDz192Qt1R9mG657ktYPLqx1+6kpSmYwmmjXuasGlvi4DqriNd2cc37Eounl77lduuO//e93K93s6+P3AAJT3pYId706zxlXmFBVbV7558CVefN134YWzGNkxH2tvcjYfW7MDCKbXCY6RIwUiDwrI93sCo23EfVJ35/dObcMctl4x4Uxxo6xGQpKv7+Ibd+MLlC6UmmZJ3Bzrc0ndoV2MHxlcWo2IE0Y+3c4FOtG1Tm0vaYgSDYXlA+dIgMJGwXVzokBuWvMWp42rgGxxEe1efxOHIY7RbzRJq6GFvdK0GFqtJLCQCZq+7XzLQfLGQ3sPYIAGUYBsNhnK16jG66lkB0mPuu1QWqaAyGqBXKjDRYcPOhqPY19CAeIjgGUZiCDxP9vzfDoByn8O17rREdUYLHEWluHjxPPgySnhJWxoi3jN7ph4i/ecqpaJCtyIgMAzCVsb0HFgyyvp+ristcsZCc7SmXCyUyTm+uISqhAxYdtnW2Qsry3PzbNJTiqLKBNi2jlylGFWycv92SYGDCIyc4jjoidbX6w9iT2MHKopsci2nVZfiobXsxhnHvImVYmwU5pmFPfJWHhPX76cPrcG1i2eOykbhHKhDMb22dNQ46WAohi//4iFcMGciPr18DlZsPThUwbRYklWsdiIeUEDlQKsrWWAyrNS3vHLVnXfeObILc7I32rvY7gMF0LseWvdPh7o9P/nc5Yv0g+GY4n+f3SItBlgKOZytowU1LI9FsQLqJt7xlxdGbdnKi33XfavwhSsWnJSaNyuIAqHoWwIuY6Ubdh9FmcMqSSKWia7fc1SUv3njFbLiZzAizdvmT6kdVeX7XVyvY1/dffDoMfI8W3OQYsOHuafPIw9omMLIsZgon3MtDjS2SifNflqurKMe6jg5rq4y1/5Y1OMzEg4oKi6Uiin2+SGY6gx6saxAkBnieDI5k47GhRxPd5jUJak5T8QxsawEvT0ebNqyDbHQAOKR4NsGT57o2wXQ40FUpzdCb7KioroOF55zFloHQqIYT5ed5aAZETVhqWfmWByXL5V0OCzN6JiR58LY7Tax8mmFVlWWikU6XObJtSFISquTZBL5dqusO6183qdtrl5JchFg6R0wqUdu6LC0IH/uc3sxZVzVO+YBv5N7aV9Tp5D+Dx11SQLvuvNnihJYTspPKRS8c6bVSTvj4wddd8aBR9Mb5XdYjfT05oYRWSvD+371UDt6+gcFIBlSY5USByuYrlw4TUD4O/c8K9q0d9x8EV7cdji9t7mrf3KJbd6/XbOs/Z2swan6zgcCoL9Z0aTr6mt+MYHsgs9dtkj73OYGEf84d3odfv7QWnzm4vkSkyQliHFQNtNaPOO1GAqpFkwcUZJupMGKI/I37/pcTjputMHyNSprH88N3d/agy6PH3lmIzyDIYnnML7qtBqxYsdhuAcjmD6+EjPGVb5J0GK0473Tz5kkIoCylTBr1MWiae8Smgw1KllOyP5HDntORYgliOwFzzLEXMfMrAAprU0mkBgrpeoS1ddJZGfmXTLumbS4eOyImYjFoNYbXqesxPknw+RTZsTyJLgWm/QwML61ZguCA32IhQOIxyIisvF2xzsB0GEQ1ep00BlM0JvzMOes2RhfXY6mUEQsZ2bnSawnzYptRYZHLqbLKi6lZOS5LsPlnhSJpuISValIaeLLheIiDHlMqK+EaUgFn+vKJEuJs0ASdT0en4hbk4EwHAfl8UTYmZJ/VLIvK0SB/dQmGEdba/ZiWrllrwh1R4IRnDW+DIfa+0QUnBJ2Zp1GDIHzZ40X+hepSHSp//m6JaPG82lw/PCvL+KbN1wg1WSjDbJbqJZG9SYmh//rqU1SJEPtivtf3I5EKg2LQSdhlQNtFAQ6h3S77L0rtsYmVxZ+7YN06d93AP36759d7I/Fn14yZ7xlUlWp6r+e3ihiGvkWI55/db+84e7+7GXHAszkib2xpcZRlwdrdh4R+azRBlu87mrqlED1aIkcAsvPHl6Di+dNRk1xASg7V12Uj7Y+H0oLctbn1OoSHHF5RK2doE/x4wvmTxk1HjTaPN/O52wY1+MZkK/Q4mH8jXEuPvAs3cy329HR1Y1pE2rEfezqdQttxmY1H7M2e3pzepeM0TGGSvczGAhLeSOpNiTLJ4W2lJaqo4youWdyteVaKiHlgEcoQCaDxA/pLUwuK8S6zXvR2nxErM8YM+4J9vt5O2eY2/adAii/y4dfXHmTBWabE1ddcj6CGQV6fb5cDb5WK7FbCpQI/5QWtpDt9cjEY7CQvqVSiStPC5NtSMgHpevO5BLjmWQ00PJnHyoLE2dKSIKIZbJsJMfF3nuYZbZl4g309HokZMKWx7SmuLZ8CZJzWl327nnBb3+Fgcb2XtEHKLSboUUGhXlWtHTnlMASiYx4ImylvGV/G779yQtGlcFjKOmHD7wolYEsZx5tsHLvF49seF0XWobIHlu/Cx2eAaE0saLvxw+uxu2fuUQojMOYcf6sevz28fVJh9m0xtD6yuUfhEv/vgLo9/+29o5HNjfc9suvX61y+0LSRpi6gaweomV30wVzceufnhMC8NTaUly5aOoJQY/Nrr5xzeKT6hXDPi6M8zCeOtqI/J8w8L/87klMryvDnPEVGIzERT4sq8jCbNDD1T8oHS73NHVg3uQasfLe79HZ4xFAo1vNrDsl2KTb5WBQ4qHMEsfjceEpsmqGvY7G15bnerYPkeePtHSiuiLXlZM3LN33NmqD2qwIBkMCyFRyp24nWw2rRC1e8BfZRC6DLWR5jfaYVVpuNiAUiGDthi2IBLxifTLueSKa0hvXjWWIFeXlqK2qlATLjKlTcLDxiAB8T28fmlvaxEI+2UGeKIVJ9GY76sdNwnnzp/1/8r4DvM3zuvqABAgQAAlwgXuLFDWovaw9LVnD8rbjIWenzWraJM1uk7ZZdcafNE2a1XhveWlYe+9hbe5NggMECIIkBgEC+HPuR8iyRZGUrSSy++bJI5oYBL5x33vPPfccVDl7xJSPi6OmoiMaEX0eZEqwI0/FqRi1WqhW/YQqREw5gII8EuhZxitYKKlIXm8/MtKS5b/5v7KqeozJyxRzv6ZWm+CqFKrmLDz9kto6bGLqx+OdnZWGTptDyvi/1SLV6OjFGmmIunvdmDE2C5fq22GIjRFrkbpWu+Cey6aPHTZRYAJCnvbkoiwsHKVQD2GBzGSTqKW9e12oa8MzO0+Ked0ftx6BUavDrPG5uHVGCZ7aeUIgNIqkbz1eNlBZ39pZnJI642sfma9YMfyV1l8lgLLL7s6dvdM7EF7g9vs1xDrYUb99/gT85vXD4iA4e1wuKpo68KX/2oiffPYOTMwffk6YB/dYWb1Qm0az/rTtuIx3DkdXIiH+8MU6ZCeb8etNhzBrbI6UFRNyM3C+3oqi/HTUWrskI5l+DaB9NJ/l/T6HnEraZ7BrTlqM09ktJThV1BX80yPkbQr3svNu7bCLoRl5jUa9HgaDDo3N7cjPy1KM3+jP7g/AZnMgKSVJSlCW7h63V/yDRN2IJSpFNa748IHePgnAFDLmOOS45AS8ue8kmhtq4O1Vss/RlO6sDErGjsEts6aTKo+6hgaxXV6xdCG2btslzIKc7CwRJ65taMSRYyfFWXSkxfeN0eqgM8RBH5+E9auWIBCjRUdPryKdF0V90dDlUdTI+xEf5TioCLLEaqV0J2bMkVh22JnpCyd0UKSmvrEVOZmpklkyaPKYk3hPTJTCyGzEMUPlVBI3Xyo8padZ5L+pnEXXgPeqzjTSMbiex6ub29HU5hA/rmgEheNMvVHSAblhkCs6fWz2kKLhzDzpIDo2JxWrZ48f1Z+N6Eb8+yfWXjMw08Hhly/vR3VrJ/741Qfx0t4zaO3qkTKeNjgUEfriXYtgd/WFn95+3KfXaB58/B/veW1UH+AGPOkvHkAfe+Wwpaq1863ivNTUW2eWqB/6jyfFuS83NRHP7T4lB4K0JfoKsdSm+DHnzUczHfSTF3Zj7S0TR/S25nEi9sdgnWzW477F095x6JiQMHDKJAwVwcIqeAN+HCtvRJfLjaXTS2TMsaKxDbdMHCMq4X/Lda6iFlmZ6SIaQo+jZmub8EFJqOd/cxaeWBbVl5iNsoTPz86A1+eTRhkfp+4ny3rOe7NJQhoTs1B2oAX/pJcR3TR7rijfB5WORGGec/QUKSanciCAVF0MVKEobNl1AJ6eTvj6XGJcNxJdifYaq5YvEbuRYydPo6yi+vJr3l3CE1qYO3sm8nKysWPPPtTVN414GsjD1OoN0BsTMG5CKWaVFqPC3oUosTmJ+C/pxSuaWTUbYezIIxiEKSlBynhmxizlvYRLAAmMxC45pcTjptDITBI0yens6u4VCIEEeyrXu/o8SEpMgM2uiIvw+fyXFQMJ9RR6uRkCKA8m/ekPna3GruNl0g/4yNKpko0a9THo6vGI5Qw3j0WTCyWzltf4B/DTF3dj/uQxo848+bpfv3YI8ycVSJNouHW6qgmvHjgv990X7lqIutYucBKKPHBubL94eZ846lKz4MfP7QjePn3cv//rQ8u+N+LFcQOe8BcNoD94Yc+8C82d2+9dPiPWpNdFsUkTExON/LRktDtd+OJdi+UrkEKUlWwWcYEWW7fgn5+9Q+nEDbcoX/ejZ972Fxrp+XycXb6GdocEbmaSBK0PX6xHUWYyqq12UU9q6nCgND8dZ2pa5aY4fKEWi6eXYMIIWfFo/v6NeA6nXHKEOM8JF1JirEoDqbtHGkjsxGemJiHeoBdsk5NcVF+KNJA6OhXZOgZQmpmxGcKyncFMq9OJURundSLmcFGDc+6yEQVDivDHoM4mGzEkohcnm3HqXDUuXjgHb08XfJ5eUWsablHY967bV0sGvGXbLqFgXbmuhYGOG1uExQvnYu/+w6ioqhn2bzAL5XfSGU2IT0jDA+uXo83bj97+wGUbkUjQFGw3WhEb5gx9nNkkdhSkLgUDA8JIYMlO2IQYJhtK1BRos9mFHkaVf6IAPKbUAc1JT1WkA1s6xCHANdhIYuZKKCUYCsrcPUVaKIrCYHCzrIqGNplcMhtiYVCrkGw2yjw7Gzk8puSQMhtlMGXZzhJ/alH2qD8++xikK41m5Jpxg41kyuyxpKd4EJtKv3hlHxZOGoN5pQXyGZgAEA5od/QG4rWaXT9+dOXqUX+g9/jEv1gA/bfnd3+pzGr/0RfvXqKtbrVh58lKfOb2+fj6b1/H3NIC/N26eSICwnHMh2+d+Y4JCErN0bdlNJ3zfWerYO3swUMrZoz6EBy8UItdpyoly42n33aYcJ5KZsUTTXqhI1HwmLqYHDHjPDtH326WdewsXUDVws0kxsnAQ4k0dtRZ0je3tGNiUZ5kQUr5roXZRN8hRTyk0WqTxgdvXuF/BhX6kiUtWayKOXnD95auNMt3cdKMvsqWQ1Th/X7o1NEoTrfg+c374Oq0DpbvikjxcGvl8kUwm8x45fUt0s1+9xquiTSmIBcrli7GK29sESrQsIFaE4NYgxGx8UlYtngBjKY4WLucilGcWiPluliMDC7ZaHw0vFP82Yl/UtmKjpvUQiWdiYGDGQ//b3d0I0arQZLJpDSSgiHUN7GRpAQUVgxsJDEjJ2uC54pYLjFahXMbQlFu5vtW5rrR1ydhnIPnqsXUjoaBt0zMw5lqK5JocufsRYfTJV5MHIXOSBrZ5yny+Vi6/+DpnfjnB5dLgB5u8TN874k38f1PrpOnkcj/X68eELtvjqE+vv2EwE1Uzifjpr69Cz/5u/XYfPTiQHOrvXlcXtqUL66eM3rg/DoP4l8kgH7nqZ2/be/zfOyL9yzWMPV2eXy4e+Ek/HLjfhTnpCKN9Jp4g3gI/eM9S66yINh85BLiDDHvoC4N97144GaOzZGdaDTL0ePBa4fO4a2qZuGe3T5/kihlTxqTgbNVVpQWZ0mZIJ5EI5i5jebv3cjnsKwur2mSQMmbkPggS3LZBIjJhSECFka9UprzYmUpyf9m152L4iEs6UWxnfqeIcVNMi3DIp13sSIeCIpikNftBShCLCOObLhEKRJxEnQUnmCyUQdVfwibt++Bx2mD1+2S5tFwnff8vBysWLIQz7/8GnqIpQ6xRurCz5szE9lZmXhh4+vDQgXiJR9rhD4+ARMnTcGU0rGod/XIpsnFEVTSmQhJkGnAX0uTKDoK8ZyPV6svd+PbadERCaBXNJKY5WempkgA5XEqq25AdrpFNiJK3MXqdHJc2dzjz3Q7JSuCmza7+mnJZqGc3YyLFh31rZ3iy0R6k16rxhPbT0ATrcaq2eNEwYu0I/YLRlrcXH7wzE7hnpLzPdLiWDZpTFfiqnyPJ3acAKlYn1pzC2ix/OaJMsFmOQjA//7i3YtR32YPbT1yrm9SXvqcr921qHykv/VeHr/hAfRrT2zfGghj+afWzdP8dtMhZKWYMa0oG7/bfERoRywdf/jMLuSnJojf9FBlC4m8lLcaDly+8stGTsrt80oxufDaeAozC3YV2TDhaB4Vy4+U1Yuh26rZ46GLiUFGWiLK6oh1Fv7Nsc6hTigv1vqWdvEmUugwypgg1ZjYQaexWVOzFZNLCuR7stuenGiG3+8XvI4BmIGRkncs2TU0Z4uOEnM58hXFpmNAwUBZrvKmp4FbZEkJL1ghM0ZFiCQ3NQktLXYcPXYcHpcdXjfLd4UWNNRiZnf/3Xegtq4eJ9+6tnbuSAGUne0ND96L/YePorqmfpi/xzJeD32cGalZebhz1QJUtDvEHkTcO8MhRMdoFesPsRsBVMIX9SPeHC9Qj2Ch0VFw2BUiPAMszeQIU1Ablc0jNurYieb347HOsCTJpkXWBJXoRdyl2SoTSPw3MyNN8E/ioUaZEru2++V7ublv5GuImRPKGgiEsOngWTyycga8/gFxBe1w9MJkVARIIrzRof42jw2TqNEmO2SHfPsPm/G9j902ZJyg7bKiHrVMsP1PPfYcfvb5O4VNwL/zidWz5fr+7WsHfJPzLKu+ed/S/TfymMh1ciPf8Et/2HIqyRw/6c6FkzQ/e2kP5k8qRHK8Ec/uOS1S/qQqUVFpx8kKPP8vjyqmXddYpDekmA2jzkLZIfz+09vx8dW3oDAj+ap3pdAHeZ1UsKdPPHme5HdOKszAvjNVqLR2YlxOOvLSkzFt7Ojk7W7ksRvtexGvbKadMDUl+/1yU5J7SKyNDQmaplmt7Ze9j6iQToUgTt9EKEw0Q8vKTBUaFG90oeL0+0WVh1mj+BOR+0iqUrRaaapcsa40f+OmVJhowqnzVbh08Tw8Lgd8HtKgri7JI29Brcy71q/B/z7xrGRo714UQlm6aD6mTSnFuQtl2H/oiASaodbsGVORlmrB61uGVzwjDhprMMGYkIoH71oJq6sXXiabKpXiyXTFlBUzcwZQ4qCxkmUrTqCEJAJ/3tzZmKKAMiGQWM7fq6PR0dklav4RKlN5dQMmFOdLML1U3YjU1GRER0W/I4DShqWpuU2aUppoFTJTr75uR3td/LWed/RiLTq6+5Cgj0WOxSTQC8Wb+UWpfkZdiHkTC0Tc+crF5/1i437xrh+NJz1f++rB88JBpaDQtRZxWWKkFHZmVhqjjsbyGcWYVJAJNpnX3VIqDetfvLS3f3Ke5WPfuGfxczfyWN2wAPql328+nZ6aOGnN3Inq/3x2N26fP1E4dpTw/+cHlon6+y9fPYDizBS0OlxYMmUMxmRZrvldiGsIFvroKhh0o8MfSXn42Yv7ZErpSp3CU5VN4pXErJMZHAOFWsR5o+D2BZCVloiz1VYJ+Kb3qRB/I0/OUO8lMnSdTsHkiE8qnucQxXjxgg8Dtk5lPJDB8FoBtHCQwsQRTo710f8n3mySwMfMlcGVBHpl3FHYn/JxSP1h04Ulr+CiUVEosZC+dBpNtZXwsIHk7RtWaYlBz2JJwaatO676ihNKinHf3etFCT6yevv6sHX7bhw7+dZVz+c45L13rsPvH38GdCK91tLEaKE3xkFvsuDOWbBRqQAAIABJREFUNcvQH6WC0+1VhgMY7Ok9f/luYGZN76QB6I1GUVfitcNBgd6eXsn639YHVbBQOpleGUArahtRUpgrj5F2RnGVd2egkUw0KdEscnrZ6Sl/6cvnhrw/le4PX6xGgtGAnl63GNWdqmyExRwn03omKvxHR122BOFk0k+e34uVM8eOKHQe+YCMEb/fdBT/8ujKEQdgOC//ld+8KkGTzedfvXoQBelJWDVrHH7+8l4Z1Jk5Lgc/eW6Xvzg96av/cv/SX96QA3GjMtCHf/riJbVWM/bL9y2N/tFzO3H3wqmSWew4WS6zsNHRKvzkhT2YN6lQaA4U5Nh0ZGSr4DPVzeAk0efvGlkcOXJAGHi50xFfmV9aAKb5eWmJqGrpFAHY+naH0CbO17ViUlEmalocElB5EXwQVnePGx1d3SJ+zPKZQZQ3prPbNeimGRTJtXGFimXHpap6jCvKu5yBsiSvbbSKF7w0kMIhKT9Z1hvj4xT8U9SXguD4IvmfkSEiETumnbHXp2SlIVpvAKU5mdi44wg6WuoGA+jwDaQ1q5aJ1cW7y3eW5N/4yhdgNl3dkHD19uJnv/yfq/BSbh6f+fgGvLpp67DNJB6jWEM89OZkrFmxFCpNFLpIS5LhAmWDiFh+KNeBCkGPG/GJCZLVKCW8SjYawk5UZKLMIqsoBsnqumaUXJGB0iKlICddYJKaBiuMcUYRJLmyhI8EUOLZnIbKyxgZE7xZrlFeCyeZmPR6xKG0OMsinFEeD1evV1wZrHYXsi1m+h2N6FF25fdiqU9tUjaaR4Or8rXf/uMm6LVaTC/Olo49lfh5bTy8YhZ+/dpBYf4sm1GMb/1+88DELMu/fv+R5T+4EcfyfWegX/3Tm3vD6qgF4bAqusPZK77PgVAImw5flNEvfgkJnqUF73C1/N7j24TCMNKsLJ39irKSha4w2sUT8Njzu1Dfase6uaUwGnSC65H6wMeI3aSnmHGxthULJheJxfEHZXGMs6q+RbnFRdw3JHw8Zl/kdDIYsFxKMsfJ4/Yul1BsiD3zZFNxnpa4qUJrUrZQBgXiyBzjVBTpaRwXFEV2Sr6xNxUzyPnj3w143NDoDRI42KHOMRmx/dAZuBxtl6ePlKA09Fq+ZCFq6xtQ3/BOHmdmZjrWr1klRPV3L1JUtu3ci8p30Zb43VevXIoLlypkWulaK5p8UBEYMWHGtMnQGXTo8fbL04nryrDAoKMof+fjIEGfWyaSWKmQysTjR31VXtPELcVdNBSSfznUQM1QBmJ+VnJBTUaDNKAo3sLmG39mw4zZNWlOpEHx2FNk2RxvQH7mX1bW7i9xjducvThR1ohEsw6qIJCbZkZFk00qub1nq0SkZMPKmZg7YXQNXn7G3206Iu4Oo9Eb5fPJH79Q14pHbp2FP2w+KtYlG26dLU1qMn3+/o4FoFBRZooJVc2dTBj843OSv/ude5f+8P0ek/cVQL/97K7H+4N48KOrZmru/e6f8G+fWCM4yLO7T4kiPG+6x17cjUWTxlw1qlXVbMPO05XiiTLcYjBg02m0s7Uc79p3thrF2Sk4cqFBDi5pGBtWzEBZUwemjs1BZVOnEIKn38RY57WOiavPLSU8b0YGD44HcrqIJG06crKh1NfnRk66Regx9C1nN5g3NQMjVYPYtTfFx0nw5e+lCTUYiGUySfC+sEwR8cZn9zXV9HZJTTxQ0o5Bik+cXgdrpxMBnxfBQXsOYq7XWpnpaTJJRLZAZPE8E9ctyFPoV+9ezHjYHHN0KRoAV67c3Cx0dTlF2u9ai9gkfZSiNbQySZHg74vwVMPKoAW/K48RF4OrzdkDHY36BqeOiHWSQM8ASgM/vqf4IqlUIswi45wq5XetNoeIJTMDpTYoxU3IiqALQAZN5jrsSE+3oK3NBrNYiUQh5wNSwg+1uR08WyNYcHefB8kmvdgd3zIhD+mJZlEx6+x2Y8m0ohFN7TYeOCseUyPJVb593QTxr3/aim88vOKykv5L+8/A2eORKcXdb1XhXE0LvnTvEgmubCL/9z/cS3zUPzYt8UvfvG/xb95PEH3PAfT7L+35RpOj93v/dP9yzX9t3I+KFhv++YHl+OOWI/jWwytlEuZXr+6XmfJrZY9UYbltzniMyxl+52VX/gdPb8dHV80ZskEUOQBna6yg5iGbVcRpCPSzOdLY4cT+czVgl54NkrkTCkfMfN/PQf1LvlaaSO12wUCZQbKEZ6e3q8uFrMw0yT4ZIMcNchAvDqrQKyR65fksKfNzlRKeGTm5iQyicZdLeIXK1N3lhDpWLwZvV66BPo/I13GpVGEUJydh47bD6GiphadHGeEcjgO6fvWtaLK24sw5xQ0gspiJff2fviDB/d2LRP+f//fvBKp49/r0xx7C5m27RDLuWuvKEn71iqXQxseiy6MQ90nJIoWJvNbIYr4+4HHDNFjCMygS1+OsOJXozfFxEkAjNh80mpMSXsijKlTVNqE4P1s2Axr/MeskQ2KoEp6CIuooFbLSbv4m0nDXdkObAxsPviVd+TvnTxadCortcJKLugJsNhVnW66pJbr9VDmqm2343B0jC/9EPgeb0kyWKL935WL22erowWfWzsWOUxWoarHhk2vm4sF/exxfuncxZpXk4YdPb/OXZlke+MZ9i199r/fsewqgP3h5z+zzDfYD3370tpgtxy6KbzcnNl7cexqP/d2d0oF7ad9bwrO7Z/HUa362yCTRdzasQqz2barMUC9wub348bO7RDk+P/2dFxqDJANkZooZzR1O8bRu4DRRbgbKOfOdngxbdy+6ej24bc7EG0s9eK9H/j2+LkJjMuj1Im7BGpw3d09fnwgp879JLJ/IJhKuwEDFrE0h0rMLzyaSeCCFw9KA4nghaVCkMVGnQEp4ZzeidbFXB1Aas0WI5+Ewii2J2LL3FJrrquHpcYzYRFqycK7QgHbvP3TVUZgzcyrWrLp1UKRYedjj8WD/4WPYsftqFgrJ7R9/5CN4/Onn5TtcM4BqtdBzJt5kwR2rlyOsjUb3YAkfCig2HldK210ZQJlZRWhM0kTS6RAXRwhDmYenlzwD6NgxeQJ3sKQvr27EeFGrV6G8TmkixajfSWOKYKDcMFgRpabcvDSm0V6uFOPZf6b6slPD7HF5OHqpTmTzyLXOSDbD1t2D22aNf0elwZl2kuQ/sfaWUSubkc1jtXdLB36otf1kOah4T31R9mP2n6nCvEljQGH0FdNLxEXisWd2+Cfnpi7+5n2Lj472O175vOsOoD9+/fW4szVe66fvXBTndHmx9fhFfPn+ZfjR09thtffip5+/E+eqW8D51c/dOXLzh9jFthOX8JX7iZcO/3EYcP/fS/vEE2nhoD5oRVM76lodyEgxiTeRxRSHrj4PspJNaGjvwoyxeThRWY/pxTlIu8Gmbu/lgL/f17C5U1bTBHNCPLwen5SIjJScRqIXORtidNScNLZgMICSxpSjqChdEUDH5GUpcnWBARG86OnpFQV6EujZiee//RytZJPlCqdMydgE94tSiPuqKBSkJuHE+RqUXbogPNCRaEwFeTkyivmnp54fkmxPes/qW5cjPzcHTS0t2LX3ACqr64Y8dBPGFWNy6QQ8++LwSUSExmRISMPDd65Eq7NLRgOVFDTCMKDPO1kNCr+V46pU/SdUIhYf0dEy/04ZO+KXwg+V4x9GQ3MbigtypLxn0CyrbsSE4jzZrMmESLWkyPtcmYHSJ576Bezqi3br30DZ6/1ej9d6/cnKRtidfTLRNzEvDcxOTcZYMBFKMcehqaMLDK6J8XoprSnefO+Sd2pUDPfZCM3tPFUhmqPDWYuwWc3M96HlM/HQfzwuDe7180vxH09tE00Obo6/fnmPe0ZmWt5XHlwy/EjbEB/ougPoP/xh01uTSwomT8hLj/rJ87vwrQ2rsOtUhTQvslMT5EuRMvSdDUOTX4c6KNtOlAnYyxnXkYIoS1RK/MfrY5GaaESKyYSuvl45KVZbt0w6cdY91RyPQHBAsJelU4suCx/8pS6Yv+b7chY+JSVRGhKRqRZic8zGWGZ22LpkFp5BsLOrGwa9TsE7B03cGGzp+yNjijKiqeiKxhmNg9mmChzC9DGAksYkdKW3LxUS6RlASTxnMM006VHTYMfxEyfg6e6El3Pw5JBeYxG//dgjD2Dn3gNXNZKufMlIRHp+7nvvWIfG5hYcP3Xmmn9P5uFj9dAbzUjJyMO9axaiobvnMt454PWJPmhkkosbBr8uf89NReF2Kiwn4ssMeCLtx4ZbULFi5vGnchMXH3N7fTJpxPMhDaX4eGGj0Bc+okifnJyAHpeiQZCdniyB+cO0OPF35GItEuL1cnyyLAkob2xHFq9dKn35+rH52EU8tGLWVSX4cMfhyMU67D1TJcFzNPoBj287hurmThFKv1jfijnj81CQnoJfbNyLbz68EpUtHaE9x8uaf/e5O66binNdAfQ/nt99b5PL8/SX71se87MXyfWcBK2aY13H5YNwI//oD5/CwsmFEt2vZ3GnYEePRPiRgih3sxf2nkaTzYnxeenSoGrrcqEo3YKK5nahS50sa8S43FRRd/qwreNny4XMzRKewhaRjJDYHAMju+xjaD9BgrfdKZkNeYsRMzlSbnJzFLHbiBcSvXrS01OlhGdQYBlPWTwRBKEeKhstQY46BiElLzmobCRFRYkYbzCgwhs79sHT3QFvH3VAad527SM/a/oUFBbkyRgmP8NQa6QAWpifK7PtTz77ogwVXGuJ3TMVmeISMX7iJMyaPBYN7Tbl6ZGxVMr1qd+e949its5xy4R3TiKx6SOjnOQRizdSlARV/v2M1ORB/3qgoqZJNFhDwTDKahpkyosDD/YuJxLM8SLXRxiGo50sD0rHFQhO+GFbbE4eulCL6Gg1unr6ML04C8fLm2R+fcvxS/jk2rmScC2eXDQqvvfmoxfFLoTV7Wi0Mng8952rxu83HcKX7lmGKWMy8B9Pb8Nn11MCz43tJy7JJNOLe08N+Pp8r39/w4rrsk8edQD97alTmn37ax2fu3tZHPHFi3Wt2LByNv79ia34+zsWIcVsxJvHLsn2SyuNGE0UHlg2c9R4Br/oawcVHORja4bGQXgyjlyqk6BNsjezoE1HzgmWMi43HRPy0sTBk/SlFdPHCS77YVz0g8/KSpMpFupK8mY0GvVSjnOKh93qcWPy5PszgHJxnFOmkcJhMZhjUBUy/mAW1djUJl1hzsVT0owyeMxAKYARiQpCnB8UFRFL4MGMSadRI8NowDOv70WP3QpvXzf6ve5hyfTkfD5wz3rUNTTh0NET1x1AKchx/93rcfKtszKtNNzSiJhInIiJLF4wF6npybB7BvFS0r7cbvF24qYgUX+wjCfGaYw3ihgLGyF06Wxro2W1Iiai4J9R6HQ4pZGXaIqXQ8Vgys57YU6GHG+q0hPvpJwgm2GUtpMRTqOScdIeZOr40dP0PojXdGVTB+ra7UBIBXogDYSDWFjKylAlxHtHr1ssyouuMVxDTYffbzqMnLREKcNHu948fgkVjbQBWYgfPrsdn7tzsTRSGVC/9chteHb3CclGb5lYgB89uc0/LjNx+TfvXXxwtO8/6gD67Wd2/cFkivvoqjkTor/7p6349oZVOFvdIljGfUuni2jFj5/die9+bK3szPvPVuHQ+Tp8/u5F1zXdc/BCDQ6fr8EX7n6nxWq7w4UTFY0ozkpFVUsH8lI5iunApDGZOHKhDl5/P3p6fbh93qRRiRSM9gDdjM8rr22SpoSV2VB2huiCkprD7junkXhzplsSRZuSk0tdrh5kp5OkrTSNbHZFiYj6mlRTZ7lJRSFuRMwG+S9HG5lh0pUyxmgUwv2Vi1YeVGmioRy72AXpFhw5V43ySxdGLWeXnJSIe+5YK0Hw9JnzVx3qa2WgDJ7rVt8qAwPbdu0d9hRF5OxijWYYElLxwLrl6OrthScwIEGTi9+BDqORxZsi5PVJli8/M7DS7z5aLc211JREgUVYPjIDbbZ2CAdUr9PKcaWEIEvWjNQkuL39aLR2yEZH8RcGWDICqGPAGXyKNXd2Oj70AZTHVoLg5iMwx+ml0czq8WxNizhuUvWemgqt9m4sn17yjgbT+dpWvLjnFD6yfCYmjMK3nn+LGe4ftxxGnEGHB5fPUqhmXT347esH8e0Nt+HA+WqQt85g/L3Ht+KrH1kOTkw9selQV4HrUspo7UFGFUCnfOlP5sJUbet3Pr4uluk4fVJunTke3/vTFnzj4ZXQxWhAnGFacbaMU0UWA92Tbx7HunmlmD3+asn+a1355Q3teG73SXxq3XwRIzlR3iDkfHY7aXxGknNKvAEut0dk5swGrchYLZ1aLDzUD/viDcmRSqerR3QmW6ztyMlOFxtjZjpdzm4RtsiwJAoOWtPQgrysDHh8Pmk2dQ/SlpQRxRiZkOHkGDFATsxQUDkykUQyPZ0smakqZfyAlPAMOsxGafnBqSRLvB4upxvb9hyC19UJrwgqKx7sw62M9FSsWbkcDU3NOHz0xDs0QYcKoAX5OZJFWlvbsHvfQRmQGG4xCLJ8jzUmoqhkPBbPLkWzqxch0TUNSJlO/ifFRPg9xC8+Kgr+vj6YkxKlTIz4IlG3M0gVKvJB+wMKd5Yulj4fMtNSJKPk2HFrB4WTY2VaqdPhkus0mYLKnXbBmYn9EVZg444z8g57lzSc/i8sXg8UL+cwS6+7H1NKsqXpLEG0zS4UJ3LEZ5bkSVx5ZudxOcaPrpoj/z2adaamGa/sO4u7htAo3ftWpYyb3rdkOn7w9DZ8Ys08EU1n4vbpdfPxw2feDCboNE/+8lPrPj6avzWqALru3x5/QW803v3tR1dHf+9/N+NbG27Dmapm0QRcP3+SlNOPPbcD33l0zVV/k49t3P+WCCVvWDUH6aPUDbT/eab25y/uRpw+VsQEuDOZjQa4fT4xmeOXHp+TivKmNozPTceYIQRERnMAPojPcXT3Ct81FArKDeno6hbP8mZru/gcOV198FD1XK8TkRFXj1u84MmzZOZEQnddYyvG5GdLZsmskwG03WZXFJk4yimq9CH09vRIEGYWJs2VaLWSuamAIJ06KbZBj/hQCNmJJry65yQ6WurhpaGcZ3SWHqRPLWFpbUlGeWU1auoaYLd34ROPPoj/+eOTQmminmZJ8Rgwa2XD6NyFSyMa1UUsPZTyPRlrVyyGlvSlP2tMRlSXKGXHDYKq+uSCSoYYEyObhJmK9IOlO5tBdjpspiTIhiPe8LKhU/vTCktSggR/2aQ8SgOJYsvUGSD/k9+R1h2Z6RZxTCV5nsebAjAcPsjP+uBNIY323iG5vrzJJqOd3E9njs0S5TNa8jARiIvVIUarFkUlbYxaqqQLtVahG7HkLskd3bFpdXTjmR0nxBiP9MlraWj88Olt+PTtC6SRRUz1C3ctxo+f2YaxueloanfA6ezxzi+dkfDF1UXKqNowa1QB9KGfvuTs9QfN6+ZPFKrQPYun46cv7MTHV88XQvruUxWSvSydNvaaf4pf7tmdJ2US4c6FU4YNpP2BARw6X4uoqDAOnKmGo9eDJdOKRdmJkzfpCXECAFP7LzslEW9Vt4jmKL9MriURs8blSPfzw7pYnpTXNsvkDhtJnGPn8nn9IuzLrJKiyEV5mTKlVNfcKtJqvJHFEz0Ultnt3Ox0CRi8YJlNUeE+IzLN5Kavkk/I9wzUGoPhqtkif69bsjdOJkVpYkRUt7XDib0Hj8Lb44CXpnI+74jCypHzRKO1kuIi5OVmy6QVVZY4nslA6HA6xVTuwqXyq5Trr3WeFVM5Zp9m5BQUYdWiGWhx9sLv9YoXEs3kpDTXvV2+i+0xRY5DQSnZ9cZYEUBmg6eVG1Re5uAMPANolPgfUXiFU0jKzaRCeU09ivNzhB5Gh86I8V9ERpCMB1YOHZ0OyVoT4gziX/VhXI02J/adq0V8vEkEo7nxOLq6oFGFsXxasfgasXrkNZj7ZwGQY5cacb7OivTEeKydV4pmWzfmlXLw5doMBcaWV/eflUTugWUzkDkCn7bGasOuk+X4uzsW4Vev7MP6eZOwcf9plDfa8Ot/+gh2HL8Y7HF2//bfH1n5uZHOyYgB9D9f3V1Y0dp36fYFU7Tf/sMb+PxdizGpMAv/89o+fPXBVfL+jOjsZLEkHGk1tNvx6oEzotO3es4EFGS8rUDjDwRxoqIerj6KPNAFMQg1sQsqX1+oxz2Lp0CnViM9KR5piSYcuVQPqKIRT3V1TQwGQmG4XD1I0quxdMrbPvIjfaYP4uMnzlWIRS6PEW9wLpnZVqtl6oU2H1RkIkWG8/BsMBG7iwTQNptDXs8siRknMyWa0jFKxuhioNVpJRNjV95p70YMvZLEM4o6mQNS+jJiMINQD+KHGpUK6SYjth54Cy2NtfCJsVyfUJpGKuWvPAe8yfSxsfjEow/h6edfkpHP/ghnc5QnS2yNdbHQ6eOhj0/GulsXQa2LgUuU5lXyeYjjynfgWCytSWQMMwr+P0890Q+JkBHtjNkpZ8nPzYbcTSqLRRpILW02MZqjYDVfz6DZ5exBXlba5QYSbVfIZmDATDSb0NreISLKbDaxlKcf0mg7yqP8+jfN014/ehFRsYrDqcsbVDJ3qKBBEK5uByYXpGNspgWHy+pwoqIJtW2dWDljAoI0BNREy2bP405IirzRiA8TvyBjyaZD5wVeunPBFOReB+Pm5y/uxEO3zsG56mY8teMYPrZ6Hg5fqMHXHlwlG/5PnnnT/fxX7r9ifnnoQzpiAP3Wk9t/m5aW9smFU4uivv3712TKp9nmRElOGh5ZOUe+4I+e2YZvPnLbdZ20lk6ndO05b7xgMjuQKrEeZmbgHwjJaBtzSArNGmNpaOUWXb+SHAv2nquBPwioYuLkgHL38gdDMOrUUEcBzk4bHlw6elLudX3wm+TJFXXNiI+PE6/xHBKy2zrEmI3lPLMbm9yscUhJiJfxzppGqxC9FVI8RIbM2k7LXdKhlDl0tUYtRPGk5MTLZTxLedJ02BSRGflgULJN+gfx4mEHWzDSfnq/h0UUuN8XwKZdh+FxdcJHdXrvIB3qOo/dSDSma70db1JNjE6wT50hAZMnT8K0iUVo63YhQM4nhZOj1bIJSPlOXHeQt6phlj4wAHOiWYjyDKgUEnHYndBooiXb5PVmjjOKpzvLdzIehCuqUsHa3inBNMEUBwq/2BzdSE1JhtPlkscplEIzOV639FUi5Wzq+HeOIV7nYbqpn77p2CWEYvRw+6OQEqe+fDz7B0Lw+Iil94mwNeUtDdoYMXKsaGpDsikOYcr7c7OjV6tKJb0X0hK5kb957CLMBh3Wzp00YsY51AHac7ocrx4+i6KMVLQ5evD9T6/H5iMXxFNp+thc/O6Nvf6MuNiV37h3yb7hDvCIAfTvf/tGwz3Lbsnl3bJx32l8Zv0i/GHTQdicfWKKxajf4/bh83cvue4TyZT70LkanKqsR01LJ9KSTJhclIPYaBUMWrXMrbNJQIkqfrGjZQ3yZc0JSQiq1DBoo9AfDEOnjpKDauvxw6gFBtw9uGv+pOv+PB+kF9js3TLVwbKQpPrWVvIT00E6UsTaWMr4XMW6g7J2ORmp6O7tE0yUGT6pSmPys6QpopTxYdQ3tkgZz58ZWFmievo8Mp2kizOKH31kCZHc45WgSk8hdu7DgQGkm+JQ2diO4yffQr9gob1Syg8nsjzUsX8vAVRwzxgtYgaVl9KycrB64Uw4+/vRL10wSPMo6PWKVN+V45vkfvrdbgl0JNBzXJOZIZsYUr7nZsrPQpT3eEXFnw0h4p/JiSbBljnCyckvPq+2pV2yfKNesTRmp566Ayzp2eijjB2z2zG5w7tSfpCuy3d/1pbObuy9UI9ofQIs8TFweQcQhShEq8KS8ASCKqjCAclGWabPGZcrmPr+c7UieJ4Yp4cqWnFNYJPpdGW96JA+umouxuUpXObRLl7jbFDvPl0m13dHlws/+ru78dS2Y1gwZYzovW46dBafXr8IpysbwpW1Ta//eMPKO99XAH3oZy+5vvLImvjyhjZUN3fgjoVT8cuXd0vKq3TJjoEcL3a/KaE2NjtV+Fw5lsRrlvTkGZ4oZ6nug1YTjb7BrmSN4CF2rJxRIi6As8bmyowwx0KbOaaZlIRwtA66mCh0ewLKbhYNdPb4kRynhq0ngAG3HSunjRWrgQ/z4kgnlc4jBHladtAfiZMuDKi88UmOz8tMlaYSqTWEWNLp1hmnlPxUEGImRHsPXlAMiGxwEPdkyc+bW0uAn95KvW7JBHjAZYaeGWnALxM84UAAUVoazPXL5JI+zgCLUY+DJ8pQVVUJn7sbfk8f/P39GJD5/dGt6w2gknlqtNBI6R6H+KQ0rF56i/jZdzm75LMxaPJzRwSU2SyiiAjN5TRRKvjdHpiTzFK6sxHHUpscT07aWSyJl/FPlvdN1g5YksyinUrJOgZTHsOi/CzJ6Gkml51JnFklpn3c2JpaWkHmASsGTjSxQvgwjXAOdWbpBNHaw2vFIMcizaQVBX6fPwRfIIwEvRq+gRDCgX7YujhFGIdZJbmgiNDB87VosnVh3/kacYugrTjVmkQcB2EsmFQ8rByl6N9aO3GyolHi1/j8dCycXCw9mO8/uQXffGQ1Dl2oFnbP4qlj5Xff2rBG8NRfvbjD+dSX7kl8XwH0gZ++6Pn6hnWx+85UigoNlYzYsfrqgyslrd5/tlKwt/mlRXD0uFHT3IHGDofwQ9kMojEblapTE03C/Wrp6FKoITJJo5iX8WAYNIolAFP2eRPyJSs6Xdks3C3u3Gq1TgRtPQESvcNINCo3MnHPVqdP/lUF+jAuIwFTCt+mUo3uVv1gPutMWS3S01Ng63DAbI6X5gqPG//lDc8siTdnhiVZuptUYRpbmCPZJrNS4nJ1jW0oyMtUxEN6+pRAQD+fdAvUMeQ9ktLEyaTMbbZmAAAgAElEQVQBOB1OqLVa+AdHHyP6mQxCtL9gR57lMZchKhomvQ67j51HY0Md/J4e+L1uMZtjEB0NJno9AVTwXw1tNvSI0RthNCXj1kWzpUx2Evck1MPMk5M/xOAGcWMG0oF+H1S0MiH2ajTISCZJ87zeBgJBkZxjY45ZJlWYSP7mYiNufJFi28HA0NJqk+NPRgNlB5lxM1jy2Ry7TU1JQmNzG5KSzFI5EC6ZVFIg2eqHebHp+cL+c1Abk6CLiYYhRo2wuw96vQ5xJtIRA4JFm/UaCaihABXHbMi2JGB6UTa6er04eLEaPW4/NIwRUVFIMhnhcPVJIy9OH4M54wsFC+3o6hFh5+aOLtA6mc3RMRkpmFKcjaKs1HdMORIH/fs7FqPOakeVtR13zJ+KHzzFoKqwiX785Cbvc1++b9j52hFL+Ad/ttH7lUdW6w6crZSLY+7EMfjpc9vxhXuXCTB8oqxeCLJLpw/tW0KLYNqfVjXZcLK8Xi42kuKpCiQAMVT49Jo56HH3i1p9bKwGJ8ubQBpTdloKtDGx0GpUAkD3B0NI1JPmAPS43KiraIQ2OQnGxDj0+oIIuruwfu54GEdpAfJBv2jrmtulbO60d0kjyeHsFqUgan4y26HzIwnbY/MzBfekzQRpTlQFkmZQOIzK2mbB9ohxsvlEcj2zUOGHxurkAmQA9bh9cHW7pJRiR56/5xLsc4C4qEYp5fkaNo0o6pyUAH10NPafLENDXQ38Usq7EfD7RGuUEyHDrdEEUAYuiiVz2kijjYU21ghjQgqWz5+BOJMJDneflOXCV9Vo3m4cRauhHrxOBL+keIrHI7qd5gSTXNuscJiFU7QlOdkMl6tPBJBJUVLEpKOQZklUuu8qlcAkpWMZUFWoaWyToCDK/mIDorii8jzwd/HxBnR392DS2NHzoz+I16vH78eWY2UIqmOBaK005vyOLjSeqUJyWgImz5kIY5xWVP/tfQMwaBlgo+H1hxAc8KCyqR3jctNQmp8hXmanqpskMFa0dEo1wEVslNdziikexTlpSE2KR1ZyAgqzUoYdj33smW34xwdWCHxY0dSKOxZMww+f2oJvDAbQ/3xqc//z/3TvFRSNq8/AiAH0Iz99yfvVDWt1J8vq0eP1Ydn0cfjjlkNYe8skpCbGo6HNjqOXavGR5bOveX6tdqekz1Sp5gVEabkUkxE9bg+yzAa5kalY3djRBaq4zCrOQTAqRgjMsZooVNs8sMQr89i9vV60W+1oqrZKWTlhwWQ4Q7SdVcHv78eAu1s8kfj+H/ZFGT+OdXKyhTcoMztOKHEiiQ0OBsHGRismji2QUUR2hzl1xIyU00nsznNxI2MWKoIjbMgFBoScn5GRKtksJ34oRhxriEV3Vze0BoNgzgxMDJwMTlwU35AZeXpO0QokGEIswkhKMOH0xVpcLKuQTDTQ70ZgMBMVAWZ294fg2w8XQCVwksjP0pvGbtpYaHRGWFIzsPiWKZKN2p1OROn5CSBYrXg56XSSJQcHIQjqnbKy6mfn3WyS6SB3Tx/0hlgkmE1ob+9EZoZF4A9WXERAiQs3tLQJg4Hz7xQBoZygq9eD3Exl4ouCL7m53LjCYhlNjivL9oibJ/m7yQlxSLuJnTjf7/1D9bRXD12ANt6EMGIQo1YhTqdGDMJoKm+Au7tPRNfzS7KRU5Au93u7qx8FKQZo1VFo6+5HkUWP07XN8A+ExayOldKbx8vQ7fFhgC7e4WiUFmahvL5V1J5ogbxoavGII+Q8L8w2v7VhrSSB9FNjbLvhAfTBn73k/vIja/XEQKta2rF+/lTsPHkJJoMes8bnS2n30+d24OuPrB7yePPi3XHioqTR3v4BEf2YkJcuggBFmckYCPgxtTBLspxNR87j7nmlCIaBGpsHaaYY+AJB1HV6L3MVHTYnevt80HECKSlOaTSFQnC6ByQrCIcG4HbZsW7OeCTFf/iDKAMoye/UAGVTImIZwS47b1rJTg2xSE9JgNvjE79yNjakQ5+UIKOI1LKkSjoDcURkubXNJo6dGooHJ5CjqJJpMGZkPfShh0oZf4yUn+JiqUweRQzn+N8avR6xfI+YGOEQHz9zET1OOwL9HimdBwb8QiRnNipCJYP+RAyoVwbQiHmeqEAxcPL/mhio1QrmGaMzYlxJMaaW5METVMEd9A8GSfrXx0pwV5T0VdJ5H9w5ZBhAxj21WrGKjth3eD1eOJ0u2YRys9Iv637yeBHmYLbNTju1BrjJ0EdqXGGuiHjbnT1wOHvkvHDaiKU8ifSUriPUQn4ttUunTyyW9/2wruf3nYHOaEJfQAVLHO9lYp4haKJob8LoF6VsSlFhaKOjoY2JRrxOKfEZAwhDFaUymEbjuf1nhKoUERqizueFJpsM8zAxG5efjoZWu2xmhAlvnTVBKqtrrUt1rbhU34L7ls3CC7tOYFpJLgozLHjs2W342sMKo+ixJzd5n3+/Jfzsr/zGm5eVpuOHPF/TjPULp8pF/lZlIx5eNVc4cY9vPYT7l82SCaHIIiZJ8V9+Gc6ctjm6ZcdtaO2Es0dR9U78szfMP967BEbhe4Xw6sGzWDZ5jBCL7X1+2N1+CaykNfGAElMdCLM7HJYpGQ/BZHaLQ2EYdHTaVKHb7UecTgWPy4kHrkNf8IN6EVttDnh9AfR56MqZLDcpxS6kgZSTcTmbJH2GWBsnQEhXSqcnkoiLQG5mBoKczDQp+9lcYknP3T5j0KdHFJqCQTi7uqXBxLKZAZTPYaY5IF1trUwqEQ9ltic4oypKqE7EFk3ESEMDOF/ZhMqaWvS7SWFhOe8TX3uhE8nEkyIR98lHP4I/PPGcwDwskRm8+P6kXjHzZcNIHaNHekYGpo0vREKiWUSSOT3FwM1gGSTtiLbFMVpE62Kk+cUuvCY2ViApBtX+Pg+i1VHyejaNpNP+Z7O6NmuHNOa8Xq94SMUb9fJZquqaxIGTJT7/m5sW6UvcVDjCyUw0LS0FFExpHmwa9fT0iS8Vn0suqMfrRUl+9gf1shvxc9PeeMfZWiQkJUn26A9w7JXnkQk6M/kwohCSf4kpsxxnBmrUaYTCaIjhsQ3Jddje3Ssd8gWTxmCAcSAYRtefdUX/e+NeyTov1rVInKBxHJ1W6YJB2uOs8YXyOj3fk4pcgzx1xq9fv7IH96+YJX2XX7+yFw+vmoOqpnaU1bViQkEmHD19aGnr7N32r4/GD/dlR9z+PvubTdXLFkwbQ0XuX7y4HXcunA53vx8v7jqB2RML5QbsdLpEDGDiFXPw/MCcOuJBY3OJtJnJhVmgBWlxbhreOHAGvv4AJhZmYeWsCeK74+v34VKtVXn+YKODGQFxE5b5RN2k+UDCc5SiDBQMRyMkh5p2FYBep+w6LqcD9yyYPKIHy4hXwk3+BGKR5yvqkJBgkouNJ4TZFG/Qfp9fsEoGyvTUZKQnJ8jxo80HnToZJBRmTxh0kWTgIM/RYkkSWTx6DNH8jF19Zq/kQlKdSB0Tg25pKClqTv2DmSbPsWxoHs9lwWXJSEk8Z3YbGEDsn6+jhPg4BHw+VDa0oqahGX093QgG/AgGA8qs/WAQ3XD/ejz5wmsShDl6GRXFzFOjdMy1eulwj83Pkiaj0+2Dp98HxGhkJJPYLDNNZsEK4T/qMuFfHvf1I9ZoQL/bDTNN92ht0t2DOKNeskT5rkY9THFGCei2zi7ZOIhjcjOiUZ80j0Db4kYU5mSK9bG1wyHBlCU/cWlmp/Sq4mADG3OsFDjskJWaBNMgG+Imv8Te08fjhrv1VLnMuytBJiTnkVcbAxkVvHiMyLLhUWRPpN9PR1hFa0ATTVw7Wgj0iSajcGsZO0hlKm9oRZYlEdUt7Th2vg4fWTlHRFuWzhyHN49ekGr34PlqaRr5/H54fP0IBELwD2LuZ6sakRhvQFF2GmxOF7pcHswpLcTJS/WYPbEARdmpsHY4w1Zr686ff2L1yvcVQP/lmR3/po0zf3PF7NLorUfOSfdr9oRCnKtpRlVTG+5dOkve/xcv7sD6BdOEavDutf9Mhcxi88IlXlrXasPaeVMkOyJYv+9MBWaU5IPmZOx80s3QqNdCRytaHfFNdu2jEUMrX5VKkVvrD8jF6fX7JQOTee1BOwqeDI57kj/6f2FRnYkNIE4SmUxx6Ozskg4nm0kFedlSQpJwP3FsvpRMzDaZOTLwUEuUZO9OR7f8TiyQRbleaTK1tHYoZX0ohMSkBCYPMv/N5zo6HRJAYuKMSqBmdeD2SOAitBLw+BAeCEBjNMqmx0xUQzfLP+NPxMHi4+IRowrDxs5pZxc67F3ieUQJPX6u+9cuwgub98qNp1ZrEB8Xh+QkM9JSEpGenCj0qi6qnmvoTsrATVK/XjZrluzsugszQB2NAZbqhB10WiXDDIfhcfUgzhwPg0EvZHmW0z2uXimxReQ4M00SAF5zxC6pj1rf1CqlO9Wt+Bxm78SSC8nlVAEXKuplA2K2TOoSgyzxaQZhQiSET9g8mjrhwy1fJ/5bhHVCyr+sIIUeNzCAPq9fMMd2u0v0GlhZ8vpR3BCCsqFT+4KP0epHhMAG+cesdl4/+BaWzZqIaeyVBEP4/ev7RDhn5rh8mX8nv3NMdiqy3jXSyev5ia2HRXqT8YdGiI9vOYQv3rdC/vb/bj6IrwxOV/7Pxt39Y1PNi7929/xj7yuAPvbKYcuJemvTlx9epyU36ufPbcfXNqyRG/GXL+7AqtmTJKPs8Xjxqxd24bP3LBO5qiuX4KDHL2D70QsyybRi9kQRT+aFSczolb0nsGbuFHkJ8cyAn17n0ThRVoec1GTkpiUM+vdIVSYXJ9eZqgZkJicK/5SLWBsPerwhFpbEOBhYjlFdR6WCJgrC8xvBNeQDGW+JVV6sapCbNHbQLZI+O1QJYiVA/K2t3SaaoJbEeMkSaTORRGHfLheSEk1C0SE5nxcysVElIwiIVBvpTpmZaYI9EqskfYz4IH9mN10rSvaAr7dXmjSsDBT/eJb1sQj6vJJlMAvlBBN95fmzCBj7vIg1mOTcxaoZ4jhx4gfHetMSjWi190pGwhuJ14tvIAx3/wD6vR6EtEozSPEz0gqUQExTcFnedWE2fhW1KC4+xixWp4+Fj53xOAN8bo9gn5Egyo2CQwkMpinJCRIsJYBGqVDfYBXVJR4jZplMCqhsVVKYI8HU6XKjtcMuzTfycpm1UjyEwwl8DwYPZrR8T2LSH5YlzAKZBoTAaWzwtHZ2i4AyVZc4S8Rj1uful8DJARxRZTpfg1VzJoqfu8RIADotS/goNHTYcbq8AavmTJLrjYFSMFKjATUtbWi1dWPWhEKkJMSJeMhr+06hvs2OWyYWYf6U4qtm53vdPvxpywFMG5uL+ZPHimjI09uO4LN3L5PP8puNe/Do2vky1dTQasOOw6et//v5u7JGOkcjlvB8g3/4w9aTk0uLZ4zLy8SeU2WimnLH4umSGv/i+R14aNVc5KQlSUR/YvMh3LdiFsZksRupLGKhDLazJxQICdbl9YlHO4Vq66022HvcmDZWmd6QCz0YEo7XgTOVWDFnAkJBVmZM+RVqCRfNq7YfO487Fk2Xm45lFbNUBpEoVbSoENW1dkqmWpSTCq1ag7yMZGQlmyWYxkSpEDPI5xvpIH0QHr9Y2SA+SR022hunSsZJl87GJivy6H8UGBA+44Sx+ZI1UVSZgWdiSaFSyks3PiRukpnpqRJ8mZVS5YmPtbbbhNPIG6GjQ3EF1RkUEWe6d/JJGna8oxRNUTpaMhNl6Sxl/eCED4n3JLKLOAmDrK9fmjyRn2PjDAj1B2RcND/JgHqHR0p6lVolRHzBQskhZqbL+XMG3MHMluOYxDzJCmCmKfPu8jxmpRy6YBZM6+UBxJnjZLPh5kpcl6U5u+48RszM+d+dtGoOBJCTlSajr5xd5zSXUrpDeLWcfc9Kt4gYyIXKetFjZZZJXyoKJ/N65Ogmy3YujsWyefSBdjYkh5gW2UHAHwqjratH5tLdHkVngN33bYfPYnJxLsbmKUpKLKGZdLGKF1gnOko6530eH4py0oVvS4ydJTcDKDNCymGSkliYaVEErSlNGKORnzcfPIM7l8wQPDVWq5b7vLnDAWKvX7hf4ahH1omyWuw5WY57l89EYWaqxLAzVU345PpF8PsH8PvX9uGj6+YjIzkBze0OvPDmYc/MMZmzvn7P/Esj3fujCqA/enF/6amm9lNfeHB1DLGJp7YeRqYlAUtnjBdc4o+v78Pc0kLcMqlYaDJPbDmIhDgj1iyYIlJVv9m4C0tnTETJ4OhVn6cfFY2t8Pj8OHi2AiajDonxcRIgGVRjdRq8VV4n88YWM50ixbh70BgtLJyx8zUtSEuOR3H24Akijy8wIN9XOnVhYPvx87ht7hQ5wPEGvQhC8ORysfk1Lj8DFpMBumgVtB/w7JQYZU1Tm0ICp/mZtx8mk1Gk1bixRLJQwh7J5nhkpaegqdUmOBwnkSIz8gyc5TWNQhjPGPQpZ0Bk84Nz2wyywpMk/snMIBSSUp6bns4QC5VaA29vn2SXEcFiBjHJTCkQQyX4UFgyUf6rIj6q5ly6MqHE3zM4sglUmKBHrdMjeGYkiyS/lMGRzxd5PbUaA8xwgyFpakWCKwM0g1QkK42lDTHC8tlYwehpDEfDuEFbDpfTJcGNeC+l5ngDcn9lgGxtY4MIsvnwtRK0AwHUNragZEwe2m0K/EDsOTMjVRTD7HanbGBNza3igSQK9AY94o1kRAw73DLSPfs3eZy3IIOldyCEhg6nlNjEHXkOGBR5b8lIcIiC0dHoD/ix/chFTCnOQTqntcIh2YAYP5hlMgZQTm7H8YtYMWu8jMFKk1OjVnyOKBUYCklmeftCJklh2dSYgPF6fuPAW1g5p1TYGKxOSsdkC16691SZZLm3L5iGC7XN2H70PAoyU7Fu4VSRgHx513HkZaZgzbypOFPZgF0nLuGj6xYiNSEetc0d4df3HPVMG5My7Zt3La8azYEeVQDlG333uV0/6PCGvvLw6vkaYgmv7j0FV58HD66cKzvCpgNnUd/WidsXTBX8gUDvlsNnpPvGIPjJO4Z26Pzdq3vxwMpbJEvp7nPLSeFs/ct7TmLd/ClyUIm3kSzb71fcIlkK8YvPn1wkWJtBq5WDy1KAz2XwoEVAa6cT8ycXy0kmjsoyjEGWJ7AwMw2d3S602LrQYO2U3YxOnhJMo5VS8oO2WJazAdLeYZcbmRzGrKx0KSE5+cV9hRhTUX62YMwMenxNSWGuZAT0nG9saReiOAMtSfeChYbCEkiIhzK7oro6f89jbeuwS+AkF5NBSFSLSLZnA4fiI4PiyyTYM5MVT3mjXn7PEp9qTipNtJDxhaNJ7JQB1KBHoVmPmm7PoPKTYmIX4Ot1MQjSl4ki0DEaRJMg7+uHRrrknHVXPJtIlI+O4gSSXzrv3ITjGfw1GmmCsXRno4gdYOqP8hrkTcuMk8FAspgwG2zNSnc+Ogp5AmVEiTU0f9brtejvH8Cl6nqh1jGTIhbPbJ3Hmir0xD5Z4nd3uzB1QtEH5tqSBiEFzINhtNi7UdNsg8vtxs7jFzFvUrGMoXKlJrGBOQBnn0c5xkad2O7QH/71g6exdr7S7+A1yHuPF0JCvEH6KUfO12B8QQbG5Q2tB/DUm4exbMZ4ZLwL8nhpN5vYBQLxXbnor/S9370Ko0ErQXXl7FKpVrcePisJGytWOge8svekBOr7b50jMWb7kXPBlpZ2+8Qs0+yv3L2scbT3/nVFiX9+cvubDk9w2cPrFmgYkC7VtWDLobOYUJiFpdPHS3DaeuSsBKXpJfmYMb4AP3lqi2SJrXYnctOS5bkULo246f32lT146LZ54mUUWbyxf/nCDvzjIKD77i/j6O7D6wdO49E1C+AWwWCPGFNRuFUBoYGdxy6ipCADWamJMqbHBhUPIG96jvfxRFPCf8fRC1g1b7J05fi+zN64AeRazBJIdYPCuaM9oH/L5/V6vKhtbBUSOE8sMUx25olV8iZmU4SCv8QvxxXmSIDodXtBSTbOx9MfnkGTgcLa1illryU5QXiPJOFnZaZKFsrsi46S7e12mVYiwZ7njL930i4kKko63BQe8bp6EM3GEQObKB6pwBFQyQz9fskaGTwHvB6hKEkmTGFjdTRK0hNR0dZ1Gc8Ui+VQUEp0duKZmUYyW3EKJc46SFVh912rj5XvzU77QGBAGATEOoUOpQI6bXbxkKLvPLU/KZbMya1OuxN5OZSt06COJPjkhMt4Zyu/sy5G+IZsZnFFmnh8b/JuSbSneDUZDbRaoXAym3psjmbc5NkngyYDpmcgJBoXvJd5vHQcNvBz4keRTdx59IJwJ1nB8F6mqBCpQ/w/YQtWgdxMj1yoweTiHNxSWiT32LtXWX0r6ls7JCMcah08WyV6GcQ7r1wMoHMmFCI7LUkU3c5XN0s84jVdkGWRz83G9OFzVZKZsulE/H/PiUuobmnDHYtmojDLgoa2Tryx56S/IMW0SVd3+L7RWnlEPst1BVAlE9373fPNtq+vmD9VM7EgK4qZyKmyOvHD0etiMHMCaQBpuFRnxb7T5Whss+HWOZMFh2THvbq5HdVN7ZJRpiWa0dhux/pF0yWwRnAL4hn/+8Z+fPbe5UMe1LJ6K5raHFg199qKS489uRn3rZgtdskiwUZsjuUGIOW8z9+PU+UNcvJnjMsXLIblQH5mivzMcVM+tyAzBYUZyZczU0WL5+Zd1Q1WRGuiBb+LlpIqhPzcLLR1dCLBZJIbua3DJhSbbEsSfP4BlDF70sbInDyXCDWEw6hvapNsn5lDZnqKdFH5GCedaKRmNptk9JN/Q9SwOuyIN5ukAdVLsnkoDA2zwBiW+yH09/RCPTiDTuxTfJfIxWQ2yzl+few7fi4y61Hd7VEyQ6El6eRfBlq+juU8zy0bSFzMTnXxRgVrI/be0ys/6+OMAm1wlp/jpcyiBW+nwV5TK+Li9NIcEpI+BUX6/WiytsvIK2EQqi1FCO/cTJils+lG3myHvVs2GFKUuFFxgos+VTze1CLg3+ffpB3I5HE3p2wdz7U3GMal5g7xUO/uIQ1NBYNeK/0Lbo6WRJMkOZw85Plm8/fNw+ewfE6pPM6sWxlpVWiHeRkpAvO9VdEg99Oia4x6s6zecugMHl27cMib6sSlWqk6500ulsfF06vLBVaudKggZkqNjdIxOchMSUSd1YZz1Y04dqEG962Yg4XTSuBw9WLfqTKBGxdNK8GU4lw02xzYdeScXxMOWfMt5ru/cc+ia/tiD3O7v6do8JONu3Obunwb23rcpTNLx6qnluRFkdPV5eqTYFrR2Ha57COQzF3C2tmF+habqJwkm+MElyAJ9uiFGjBzEswpKhpZqQkSWI9fqsE/PbR6SIvjizXNaHd0Y/ns0iG/Gv/GH17dg8/f/zaFi+U8Dy5PNrE4lhw8cRvWLFA6hF6fBHhmF31un3yeMTmpcHv9OF/ZiLIGKzasnY/C9BTpFrPUvxnLfN7Epy5USkOEWBzxPGZE7Cg3t7TLjDyzCGJz7AaT65mfk07SMFJTEqTLKaOPwRDqmqwiLMKmCulRElgp3tLeqeiFDgSRlpYseBWbV8SxtNTXJJMiMIAuR5ccIwZRwbSkTFeaOz7Kug26UrLkZtecgZZUN3JBGRTHJOhR7VTcM4mjsqxnwGT5H5lj9/d5oI2jd3uUlPGR0ruf8ABUiNXrxOeJ55Ov5Vgqu+TE1JhBM/MmyT09LVkUlFi1k7LEAMrGEYWRaUPMG4XZfHVDC8YX5aG7p1eOGXHg3BxF5o5DDOTjslznz0kcqyVuHA5hLGETw+AE1E2x/yqZJgNnVYsNjW0OWG1OyeIYKGeOL0RORpL8TLENsgrSks3y/6qGdqES1rfapNnLapN8zuL8DMRzE7xiVTe2o7KpDWsXDJ1hUjyduOQn7lh81VHhdcLS2+7sk74IPx/Z4KmJZsEvP7ZuoSi61bS0o8PRLX2XkvxMTByTjdf3nRSM1eMNiDrc/KklAhmcrWwMnbpUFUjW65qyzHH/8K0HFr/5fk7HewqgkT/IQNrpDvyg3tazTherjSnOy9KU5GdGRUR8f/7sNhTnpqO90ykBymTUIz89BaZ4vQSwpg4HaprbhfKwZMZ4ZFrMgk+xu//89qOSyXInzLQkSpc/Jy1ZTmBlQxsa2zqxau7kIb87J53eOHAKj64dGndloN904AzcPi/G5WcpN00UVV1iFQyVJOsYjQDex8tq0dRmx4Or5sJo0KGlvUt4aiV5GcgexEwlmN5E/ChbVzc6Zc5dJQRkqixxNp7ZpNvtESMzdulZrtKPnCUOAyabR3nZaQJjsMPMEpWamDX1LUJ1IgWH9B0GI5bwbFwRb9XrWcIHkZicoIguh8LotDmkZCb1ibJwfZTTI1aqVbDXQH+/0rUn/cXtEVk8YqdXNpPGmBQMlNGL2SUxTkZ3BlNtvFFp5ni9IgDC6SoGUG+fG7E0dzMa5HuwwZWSmiw/s2HkcXuFhcBgnmpJlMYOS02qJOVkpSJWp5MNgqeTWWldo1UwYc7zcwKJhHlms5x8uVBRJ89jM4rvzykuiic3W9tkrJalO5txDNa0OL4Zll+CZgjtLjfK6qwCa3Hyj32DQCiIbEsymjo6JXCtmF2KgkyLZJ8VDW3CbGF2SSiF3OJ4vU7oiV9+eI1UKUMtdtob2mzSzB1qWTu6cOhcpWSLLMWb2u2S5fL3vJba7d2YN6UEOelJAiHw8eom3v92iRm56ZbLj9VbO1DZ2CbQFbFWVprLZk1AVWNbqKymKRCNkCc3KW6TSW34xtc+Mr/1RpyP9xVAr/wAP3hlV3FfX+jTDrf3bkefz6KO0UQ3tTvVd986Ozo3LUWyTu42HOUkdanF5pAvyu77xdomwUB4s7WSUN3VjYs1LVg6a4JkqsZYnewmPHh8PBQk18yNR9cuFuJ+BE+NfB6WBduOnBvEq2gAACAASURBVMPDq+df8xj9z8ZdeGT1fOEbciKGkIJi68vKLoSEeCMu1Tahor5NMl3usOS6MtByU2AQ7nT2CHZG06uMpHjo1VHSzb8ZqvyLVfUwxcfDZncILYlCFjksLds7xS+JY5+KOIvCY2RwYYC9VNUgx4yBguW+iCbTL6mpVQIfy19251lWs5xis4m2yiznmX3x+QzMDNRUdZfy0OtTyOkxMeCMOS0+YrQ6xMRqFetkVw/YJefnoSISm0Is7wtMOtS5OKsO4W3q2EknrkoOZzwbGGEEfP3w+xT4hdqlzDK1bCgOUqio6+nu88CSmiSv5bQRNVMZ4LgpyCy2SiXZNMdf+f1YhWSnWxTydjgsXFhHdw+K87MRH6dXlK3qmmDQ62WDIe5JXDkvN0uOBzNVbrJsPNFiZsr4MZe5yzfipr3e92CWzEzT6e0XszZaXbORwu9NCMeoj0FepgW1TR1SDZJXTSrR01sPYdnsUrm/FMGXsFSNY/MyL49Fvnn4rCQ3EwqHHlo5dLZS2DXMaK9cvEeZwe4/VS6ThyS3M1BnpyaKdgNFQVra7UJXKi3KETnM3PRk8U16fd9pZKcmC+OHsYL3IJMrJlr8W51drmBVfUvQ4eoLFaUmtiQYtRtNes2vvnb3kpbrPXYjPf+GBdB3/6GfvXgksTfoXePxB1Y5Pf1znW5fSlSURp1mMavSU5I0GZYEFUcLSXDdc+oSLtY0IcUcL5NFxDakaxcTjeKcdNQ229Dl6pUMlg2enPQU/GnTXsweXyQngcTcTEuSZKyF2ex+hrDpwClsuEYGys/6/57dgi89+E4XUQbFioZWyULpwbPr5AXcesskJPHmJgXGF5ATxIPGphUpV2yIEU+hUya7s9Q+nTYmG3o1yft/scM70nkFlZooHEL8jZ1gzl8zI6IXFfEqzmrTXZI3vxIw09Hd3QurzS7BsbggW6oBlvP87pyP7+zqloknKhBFAmtdQysyM1Kk3GUpzL/X6eiSTj0DEANoR3unzJkLJzTM7NQOvcEgWGNE1o7Bjxsog6FWr5fNLDYchEdFjBTw9vVJ0OXm5h800SMvkHQqn9eLJEvy5a45bYLT0i2Xg6PNZpfRVKp30YedgZMZJ3Fdwg5S3ofCqGtsEeiBFh0MpDK2jTCq6poFI+ZjhXlZaLB2SMZNehIDC+EQCrfw+DKb5e9J++JjORkWJJr++uLePO7SDAqGxWdsy/4zmERnB0uSYJKE3MbmZqDd7pTJHfIrJxbmoNvtRr21Uz47exVsMi6YVoIJBVlyDN69mNQQp7xn2dBqbBt3H8fUEkWyr7a5XaYQGfho2ZGfacGRc1UoLcqVaoYwH68PS4JJgjKv4faubpTkZaGxtVMe7+rphc8XwO2LZoiBYl+fN2jtsAd7entD2mi1J81kKItVq7fGGTWvfe2uReUj3ijv8wl/1Tv8x6+/HhfoNy7v8wSXugOBhZ29ntyBUEhrNOijqlo61TMnFEYtnTVR1KFrmlrxpzcOoDDHopDgMy1IE/XvgKiuHHirHFmWJEwpyUUBaSfRKjS22gUSYKbY1GrHZ+5ZLtniu8sLBr+XdhzFx++4tg3Jfz2/TXY1Bm2Jg+SJQoVEk0EwUuKszFJZyrDzeL6qURoN2WnJkm3zdeTAxQ9O2Ejp81deVAViyc1g0NNHAZcYZVIrPk6aHdlZGRKoOJ/NrInc2KK8LAHmaxutKMzNlCyqs8spAhn52YRjuuS9crPSwI60cBvjiJsqMni0FCHGTAI+s0Jy/ziemZycKJkbeabU16QRIIeFKNQR8A+IkR075e7ePhnRlNLe1y+/p/QEzzszWHEWZdMpEED84JQQGzS8mQglMBiSGM/s0CDsgKBwMtnQKczPGgyMSsZJG+gxeVlSejdbbbIREAdvbGkT/yieT2oEcO6dWRk9jtiVp+Ees3qGVx5HdvK5GTW2tEpApv4nebf0+CGG+tdcpB15giE0d7pEQpLMCGZ0FPU5W1kv1+XyWaXo6nXLsRqblyHwU0W9VSoN8lS9XkVDgY898+ZBfOrO5TBcwZK58vuw4fvE5v34zN1vN3x5fqy2LpTXWwWKm1iUhfx0C/IzLFBrotFq60Kt1SZGhvUtHXjwtgXIzUiWhIR9iqa2TrR0OMCZ9SXTx4suMA3mfP3+4Bv7TqEoMykQq9V4U436SoNWvdUQq938XptA7/fc/PXv6iE+8Y9ePjTB5e5deais+aNjsiwpPb5+U6xOFxVElHogFIomzYnEXe6IDWwEhYMiSEEoYP3iGdKRr7O2yw45Pj8T4wqy8NuXd2LahHzUNHYIwD8uPxOTi/OQZDYKoXbH0XN48LahS3xiqC/vOoZP3bVMPi0Vj+pb7ZJNUVqL0APpMSmmOKFBbD9yFvOn0YYkXm5YlhdGYyyqGpWylx1JChwwK42MK77fEzfa19c0tsLhdEng4IhmRCuUOAOzT5K9222dIjxCnC8n0yKZF4NoVX0LEuLi4PZ6JdAIMT0cFr4oAwmPd/6g5iV/z+NCVXY2rOwOpwRQBioqsFNJXIRnOh2SBdJymK9h6RurjxV1Lq7ODgeSLUnys93mQFIKRTtUAglIR32wEcPHLKnsnNObfQDdThdSLSmXSd3kwPI7E+ukGDIxdyU7TJCNkEGeDTRm1sQvhbYkWadKgm1Ds7IRcPIoIvrBoGB3dEtTiMZ99DXS6XRIMHNDUqTq+L3ZjBK5uglFl2e4R3u+3svzIl10py+As1VNcn4YNBncON1DDiUnparYO2i1CWR255JZMqPO57KjzkmhgeAAMlOTUEDl9sEPcrq8VrryLOWHWjyHTDY+decylNe34HxVk2SJvAdYkp+prMfEwmzBLUlz/P/sXQd4FWXaPXPTe+8J6Z2aACl0BBRcxYLY1117WXXXrti766q/im3X1dW1IPaKEEBASAiQHhJISEJI7530O/+e9+Ym96ZAsOyq5PPxAe6d+83MNzNn3nLe8/p7u4mnyNgqq5UI5HTB6WHSUg/wdpF/Zx0o0XZ0dvbbmpv1W5mbtrvbWeVZmZpssLMw23DXBYuzfsg6/Ry/+UUA6Ggn9vQX2wNbWztX5pc3XmJmbhbco4WVl7uzEuTnbU5rlD1+3t+YLBaOq5M9Qid5IsDbXcpM84rKkX6gGJFBfuKCswXygcMVyDx4WFwS1iEzeP6HM0dm/ngsSbuzhTNGwDUckr2uqpO3q/RlgYqvdqRhWcI0TPJ2E1EOusikVVAgg2//MH9v6d1Csj5vNuoG+Ls56eKlksn/eQePMefgYaHj8OH29vRAZVWNZKLZVoI18gQeRwdbifURLHw9XcX6YiKKVCa698xEi+YxY5rdPSgprZRsM7PeVHqSWvEjVQKe5EAyDEBLlVU8/DetVIJfRXk1fKTlr849rqqshbunrrU1f1NXVw83dx05mrQoampykbq6utDT3QsHZsQVSFjAw8NtkNNZWVkjYQmeE4GRDfMInC6ODgKEHKxlJ0meqkm0uAn2fMERXMh35cTy8ujqFredL4DoMFYfKfISJV2JLxy+JEsOlwunVN8BlevAe5F9jhgymRIedEw19J/iqnezbUuvFkXVDfhiexomebiIqAaFypk3YKKTLXZYoMKwWGSwL45U1slL//v0fLkXffmyt7JEdIif8F6HD67P2g824OZh4S5uR68kLb8Y73+7U9z0qCBfhPp5o7apWUA648BhsToXxEYhxM8T9c2tOHSkGocqatDc1iFu+fnLEiX0VVvX1Ftb36g1VZQuT0ebPBNt/1cuLpYfjbci6KdYzx8yx8/9/P6QYxr1Ny98U2jR1FRyZkdP/wXVbZ3z2nv67L3d3TRZh46YrVoar+s8eahMTH9m6r1dnEQwlcRlZucY+5keHiAk291ZBfhyRxq83Z0kCz97cqhURujHi+9vwHWrl8qbcKzBpNMzb3+pi8l6uurUgPr7hWLBXuqMidKiYS0vtQXpFvE4+Pd5MyLEepsaPAlu9lZimVLL9OcaBPKcghJJnDQM1LezqoiDGWZSlUiS52CSiSEPuqx018MCfVHEElELc4kZMgaZf+gIAid5i8vPB6FqIBPPBI6vN6uUdEDL8AGBUxSIWtrkfwInVfNZzMCEHIU7vH085OVC4jnBj3FUOZYqgqL7gBBHL5qb2qSxG61O0pGENmVhLsfPMAEtTFqBLE2V39fUIcBP56JSQYEAxwy7WIhHOzHJh1l3C6n/59/5Oa312vomqdZiuKGypkFeAIzb0W2nFczWKXT7ad2S8kQGgMRR+XLp6kKwn/fPJlVHq7Gjj3qYXcgtrhCDwMHOWpgie3IPSV350vgpQkuiG07Pi28Fuuhce7rijIHypZCWV4SlCdMQEXDsHmKvrN+Iy89aLPczi08y8ouRVVAq1z8iyAcZ+aWYGjYJuYVHZN6IQF9EBHrj7S+2Y+HsaOQXVaC5vR2TPN0kKdyHPqz7eqfW3cGmz8PBttXbwXqHvZXF224h9t9cM3Pm+LsO/lwPzAnM+/M9tSdwED9kUwJqc2vZ+ZVNrVfnHqmL8fVw04QF+ZpNCQvQkIZEa/PTramYFR2CuCmhIobLRBXrxQmwjJfedtmZyCsqw579hyR+FxsVLAIIr324CTddbJxgGn6MWQdLJIRw1uI4cXFo4TKLzRgjXSeCFom9dFF25xxEc0uHcNFotVEtiskFvo3J1aSrExXgDTtzEwHTn4Osz+xqQUmZCFzoE0c8p0l+XlKBxAZnJIPTBiPRvq3tKKZGButK72gN1jejtqFJMrLOjvZikfKJ1Omw9iMnv3iw6yfLI5nIKymtkFYhA3gq3EgCKl8+zNQTMDmYySbIcv34IiJ3lSK75eU18PHxkM8oNkJwd3KyF+uRmX0m+kgpIr+SSSKeF0nsol4PiEXNsIWNta6tDaupKmvq4OxkL4Ap6zygklRYVCasAwIh47sEAmavmYiT9s9Bk2ReAc/uHlHw5wuhge1ORE3dTMIVFKr2cHH8Ibf0mL/h+tHabO/px4GyWpTV1AvJn9xIllPbWFkiLMBbkjQZB0okrvinC5cLS4QvcspCUoaQIRYfd1cpFhFZyJ5evPzBt7jy3CVC4RtrfLV9n2xfVl0v1Dham8H+XjhQXCb9rjq6u3DOKQlSOkm2TMaBYmzbkyvXdEncVMkLVNQ0aAtKynp7u7t73Gwt9hVX1u9YET//iZtWhLLL3692/GoBdPiKP/Xxd75tXX23lDW0X9Te0+cYHOhram9rY8IYDOMt+cXlIk5CMGVp2LPvfIVAHw9EBftidnSoBKn35RcjfX+RuBY3Xfo7cT9GG7SWnn/nK1xz3jKxYAwHaVYsGOANa2lmgm93ZsLNyQGnzY9BVW2TAKuLg53caIw5+Xu7i+hzYamu6odE4EnujrAzM9FRon7CQVeONdzSDkOjgZurM2rrGuDn6yUxRoZFaKXSjWackrHAQD/vwbaxFaSR1dRLuSdBlEOn1FQnrjwl9CjhRkDmvx0d7aQEUq8vWny4HIGMpQ5UO3FbutMsoCAoUbxZNDtNNOJa8+VCS53ZeVp6FIkmOV2Ut8zNUFVVhwB/7wHFehYHMLPuLiBPg54AW1VbL1VXEvt1tIerk4MkhiJCdPX/HMwAM2nGNZkaGSSfsRkiubCSmDLRyPpwXh4XKWCtrR1SoMCXBUGUlrmvpzu8B+K3P8Vlo0Qcrc3vc4tQ19AqrBS62929tHwhSR4mM5k15yJPDvWX+2tf7iFs/4/i0MrFM4WWxxjv5NBJoyaCistrkJJ1ABefPpIzTQBOyTwomXIWlaxamogjVbXYnV0oL7QZkUESzmKMVe6tkgrJTdDT+3L7PsRGBvYdPlLZb2dh2ujjZLve0dbkxTvOPqXop1ibX8ocP+0T+gs5q+c+/c6xob3/xurW9ivyyuu85sREa2KiQ017+3qxJ/uQlJMyPrdy4SxpTbE3t1AoKnFTwxDm74PXP0mSm6KqvgmzJodiZnSw3IT6sf/QEbFgV8yPGfOMSYV6ad0GONrZiEvDHjCsamLmng8iKyfoAtEiY6yRpP2u3m7s2JeHaWGBEmyfHOILJ1pYpqzS+mkuFeO0dK1ZWcQEAkGFXTgpgcfEB6tz2AyNLwYCaG1tg2TU7W0shQsaHjQJ5cIl7Ya/n6dYbCwfjQz1HwRGWvN5BSyTpQiytVirtOJYh+/BWnCJfwIEVCZvWELJUVFVKwBJa46D+2OVlJ5Yq/u3zsKU70srpG2JlGUqkIIBWqcsACAoNja3oLG5DZ5uLvAa4IFyO1qOBHkS5csqSUlSpYCAQtOUS2S2X6xXNx3RnrHZkiPlEksNnOQrlizr58lmIM+TJbO04HQN5X7kGCirbOvVIrekUu4T3jdZB4slEfa7hTOF2kexHvahZ4ba08VBXHR6GQRYoZ3VNWNfXhFuvexMsVCPNd78bCtOnx8Dd2dHCaXkFJZiV8YB4YomTA8Xy5Of8aIxVho3JVzak7BR4DvfbMeC2GjERAUJVzOn4HB/QXFZnzmUxhB3xxcdPPpfuP3UUzt+5Kr8Yn/+0zyVv9jTA55dn2zV3NN5S2ljy40dfXCcEhFsNjXcX0Og2p19QJqrxUaFShxoX14hcgrLwEqee65aJQC3J7cQ6XnFYq3OjYmU9gJvff4dzlg4S/4+1ti+d79UNC2fFyNxqgMl5ZKF5E1J14k3KvmsrOutrG1A5oHDEloI9mNbVkdJdBWV1ehaQni4SGtXGzMNrH+Cqic+lLQkaWWKhJurM9hEjg+ep7urACpFMBj7o8XFRBNdZlptdrasVycdqRuHyxiC6BGQ05eAcj34e8ZB3Vwcxaqk9ceEg/RVd7ATugr3VVRSLtQiHfJCrEACog4gVRQf1oUAdI0zIPQixmH1tDRm0G2FzE5yuyqAX1pWLcBNt11PlK+pa0QQFeMH5iF45xwokjkDfL3gMBD/5rlm5h2S2KyfKDLR4uwfbAZHK5mWKDPvjL22s12yiQlsLC0RNCCr+EMfBUrFMSFU1XIUByn1eLRLQhO8/kxMRob4Ilv4nGlIjInEkvip8uJlUpMvHAqV8L6ldU5SO1+ALFr59vs0XLP61GNWyrGQpOBwBZwdbbE3p0jimgw3MSSQnHlQEq6kDJ67NF6AOjWnQO4LH08XeQmHTfJSM/YX9liboHmSk/0/nW1Nnv7L2Yuaf+ha/Jp+95sHUMOL8eT6pEnN3dpHimtazrKwsbE8VFZnfvvlZ4FUjbT9h+RtzrKxV9dvFDBjAzaCZqCvh9AwdqbniaXDG/fOy88d8zo3t3bgvW924LrzTxtx4xIsGTul20pSPoGVdKfzliWKjF9vTy+8PVwkOUOQYnaf1i/pWxwkO/s428LmRxL1mRFlvbeTkyMaGlhjTKqrAnc3Z+GLElDp+rIEtLKmVjibDDHQauOLg7zW5rZ24YIyWcFkFC0/AkpeQYk0XdPJwbGlg1ZCB7Q+mSRi2aB+cH986EljYskokzf6DsfsFhoiAKsDUII+y0mZgCLNin3aaUnqLVI94FDgmNlwwWFFkSQRLUzGDesbmwVoGFog+Z9Zdg5yPMsqa8Vl50uFYQ1m4xlXpctOnifXhC4yAZbgSjoTWQsB3j/M8mTSiS56S1efaC3oE4+cn2vEyhoXJ3sUllYOiDm7wdbKGi++95W477GTQ9DaelRKLP3+U1ziP6Dfanhjbk3NlrWIn6oT4xg+mBzbkbYfn25OxWUrF0l8k8ml9LwSRIb4YM6MKOzNLgD1JwiaUSG+mBUdiq7eHmxNzuxraGjqnTzJ5Vs3e/Pbf2vu+XiA/KQCUMMFefzDbfMySmtf6erXhkyJDDGdGR1qwoZgO9PzJQh+3qlzhHqxMyMfVXWNmDM9EtN4c+0vwjff75N+3gtnTZHg/fDx3tfbkTA9Uiotxhp0c7/cloq84nIsT4wR0Ojs6YaPm4sAAmOpdL2ocMVYFF388CBfFJdXIf9QmVCLEqeGwd7CRMD0hxD1mYCgOAarTrhPoeTUN4A9y8ltZEaabXktzC0kwUQAZcyUB+vn444jZdWICJkkAE+KD18OIopraTHozvK86PIS8LzcdJ1AOXRdLCEvEsY6Ga/kw8yHnYNJHLrh5DMSgHUAzgStIhYXQZd/siUJ+zhxe/5HcjaFPqiUpL+5W9o6hLLED9jWhPJ0BHceA5NgVByidUmNANFi6OwSqhfPg2vC9WF4gdYzk218sdGtJ+PgROXpJCHUr6K9Twu25i0qr8Hm3dkiCixZal9PRIX6iWXJFzWJ71HBk6RZHe8JekVcow837sKMqGCh0A2Pwxvec2SEvPzeN7hq1anC99QPFpNs3Z0l886fORnJmfnyYqyqa8LsKWGIjQ6SYpTv0/NQfKRaXPllc2bQlVfTsg/2OFuaVPk62jz4wEVL3hoP0PxWtzlpAVR/QVkd1dZqs6awtvlaGwd764SYaLNDpRXIKTyM3l4VMdFBEpPck1uA/YVlsLE2R2x0CEL8vbErLR+HyiolJsTP+BCTIrLumx24ctWyY94zZdV14o5duWqJZPHpLtEi4U3c1NIuGeIAPzeUVTUKkZ0kd1oCtEamhPljTkyETp1GhVCzAj2cYWOqGVCJGv/tyjADu0qymobJECaRCCYECf6dVhdjf+6uzsJ75GCslG49682DWRfNpM3ALjPzDwkIcTDb7eJgj6IjFZL1ZlWTnktKniXjmbrYMkn4fQJoupgnFc5ZQnlELFAmcQh4tBgJbsx06+OiB4tLERY4SbbRH8P+ga6jDB/wnNgCm1VODEHoW9uy1poUJSaZGONlAoyD587CAlLY6KYTnOobGuHq4ixzMWnEklU/b4psjD/bzhYYtDbr2zuRU1QuMWSGQ8ippWXHkE1a7iER+EicFo7YKSFCyyJrhNl9eiK0kvkyIHeT1ulr6zfhkjMXHLdUdN/+Q/KSmBcbJXHSbXtyUF5Vj3kzo4U4vyUlS6zOZXNniMeVvr8Ye3MLZD9zY6KwN6eALzBtRVV1b5CL7W4fR4vLTkR0ePx3469vy5MeQA0v2UPrNl9cWt/+RFO31r26qcXijivPRdr+YuzJPohQfx8kxITjn+s3idUyOcQf82ZFwwQKdmXmYX9hOWZODhbSPEtPZ00JPab1+eq6b3HleUtgbTkU4GfiiQDJxAdVlGj5UKGfFKxvd6YJN3NKWIAQv6lwRfc0yM8DHR1dYiXTYiKZ2c3OEramGun7NJ5Bt/RA0RFYWFoKt5GuKXU+y8urBVyoNkTLU1//TTAjj5T0I4IJ6+M93Z2lvJLWJks+eS71TS0iwEx3lIDDhJm+nppJpsiBQgWCKl17ilz4UB5vYBw4VCqgpx8Et6raBl2cdODD8kpyTdl+2EYSgS0k71fXC1BznWhxEjQZbmhuaRdpPlrKTDjxHHk8TCqxlxHddUlCebhKnPVQyRF5GTCM0dDYJJZ5W3s7QgP8xDI+3hCxlX4Vrd392F9SKevBBCJddAKao70NAnw8UFhaIf2EaBlTuPiNjzdj5uQQBErYwURI/MIbDgswsjZZx/5pUjKuOX/FoF7paMdEb+fV9zfAz8sFdY2tWJwwTUB3+55sqYVfkjgDh8trJB5PUfGYqEDMmhImL7XktNzeqsqqnghPl7edPLS3/5YTQse7nqN9P74n7IfM/Cv+zVOfbI88UNH4TkNnT3TstCizqWGBGl1APQ+5BaW49Yqz0dDYhl3pecLhXBw/TcRnU7MLsO7rHTh3WaK83emejjY27kyHh6sDpkeMLbDL0jaCKevZaZkw3kWLh647LTXW+/MBNNWYSIUHEzOM1VLBhpUofFDjo0PgYGkqLr5hk63RjolgzTgrrTYCIilGzJ6TMC5lq65OAi7MytOVp1gIXUm65IxFNre0iKVEcKM8mp4iVNfQInPQ3ab1RMuWcVIKwPgOCJrwO3JMSVViokk/8gsPi3uuH0wUHSw+IqBKsORc7IpJMOSc7MXjYGsr1KiGplaEDBDEySMlAfzgoVLZjudFFoIusqpKz3ZagR5uLvKyYMKspq5eSPlsEc0XE2lZtPap60nK21hDyPR9dNFVlFQ3SAKS9eV8UVLEm6GY0EAftLR2oILN+czNpGKOwFZRVy/VQLyu73yxTUCUns2xeiht35sj1372GDFOJu+2pGTIvXrpylPE4tyckin0p1PidUDK7zhP/LQI/G7hbLlO21MzeztbW9ojvJ0eUg/sfPFEldp/xY//CR36BIAeY7nY0rm2tf3VA1VNyyPCg8xmTYsweeHtz3QK5YoiwMkb8bvdWXIjLkqYhve+/A7TI4PEDYqdHCw3tiGQksrz9mdbxGo4noYo3et/frgJCTPChejPbC8tK85B15hgwyohWoZMejW3HUVq9gHUN7YhPMhHkmK0UoN9PeDv4SRAerwsPnUADh0u1zVPU3Qkd2aB6xubRKSZ4FFb1yzCtgRafsa1IEiS6C6SgKoqSRpyLpmoojSevtady11GIeI+XXMwurBkJTAOSrdZLDQTjcxDYGaJKWlGTFSx0kkfJ+V2dK9pmbFiiqWThnWxuQdLBMwZm6WFybVmCIHbuLvqYrG0eskQIIGexH6WaUpvJPb1sbcT150EfR4H450scR3tgdHXotNFL6eIB6+Jth+2VlbYk1MgQHn6gllSPFFcVi3zk/9LL4NJRPKBea2Y7aaVSo/Dx8MV73/1Ha5avXyEXKPhLUtL/9X3vsG1Fy03qpzjvcMYZ1VtI5YkTEd+cZlk2p0cbOXfTIrRAqVaO1/2B4vKERHoR6u7t725uS3C1+nPD6w+5d8nhCYn4cYTADqOi/70xo02LbWap3MrGy8rrW+xvP2qVRomOBg7YvfBJQkzxCLatDMDhytrcPuV58LOxhJ7sguQnlsk1uPsaTog5WccY1kMhtbWmx9vxpLE6RL/4mDS50BRmQAU3Xm6+gKQfp5SAJCckY+oED/MnhIu3TnXcgAAIABJREFU9ci0vEiVogtd19Qs7ig5qZ4O1kPx0lHuAII1hUQI1qIu1KKTqaMLTSBlPbkAS2s7mptbJXMtfZLI4WSPb61WXHuqElHJnDQpZs8pSM0kU9HhCqEPGYKqLibqJd8TLGkR8jOWkrKXOyuTaD3uLyhBNK1Sg9JXtiQhP5WhFcagad0xXknrku63nZ3doEXMNs+Md/LYWLrJslKpda+slTJM0rcY4yUbQqTyursR6u8r19NwkKZFjU32DqpobEPhgAwigYnx1l5tn7xASElj6ePOffsxycsVZy9LRHFZjcS1GXagV0FQ5TVlGaahBc5Kn9yCI1h12pxj3qUpGTrVtoQZkVIFt2NvDorKqrAobircXRyRtCtDwgDBfl5IjIlA0s5M8SIWxk0VIKeM47ufbe1ztDBpnxbgesP9qxe/N47HYmKTwUj8xFKMawUe/O470/6K/nvyqhpuc/Vwt5w7e6oZgWPr7mxxJRNnRMlbnTE3Wm50keztrJCadRAZ+4uRGBslPMPzT18gfNBjDf6G1tnC2SNVcGjBFB2pRm1jkwBWama+ZKnjpoUL4FBxp62jQ6xAyrORtkNXn1SXxpZWEVyh+806aRdbS7FKdar6Q0ckup1NrZK9Jpm8t19XfklqE8+Zg0kmAgbFM9jSgxYpXWN9Jp2WH61jur/MXtPSFNGNrm4h7osFKd0uFTDeSUqRjnmkOxCKQk8eoBnx3wQZdsj08/YYlMpjLFF4pxT8Zbtqc52sHdeFMU020uOghUzQZAURXXxfb93nTS2t8iJggQOtUco5kZLFKiO6+hSo0fdD6tdCpOKO9ul6oTOsw349zIyz7JOgROuRYszUDG0/elSazxG4aIXuyshDWWUdLvzdIuEI83vuNyzAR85ntPHRtzsRExWMoIHk2mjbcF3f/GiTMCLyCksxb9ZkyejzvmR12ZK5M+Rl++32NHi6O2LpnBhx5flS3Z6c2aPp6WoM93K8/t7Vp3w6rgdhYqPBFZiwQH/gzXD/e0m351U23uvi4WE1Z9YUM1aJJCWnS7zyhovPkFm3JGcIUf+UxBnykO3Yl4svt+zGDZecgdBjCDjwQXz9g29x1QWnHVPQhNsxqcUYmYuTrexLWjOQr+nhKokOWkZ0Jxl2oJAyuYZ0lX29XFFT1yQC1oyhUc3K3V5nmeok93SDzeLYP76puU3mYdacRHImhAg8tErp7tPSIzjS8iShnarurD4iId0QHHTxxQYBZT74vQNgzHkYfxSFeI3Ohad1yzikrmmZdlDdnrFSVsIwNst6a7L2SXViEYDhYMM4KkBRf5TVQrT4yCRgzJNgTxee50Gh55aWNjnmo0e7hcDOBA5fhCS4EzA7+lWRNGQ5K8t0GcsklYmWJqt/aOlTXJjWK9eTteKkIbG6iZ5HkL+XsAho2admFWD1ivmICBooIjjGPciX3YcbduCK84b6exluzhcd77l3PtuM1acvxNSIAGxPzZayYSaLSL36LiULZH3wGM85dY6wPLanpPWgu7MxzN35qvsuWPTVD3wMTvqfTQDoj7wFHnl/8xW5lU1P2zg42iXGTTF9/8vtcHdxEAtj2ZxYidkxiD/J0x2Tw/2RnJ4vrmxNXTOWzo2RuNrwsS01RxIJjKWONfjgvPvFd8IFjA71l7gaY4tMIkk/GFtbEUImWIb4e0kVVGlFjVhpXq4uUlfe0nFUeqJ7uDmKVUqFIlqsrKrxdLKDlYlOv5Q1+TyfErG4+oTKwwoUAh1d88rqWgEy7pPWG8GKFlxVdb3E7/gd3WWCGXsS8Rj0ikliWWq1ktVnYoo11nrApNAzld71gEqgYwsSAjL3ox+0TMtZpeTtKedFS5muNwGOVCQyCWjV0gqmVUwqFK1kWqoEaQInLUjGWKm4ZM1EUr+Kls5uFJWzcVqbvFB0Mnh9AuQONtZSHsrGcuz3ReZF8CRP2ZagSZD393GXc6VHwOtDnU2+yLiW73y+BQtmT5Gk1PEGAXRe7GRhOhgOvhw370oXSl2ftg+tbZ1CdaLrzvABXXdyZ09JmCHZdsbOj3Z09rbU1bdF+bnccP95i9Ydb98T3x97BSYA9Ce6Qx5al3R7dlnjfQWVTTZ3XLNaQ+Dc9H2aPOxL58ZKMuOzpGRJWFy1+jShJ21NzpQHfdn8mSLGrB+vvv8Vrlq9YjBuN9ohbvx+n9TZx02PHPE1LTvGzwgUFHdgTJG1/2yYRstXSO91ulYelN+jZUlriQDFtiqMgRJcOdjJkA++g6W5uPnsdklKE91wAinbgNDFJU9SMvKtbQMJIlPpiMlWIpyv4+hRXUO3o7TQLGFhRSK87n9pg9zWMcKCPFxWKXJ0hoMWHq1Yhkj0fe/JDuDvubYEav7PzDljwKVlFWLt8uVAy1As0s4ucddZd88kYD80sLK3h5W1NcrrmlBV1yClqCxOYPxVR+AHPFwdRW2rtKJOLHOqHAX6EjRbJZFFoA/w1YUXqI3KdWfBBWvkhycMGTN/8+NNOGtZ4nH5pAwH5B0qxYoFs+U4CNBbUzLl5bB0zgyUlNXg86QUhAR44YzF8diSkimu+7J5sSJuQrbCu58n9Ws7uzvnhvvcfv+Fp7z6E932J/00EwD6E98CD6zbcld2Wf0aX38/y/gZ0aaMPX23W3ezMwubX1gqtfGzppIsHSoizN8NPAxL5sSIC8j451lLE8c8MlqZ3+/JxoVnLj7u0ZPOQ8uRmV5Ku3F+1q8TVOim0g2n5UpLycXRXpfVrmUtu1aSTtSaZFkpH3iCgJsLG3+5QO3rR011LUzRD0cS7FWtADZjooyTChmdfd+ZiLLSARv/ZP8gZrsJejoA7BGXn1Ynpf4MB0GaQGg4pAd9X79wOHl8jHnSwmWjOLbwIGOA8/F/hgdEEd9Z1+yO9ByYmsHM0hJ9qgJzih+3d8n5smKHkiY8BsY1uR5mJhopXRVVp7oG+YxsC5asMqzBtaR77uet663EdWYiirFntkbRU7nGukh0pdd/sx1/OHfZoIDKaNvy2P/xwTc4//SFApzc74pFcaLivjU5AxFBk8TrYIUar/Oi+OkIplXa34/dabl9ZaVlXVN8XJ98+KJTHjvuDTOxwQmtwASAntByjW/jBx98UNMXNvfJjMO1NwYGB5olzIwyKausx6cbvxd38Q+rTkPugWJk5hdj/qwpEvyne71lV4aUIp46bxYiQsZ27d78cCPOOW3uCYn28uFn35/K2nqJY1KBnYkvWie0zMiZZE11aXmNWFdmJlSadxZXXbL9gCR8dHHCLhGP5oPNfzMGa2dlLv3aNdL0rQvtbW2igk6LjWpLVJQnqDGZw/gj6+114GcuDdgI3AR1w8FYJfvYGw5auWVl1aITShAmABOI6Z4L1WsAqLXcZ1+/JOI0ZubS5vhod5+4srRGxSJUIXHb/t5+aHWCTmJlMl5dWdsk58gQB7UJCKxHKmoElLgOjGmSicGkkL4mnqBlqNo1nrsl9+BhAWd6KWMNnt/Tr62Dq4sjTps/S8B6W0qmsAROSZwuAtdJO9KkRfWZSxJkmryDh7UZmbm90V5O6wKjXa76tQkVj2ftfgnbTADoz3gVqARV29X+WnZ5w+rIqDBztiShxcBED3UnZ0SHYMeebNTUN4u7RcvmuTc+lnhaXEwkYieHjnD9+MBm7C/EmcewUI93StL0q6ZBLK+evl6Jy+nl5ggYfj5ucHKwF3EN8hI5SASnsAUBl5l8usdM+BBAmVVhEkhVBnTqoAh5nG1E7KytBVR7e7qhFcHkfuGz0mLt7+0TAKR4B9vo0mLjDUlJOdKZGAYhIBK0GKOUlhtsxdvdI32UTGhNUi9UepJrcLSb7ZLN0dnTJ1QmxgOJkoxZ8lgZm2VclPNxHu6D1T/cLz0Bzst9uDnZw9nBXjLnjG9ysDMr6/+5HUVNpBWIiwMCfb2Oa2ke63qIdbnua/zh3FN1CTGDwX2kZuUjJ79E4q/xMyKRX1Q2aIHSgt2anC4ULjIh4mdEo7uvV925M603wMlqd4CL9cqTRRXpePf8z/X9BID+XCtrMO/f3vvOtaK7c11+devcHq1icfkFK5CWfRBZ+cWYN3uKyL4l7dgnDwnbSVxxwQqkpOcLtWdxYoy4Y/pBK3ZO7GRdD5+fYDBOR1k6CoeIi05NSGhR39gqYEJaDuvYOQgczMbzoaelRdeYlhmzy1RF4uB3jAHSsuPNReCjWzl8MM+vJ8OTUM9z5/5YQkmwU8G/m4hVqbBDJ+dg3/juHgFvWpYEPLr0MvR3MoHdxGSg2Vy/rhEeP9NoJOPOTDytfP156MMSTIax97ve2ibNTK/vyTJHWufcha+Xm4Du8YogTuTS7M7Ik6TW1IihpOH+gsPYtS8X06KCMDU8BG99vEFEnletmC8VUVt3ZcDLwwkL4kiKN8eLb30KLyfbHhdzk6IAD6uzfum9hE5kfX7J204A6H/x6rBRXlFly+d1XdrwhQvizPmQfpeSgcamNkkk8cH++3tfYfnCOMyZNVnidzv2ZKGmtgmnLpgloPnG+m9wxfnHbjfyQ0+Jbn41VX/Y35z9cywtBCRZjsnYHkGDDzpBhHqbVELid0yE6cGTAhnU6KTb3tPbI/XtbP08cuiU5zkommFmbirbCQ9Uw26efRJD5Z8EVYIw440EZP6sv1/XlE4nzaz7g3/jMZK+xTABkz9Nze0SC9VboYypero5SYKHVToMA/A3jN16ezgLb5MxYb5QOHg+k7w9RULv5xq08nfuycFZp84VmtTmneRrOmHerOnIOXgIWXnFQlGjmtXhiirY2dhgceIMoVvRI9i1O7O3oLC4e/mUoAvWXLj465/rOCfmHe0unliV//oKPPbh1lMKqlvf6re0dp+fGGtGqbdN2/cI5YjxNBLKU9L2Y+bUcEyPDpGs+ZadaejTqmK1rVoxsv3Cz3ESDDUcLq+W+CKtQ9KvqApF641WJ1WaaN3Z2VpLBQ3V7fkbqU8fUE7SH5e8qRXK12kEhBnHk3JRDXu094lFS2uSbqs0mBvgh0oJppmZrvumiUa+0731Fdmelq9YovxcV9quI9RbmAuzgYklJsqYcGF1EffH/1g1xRgvE0S0rAn0HDwOJoV4nv+twXP6+7tfyhrypblswSyxhL8bcM+nRAXirfUbxdo//4xFcmxkTuxLz+8vLizqiQn0eOjhC0956r91vBP7GVqBCQv0f3g3PLhu8y3ph+seDggNtpw5PcokK78Qn327E0vmzsTMaWHYl1UgdemL58RIo7NNO/YiPfsgZs+Iwvz4aSecsPixp8rkS3lVLdrbdUkY/s/EhrW1BdpadT2VxCocMAp1bjOVkmzFKiSoESAIeLRo6ZLyz+4uHU1IF+vUSnKJVi1DAXr3m/OSvM7QgImpRv5O65BATKuUQMr/RauTPu7A4PcuzvZCpyLPk4UErFzSA7WNjSW8PdxOKCH3Y9fR8Pc83u/3ZGHbf3qk33TFuWL5M5zj6myPBfHTkJF7SO4BWuP0QhjuyTtQos3O2t8zzdfpbXNf8xseXLRoNBP/pzzMibnGWIEJAP0f3xqv7dtnVpLf9GZOReOqiKgws9LKWg1jb/uyDiIhNlrij98lZwigkB7EUk1ad+k5BYiLicLk8MCfNB53IstBsKNcHTmk3QNuPMGTDd9I5aFlqrcSmc3Xd+E03Ae5pyz3pOVNChItVKoWcUi1Dzt/DsRVSbLX/52/0Qme6OK0BEK6tnS1GTclmNc3NEvZqSS8NLrKJVp5jPMSiP+XQ0cx2i+ap/Pjp2PrrjR4urnKdeYLlLJ99EKmRwcjdmoE/v3xJiyIn47U3ft6gl3tdk6ydTjvltWJOjLvxPifrcAEgP7Plt54x+wqWlTb/lleVdPUs3632IwdRHfty0FFVR2WzJ8lccI313+NqNAAnH6KjiO6O2O/CHPMi5uGkIFul7+E02G1kgiNSOfKo5KUkiGG4YADrijSlpcxScY29cIi5HbqM+YEuV5W/mi14tLzz55uXTyTwEgdVN2U+jioIt0xGc9kR1CyBkg5+iUNvnQycg4ic/8hxEwJR3RYAHbuzcaWXWm44Q/nisW9Zec+eHu6YEHcDMnMU2P15X993B8f5l0V6el41t2rF6f9ks7pZD6WCQD9hV39x9dvXXCgpvXdPgtr93mMj3b3yANFMRC6rq5OTjhw6DAmRwQhdlqEJEF27M6QZM4iikRQwu5XMGhZUgiEFhcBl8DBc+Fg3/jB7DoghHmCKkMAxF+CIjPttDalI+evYPB8s/MOYV/WAUyODML0ySHIyi0SPnDCzMnYuSdL4rJ8IyxdOFuk7rgeGVl5fRVHjhy1gfLIe3ec/7dfwameVIc4AaC/0Mv94Ptbb0ovrXvcNyjAcuaMaBN2pHz3k28RMyUCS+bPRk5eITJyCzBrehSmRoVIUmf77gwhuc+NmwY2VpsY//sVoMWZk3dIQi4Ugp45LUL60u/J3I/IkABERwRiy/dpss3Vl54ljfdEOLrgsDY7M7dnmo/j6xYlu2+eEDT+31/L0Y5gAkB/mddFjuqFbwotKuqKX8+paj5vxqzp5rV1jQoBkgT3qVHBmBwRjJS0XGn3mzhrqnS0pFjGzj3Z4jrPnT0Vfj9Fr/Jf8Br9Ug+Npa/pOQex/0AxosMDMX1ymIRb9mTmITzYH9Mnh0pCkCr5vEas458zayqTdGpq8t7eIGebXSHeLmfdtCK+9Zd6jhPHZaThPbEcv9QVIH+0sKLlq7yaltCoqDCz2CkRrHFG8ZEKzI+bAQ93Z6Tsy0FlTR0SYqcgJNBPYpDJe3NQ39QkVquuc+Wvw939pV6H8RwXxafTcvJxpLxGQDM6Igj5BYcl7hnk74NZ0yOxv6AY2fuLMCsmSihrW3fuk3Yih4tKelzMlaJQN/uVd6xaUDie/U1s879dgQkL9H+7/ie0d/JH95c3vavY2DnHxcdI3d/O1Cwhfc+dPU0oRSn7slFV3YDZMdEIDfITyhAfXlo6YcGTMGNK+KDg8QntfGLjMVdABK5Ly8WiZB+/mGmRIvqcs78Q2XlF0jxvWnQo2OMpM7dAYqAxUyMkecbQy7qPv+kPcLVrmurldMma8xdvnFjqX88KTADor+daDR7pI+u+uybtSO1f3Xx8rWbMiDZjEmZ3Wg6qauoxLz5GuIJpWfkoLqlANEsBI0OFhH2gsBTZ+wtFjHhKRAhCgn2PKdj8K1ya/+ohc733HygSpgRbNPPlRGHntMw8VFTVC1BOjgzGgYJSpGcfQFiwP2bHRAmnk/zPPfuy+trr6jtj/Nxuvu+ChW/+Vw9+Ymc/yQpMAOhPsoz//Umo+NQbNueZrNKGa3yCAsynT48yoZDwrtQsUTeie8jeRXkHSpC1vxA+Xq6YPjlcNDAZH83NP4TC4jKRuAsPnSTbshJqYoy9ArQ0CZqFRUdQWl4tCZ/oiGB4ebii5EgFMnNpgWoQMzVSwiqZOQUoOHQY0ZHBmD4lXAofCJyZGfv76isru6b5ujzxyMVLHp9Y81/vCkwA6K/32smRs09TX0X/42lHam/0CQgwi4mZbELJuLSMfBQfLkdURJBYRuyVnpVbIL2SIsMDER0WLLQg9jIqLDmC0rIqEaUI8veVGCoFiyeGrl99cWkFikvLRY6PYBkc4Ad/Py9Z09wDh6QFNC3QadFhUk21N30/auobB2KgwQN94LuRlZnbV1te1TPd1+lF06LkeyYy67/+O2wCQH/911DOgNJ5Nd1tr2aXNa32DZpkNmVKlAm5k9l5Bcg/WAIvT1dMmxwmbTfyC0qQd7BYFJDCgvwRHOQnJZHM8BcdLkNRiU4yzc7WFj5s5+vtAXdX58Hmar+RJRtxGqyVr65tQEV1nbQpoUC0nZUFPO0s4eZgDfR0oqWtEzUdXahr7YGXrzeiI0OkfQZjzHTnKe83a8ZkeHvp+LhkReRk5fW2N9R3TfFxftKkcOeT/2vgXLhwoWl3t0WAqvYFaBWNyHppNEp7v9pfb67YHNi16wudAOzEOO4KnLQAGhu7xMHMAr9XFSVcUVV/VdHo+taqar+iYJA6otWqX+1J2fy24UrOnHtKkKlWuRCqEqjVKD4KMOj7KlCbuK1WVXsURVOmapGq0WgpiRmvQvFXNMpQYxsVLYrCfprkTysVqbs2/WWsKzY7YclFikbzR6PvZR/o0O1PqVZUtcjZ1/e9mWdffF32kcZb1dZaGweTPpOe1ia0NjWhncpI/f26thc2VlLi2N2nClCwuoefU+EnIHY2wucvFeuLYFJRWS0yezxKlpMyDMDacldXR9jbWKN07y40HilBe30ters6Rz0FM0trEQPRDxLhzW3sYe3gAPfQSLgFhcLE/OdTPDI8KFqSDQ3NaGxukdYeVO3v6+uVEAYb03l6OKOvvAg1+9NRnpOB3k6d0IjhENUnH39o3Sah18UX4ZOjER0RMqigX1ZRreZl5/Waa3tavDTdzyd/8GavoiAIKvygKCPKo1SgTwPVCLhUFe0q0KRAKdJCTQ7wccz58MMP+4/7VI+yQUJCglW/xm61RtWuUqEsBDDUVGrE9upBQNkIKN9DVSOhIEyBegAazebdOzel/pD9/1Z/c1ICaPycpVeqKv4K4Piimio6VDNlyp4dm0piY2PNTC2cnwZwA4V7fvKbQlETUndt3j1y3gc1cYm7DgIIOf4+1TYFyosqQM27acfffuQWioU1bE77Pby9PaX9Bt1WfbsNZo0FdBqbUZmbicbkDVCP/niDRWNqhsC4OZi8/Gw4+fqP+7BpNbJhXk9PN7p7+qTenswD/skGc3xpsMEdwxr6YWNlJV1E5UVAFSkHe6nf7+7qQdaWb1GY9Dl6mxvGfQwaE1NELj0doctW0tXvLys+0hfkYpvtbWd2/Zdrn14BFXexs8m4Jxx7w3qo+IcG/S+lpGytGM98UVHnmds5NF0PRVnDTtTj+c0xtmHN7LPODqZrNmzYoBMsOMnHSQeg8XOWLVdVlZqJJ3LuG1OTk06LT1z6mArc8zPeMx+lJiedN3z+uMQlKwHls59xvyOmnnvtrdB4BaKishZV1XWix8m6dRcnJ7i5OsFS24nk5x5G34Dwx092bFSKnxQJ08kJgOb4gh/MaLO0k33gGZJgixD2B+K/9U3maDVLGeiA4DNbcTQ2NqOhqVnEUBobW6Dt6URf5nfory4dcSpObu6wd3WFjb09erq70dbQgIbqavT1DoEyf6SxtNaGzp7z1dSps6647aJF9XEJS2/4j3Le2p9sbYYm6lKg3rE7eTPnHpKeGrajuLiloTBR1wFKzPBjsHN2gYunp5wTB8+rhedVWYH+UfVbh2ZQoTy2J3nTvT/Def3qpjwREPnVndzIA35QEzcnuQKq6snvPCb5Y8bipXBwdROlHg6qAnUf7URnRxs2vPm6tNnVPXl4AgruACBPdVjsLETMnAVbRyfp3KgfnR3iUUPb34eGqkrsTfqWYQHMPnUFXH38YGWjS87wru/q6JD/v3njNb0EW3+/Rhu2b+eWYsNjn524dJsCiAjojEVLEB2vExOhJmTPQMuJjtZm5Hy/AxVFQ/xrKzs7zF62HG6+k2BpbdxvyPAY9Ps6lJmOrB3fyT81br7wXfl7+Hp5wJutfq0tpRMnLc/6xmYcfO8VdFUelm0dXFwxc9lpcPHyhrmFLhIyfHR3dYogin709/ehq6MdDZWVKD2Qh9ojxsDlEhCMxX++F1aOx3YSRDvUwOrk3/X/MzRB67OtvV3XrkPemor0hndm2w4nR9HWVDqb8f2Lf0VbXfXg8Vnb2SNu+emIjE+Ai6dxZ1BuxO6kBen7kLF1M0rz9xuebp+qKNeaqviyHyoXSCxP/8hoTJk7D3ZOzjAZhe3AVifdA9dSP1lvTxc629pQfbgEpQf2o7XBWHxJUfBpa5PjBXl5HxojOYCEhGWJWkVlv/fBBXRy90DskmWIjEuAo9vopb4EzyMH8pGfmoKcXTswZc58+IVH4FBWBnJ3fa+/d7vV3t6AvXu3DS3YqFf9t//hSQWg8fFLIlWNksfLau/sgquefgHmFmPH3Ta/+y/s3cB70HiEzZyNc/9MLD3+qCg8KL2A/CKjx9z4g6cfQ3FWhu4BV7F2d0rSjfqN4+NPjVE1WlHfMTE1xXXPvgRaD6MN3vxvrrkddRVl8vUl9z0Cv/CRbY/HOpDWxga8/Ofr5KXBGF/8LY+gqQeoqqrF0a5OaBQTODraw8XJDgdefhjavl7Qfb32by/Cwe3HiZjUHC7Brs8/wsG9QyE2xcEVZglnSCfNsQaV72l5WlpawsLcdNASZbtkCjfb2dnC1tZGGAYcFOggzau1vR0N9c2oKS5E0+b1QI+u9xHPO27FmUg8axUsrMbndR/cuxtb3vkXWhrqhw5TxQYoWM4PfELCcOn9j4mY8w8dFFspykrHzk/Wo6qkyGAa9YPU5LkXAQ8Ovp3i5i6LRb+6ne8KbmhqZo4Fqy9E7NLlcg+Nd9AI4PXVj3cfewBH9C8LVbkiNWXTG+Od67e63Q+/or/CFYmfs/RMVcXnPPSQmNk4+y/HBsHe7i68cddf0FpfZ3S2Cy/8PWatOHNcKyDivlRLP0YZZWluNtY/9bBuPhUdGmgmpaRsFHMjLnHpv4mF/HvUnPk4/dqbjrnfjW+8iuzvNsv+bn1z3TH3O9pEnz73FA6l75WvPOMWIe7iKwcpTUw6Nbe2oKKoCFlrH5FtHNzccfWzL49rLcazEY896a3XxYLn8J81B/Ouv33Mn0p75AGrkxYy1Z2GLNJu6SpKwKSYMgdjnWQi2Nnbwt5Cg/3/fAadzTrLzsLaWtY3eMbM8Ryq0TZHW1vwyTNPoKr40Ijfzlx+BhZddNkJzznaD7guO9a/h73ffDH4taoot+zZtek5fpCYuMy9HyrfxmI22zg6YdVt98DdP/BH7z/ls4+w8+N1Ms9/5LQf2p286cEfPemvfIKTCkBraGsZAAAgAElEQVTj5p0ShX6N+Fv2Lq74/ZMvSFfHY43D2Rn49G/G7bRDYmfjjJvHZ4FWFRVITMk3POqY+3n33ttQe0TnEqsK1uzZlfR4QsJiH61iUsLnnp9f/PDTcA8Y+0Hgw/XOmtvRUKmzQFff+wh8wsZvgfI3JVnp+OwZHbfb1My8O/DsKxqaunsdVY2pia29nWLv5GTq4OigSX7sz9D26izQy59+EXauP84CNVyc/OQd2Pjai4PK8ibxv4PGdaQbLYBoptMUpYXJOCe1QPlvqtrzT7rrdnbWI9xm9kna8rcH0VCgc78trW1wzp33wyMw+Ac/0uw8+vmzT6AsL9doDq/gMJx/34+zQIcf1Pb33kL6t1/qP27tM9FEpH2/sSp+ztL1qgqJo1vZ2mH1fY/B2Wv0tTvRE83eshFb3vqH7h6F8sqe5E3Xn+gcv7XtTyoAJf+ts9e8TB8DdQsIRNS8U+Th9woJg6Wt3ajXd9Orz+Ngii7+ox/BM+MQOD0WNg5OMDE3h0+EsYteU3wIZblZyNz0tbTynXHamYhasFi2H20c2LUdSX9/Uf9VlbODaWBjc98DUHA3P+T859z90Jj3H48ve8u3qC5ksl43rOzsMWXJaXD29oPlQOyV5+h2DGuEruLbt18/aHWrqnrxnpTN75Fn2omjc492aee29vXNz/58XWJXXZW8fexd3TD5lFPh6O4F94AgIzDt6+5B1aEDI46brredqysc3CUcPWJs/ecr2L9ji3zuHhaFJXcfu2BHHwsVa7SnR9o0s2VyZ1e32t3W3ne0o13b2XGUwWnVFGpfT3khmtK2C5WH1vrK2+6FX/TUEcfRXF2F3G1JKNufhY6mJphbWcPVzx/hifMRFDt7RDcAxnU/uP8OtNbXGs3lFz0FobPnwMbJGb4Rk2Fq8OJuq69Dc03ViH2zXbOTpzesHRxHfMd76oMH7kC9Pnas4n4VyFUUfCLnpChYeft9o54TwxYHU3aivrQE7U2N6Opog4WVNRw8vOAbEY3wOQtg5zIyYZ+zdSO2TQCo0bU4qQCUZz47ccnpChS+uo3O/fRb78WkKdNHfZg7W1uw7p4/o6t9dLqOhbUNLn/5LaPfbvnHiyjYtd3os+U334mAGbNG3Qetx3dvvx7tjTp3UlXUGxVVIWIKb/S0m+5AYMzsMQH0rT9fjaMDruiYGzG5cP6lmL585bE2QdpXn2DPR+8NbKN+n5q8ef7wH8ycc1q4idqfzpbxht8Nn7+lphrv3fmnMfdn7+6J+FUXIXi2LjGmH50tzXj7lmvFlWezOPtlF/doLG0k46xRVK3+4imAVqOqqkZR+q0szLoszc3aLU01rRYmmgYzjVJjqkGZpammwNLCKh+mDfvvXLmybYCOxmyb8KVmrDgL8aslSmI00r/+FHs/XS+x3tGGd0Q0ll57M6wdh6i93I7A9PFDd8mLc7Rx0VNr4eAx9OLI3PA5Uj5gpGb04RkagXkXXwHXYd5H8b7d2Lh2QGNZUbKhavv0GffoRUsx/7JrjCbs7+3Btn+9NuK+HL5XJkVnr7pQ1sVw7N+6ETvenrBADdfkpANQnnxc4rLrAZVBx8FszPJb1sB38ugAyt8UJG/H9tdHZ6QQQH+/9l9GN9u219eiMNkYQJfddCf8p48dX8v69gvsWT/4IDGzqrPw3D2x+vEXjpmEePcWAqhw+BlzfRoazalQVSOTigmEi555DZZ2OuoKR0tNlYCUk7ff4GdHW5rw/m3XD8YhYaKNTv1+iyTfDMfshGW/U6C+AAWDcYW41Zdi6mlD8eHW2mp8cNdgTmxMkJh32TWIWLDE6PsNzzyK8v1Z+s9+n5qcNDbKjDnzyC/i5yy7WFXVd/iNlb0jLvjrSzAd1vpj1zuvI2/r8YWR7FzdcfodD44IYex482Uc/F7HaBg+zn/yRbmm+jHsuo/6G3Nra5xx58Nw9hviyPb19ODtG/8IAqPhMDO3wEXPvgZz66FyXHoWG559FBV52eNaKSa8zn9yLXh+ox2nAvx1d3LSneOa7De80UkJoLyecXHL7VWTPtKDZvDfy/6yBj7HAFC6iJuefRSVQzcgs55SWmNhZYOLhgHojtfXoijFGECX3Hgn/I4BoD1Hj2L9Hdeit9O4mif+4ssRuVgSumOOdbdejc4BADVV4LNr15zq2Qm7VioK6PtG8IeBsxKx8FrjYqe969+WBEvchcZFTttefRYle1P0+3shNTnp5tF2TqK2vVPzO/q426zzLsVkAwBtq63GR3cPAuhRKEqyzKNVTaGAAC/mGwHigmf/AROzoZh02qfrkP3Vx7K5AvXe3cmbjYPRP/DBjEtcSmRcxp/HnHMhpp1+jtFM+Vs3YPe7Rgnmnf/plvmg1qI3y7zb3LVfUf+gALfoY9Mu/oE4/e5HjY69rb4Wn9xz89BLCGBWTFLaq554EXYGAJrz7RfY9+Hgu6EUiiJcNFVVad3HKoBQRfymxWLJTeTkDw2uLdfYcEQsOhUJl1xp9FnOhs+w76N3DT/7NxTl3/1Kf5ElLJv6+/tc+qGdpSgg4V7iUTNXXYwpy4esUON7WrkhNXnTT5c9/IHX8n/9s5MWQLnwcYlLvwVwKv9+yp/XwNsAQPu6u2A6jNPYXleNLx+4FXzzGw5zKxuc/6KxBbrrn2tRPAxAF914J3ynDVmgQhcalp3ft/4t5G8aok7Rijj36VeNjmW0331023AATaqMjT3D2tSiixUrEkRbetuD8DSI1dJy+fj2a6H2a3HuM383ssKq8nOw+ZkBZgDQ3Ndt6ZOW9uXImkau45xlT0NVb+M+Ys+7FFGnDlmgfLg/u2cQQA+lJieF6tdu4cKFtp09Zkxbe/CzMx95Dg5evoNLe2DLN9j7/qDK25ggfiIP0dSpy2ysbKXc1oxW1jlPvQprpyEXnC+hT+/+k6FV928r897Lt23bZtQ6OC5xKQGYjA4hvs445yJMXnG20aFw/biOw8dZjxsD6P6NXyBdD6Cq+nRnh+Yhc1sEmkK7UoVC2oWYgbw/eZ8ajq8evgNNR5hnHBqn3vUI3EPknSmDL+aPb78GvKc5jpVBj5+z7HxVJfkesLRzwKKb7oTzpECUZ+7D9/94Xih5gu0azYw9OzcOugcncg1+S9tOAOgAgC788xp4RQ+58OUZe8UFch+WPc/79nNkfSze3+AggJ77gjGA7n5jLUqGAej8P90JHwMArS3Ih6PvJCNXq6OxHl/e/SeoA/GzqNNWYtq5xvG5yuw0eE+NNTqGz24fCaBxiUv+CChiStl5eOP0R/7PKOlRkrwdu9/UhSXi/nA9guYsGpyTFvfX992MtsHkhnp5avLmUTUrDQF0+qpLEWkAoO211fhyjTGALl++3KK5uTesX9Fcp0C9jjtlwuScZ/4JMwPCf86X65H7xYfHfehP5IGcnbhssQJVslMsGT3tAeM+bZkf/Rv5GwcoQirS2locE0cjqsua6UJBL/HvFnb2OOuvr4Ilqfox2r3C78547EXYGlig3B/3e6zBF+2Cm++BV9RQdS6v0ae3XInu9qGuHwxFnPv8W7Ke+lGw5RukrRu8dJmTfBxnjlVTv3DhQsvOHjNm/casp1WgfrU7efMZJ7Luv9VtJwB0AEDn3bwGngYAWpGRipxP3sOy+5+GxsCtJLBtfvxuNBu89QmgK583BtA9b6xF6W5jF37ODXfC2wBAq3LS0VJeiojlxpZL6uvP48ienUIRWvH4S7AysJC621qQ/t4bSLjG2BX/8o6r0WXkwidVxiUupQ8ez5t36qpLEb7MmLu69cl70VCsy9o7B4bglLufMLrPCzZ9iayPBnRUVKSmpiTJXMOHIYAO3w8BdMO9x4+BBi84FTEXG7ude/75IkpTd+h29xMRt+MSll0ORf0npwycswgzLzNm4nwrL41K3T4VnJ66K+mbsR7+8847z+RIeXOhPga84NYH4R4+xMZoLDmELU8IicJoLH/UGEAPbvoC2ccAUBtXN8RcdBU8J0u0aXCMNr+jrz+W3m/8Utj10lOozNp3jHV8UJOQsMOr10SRUIGmXxOrKKCVMJLjpyJPUU1O3737Wx3n7iQfEwA6AKCJN62BR9SQBVqZkYrU1/6G8OXnImrlBUa3SfORYmx78p5BK5EAevpzxgCa9q+1ODIMQOOvvxNeU4dc+JrcdKT/+1Wc+tjLRhYD5//u8TvhN3seZl5uTJzP/2o9Wo6UgHMZjg13Xo2uFl0SiTHQXkXjpmi1mfJAmJrhtKdehYWNQfKovBRbHxWve3AsXvNXOPgN8Uy7O1rx7V3XQTuQpNACM/YmJ8mchsMQQCefcylCDYC6o7Yam+4/NoD6xMRj5h9vNHpRMbzw7R1Xo6dTVxqraDWxu3dvZNb/R424OcvuhqoKJyr8tLMRddZ/ingGRk97K76+7Qr9P9v7uhud09LSRk/BD2w1O3HZCwpUOcGoMy9A+IpzB+fram7EhruMM+H8ctnDL8LGwAItTPoCuR8PWaCm5hawsHeEU0AIvKbNhE9sApRRdAF2v/wUqrIHgHFgr27hkzH3Lw8YrdGWR25Fa8UR+UyjqlNTUjb/J64gAjUXQVFuF8WlAa7xOBa3VFWU563Nel7Ztm2bLiZwEo8JAB0A0Lgb18DdAECrM1Ox97W/iRU4/+6nYOczyeg2yfv4bRRt1hGZzaxscNqzxgCa8a+1KE81tkBnX3cnPAwAtDY3HakvPYHpl/0JfvFS6j44Up57EJHnXApH/yFiN4Esac31cAoMBecyHJvuuhrdBgDap6prAEXMK59ZcxFzuXEOKOe9f+Dw95uM5vCftwRTLzJ+4NPffAEVewY4sApeS92VdO3w58UQQKPOuRTBS4csXQLo1geMAZQWvYWdA5wCQuGXuBDu0caWFec/vH0jcta9rtuVirzUlKSxa2FP4AGOS1z6fwBkMSaf90cELl4x+OvWyjJsf4S5IeG45e5OTppyvKkNBUMCFp6GKecPArDEC7+56aLBggD9XIsfMgbQ4+1jtO8PbfwM+Z8ZJYVkM89pszDrWuMiD8N7Q9vb6xUQ4FZ3pKKZcYqhkz/hg1APmmksEnbu/HqA+nHCE/wmfjABoAMAOvNPa+BmAKA1malI/7vOFXIMCEX87Y+C5G/9oArRrkduwdGGWgHQJc8YA2j2W2tRMQxAY6+9E+4GAFq3Px37XnoCdr7+mHP300bxyaN11bB2MyaZlyVvRe47r8gcnMtwbL17CEDRjzCYgPWYDtwm7i8PwTl0qBKqr6sL391zFfin4TCxsMTiJ/4OU8uhGvCmogPY/cx9A5upbaaKtc9wwV1DAI04+1IEGgDoD3lK2qvLkPzUPegfTHrg1t3JSc/+kLmG/yY+YenrqgJBucmXXAe/xMWDm7QcPoTkvw663HtSk5PijrfP+MSlf1ABCTD6xC/E1N9T6XBobLzpQn3iZfDDBQ+9OOLaHm8/+u8Z9yxJ+hwHDcBThVKkQJU3rce0WYi5xhhAt951Fbpbm3VT9Gs9VVPNFYqKQUYDrVsLBwdoTMbWHND296KntdWQVcAX2yepKUlDJvd4T+I3tN0EgA4A6Iwb1sDVAEBrM1OR9Y+hWFL4qj9i0iLjF3ZDfhbS1z4qALrwb8YAmvvWWlTtMbZAp197J9ymDLnw9fvTkfGyLu4Y86d74RJ5DPlOVUXKY7egvapc5uBchmPHPQYAquJ+KJAUurWHD+bc9xxLUwY3r0lPwaHPR1ov3CBk5cXwiEkwmjvl0b/IfjlUFdfuSUl6zXADQwANO/tS+C8Zn07AaM9RW1kJ0l96DD1tLfqvM9uaHePGSuSc6LM4O3Hpkwogixe68mIELBui6RytrcKuhwZDJkaMgbH2E5ew5DYoCjViMemU3yH8nKGa9/6uLmy99dIRP53z4A8D0M76aux/5xU0FRpQclVsUDTqv1RV+YA7cp82C9OuNgbQ7XdfhZ4BAKUFqjEzy9czMwJPPQdBy881Cp+Mda7kklbt3YG8d14ZDF/1a7TBw9XDTvSa/Jq3nwDQAQCddsM9cIkcioHWZaUi5x/PDF5blmvOXvMsrFyMZcDy3noRDbnpmPe0cYI67+21qN4zkAAZmGXqNXfA1QBAG/ZnIOsVHYA6R07D9BuMKSqGN1ZjXiYyX9aVM3IOzmU4dq65Bj0DLjwAasNJFjXk3MswaRG1lX/4KN+2AQUfDWVxU5OTjHxuQwANOesSTPohAKqqqEzegsKP30L/kMZoaz+UOfuSNxkXl//wU8HsOcv+oqiqWLNcF66PfvT39OD7O/6gtxi1ap/Wfc+eLcdUVp6dsPQDRcFqzhG2+gr4zhdWnIzOhhqkDAtf8POEB16A1TDvYjyn1F5Zhsy1jwyCIdm0GlWd3q9gkgJFuG+uk2Mw9Vpjruiue69F90CVmqpo5iuqVm5MK1dPJDz4wnh2bbRN7hvPoTZdxxFWFPX83bsoZ3VyjgkAHQDQydfdA2cDAK3PSkXeP4cAlLeHU+R0TLnOWE+5t6MVmc/ei1n3Gd+IB/+9FjV7jQE0+uo74DJ5yAJtzMtA7qsDmW9FQeydT8PG2zjWqr8tc195HI35uvwN5+BchmP3fUYAKl8xeRT3yKswsxm9xn+8t3xfZwdS77sGBBh5aDRKvGFrB0MADVp5CXxPGb8Fyjmb8tNRuvFTdJQb8RkbVAWn7dmVZJwlGe9Bj7GdtEZRFDG/XafFI+oKXcxTP7Kevx8tRYO1+7elJicZ3wQG286bt9ytp6+vRC8bN/OeZ2HtOcRjNbq+Br/jvWIIoE0HssD7bWgo8IhbCPuAQcrs4FedNZXIfP5+9A5Rlw6oiuZqPSja+gUh5vYnjc4p7Ylb0VGlE5hRFOUSfRWWjZcfYu8e8/TGXOmD776MmtRtuu9/InbEj7ys/7OfTwDoAIBGXXsPHA0AtDE7FQeGASivUuilN8Ft5lyjC9aYmw7nycai34XvrEXdMACNuOoOOBsAaFNeBvJfG6IOuc9eiJCLRwrcHK0qQ+ZTt4n/zME5OJfh2Hf/SAB1jZ2LsN8fW/5uvHfeofdfQe3uwdLEN1OTky7X/9YQQANWXgLvxUMA2tvWgiPfiHc5ONS+PhCU6VYerSgZESNUgQwTVbkoJWXTSBWS8R7wGNslJCyZomXdODk69o6Y+fBrRuENniPPdWC0mKA/Njl5q6EA5+DMhtanrX8Ipt5iLHhy+NO3ULmNzQ+MR8y9L8DSwAKt2PoFSj835hZD0cBnyZmYtOLCESW87aWFyF37ELSDBR3K54AqAgfmDk66czIYB9/8PzRk6grAqPSlqKCavBXDOqGX3Djifj7WEneUlSD3hfsHvQQttLP3Jm/R6R+ehGMCQAcANPzae+AQMeTCN2WnovCNwbczkUvWyszGHlPufhamtkOUoNHum+J316J+GICGXXkHHA0AtDkvAwV/HwJQxcQU0+5bC/Nh4hQl615B3RB4yRycy3BkPHANeodcePkq8qaHYRc0VJHyY+7vjtJD2P/coPV9tNu81ydz2zbJTBgCqN+Zl8DLAEC766qR9di4QbwdCp5ra3J89HgxTxEz0fZfpAIRiqK6AZpDCrQ5R9s1b2Rnb9Jxn0YdQt+p0fcHirrpEdgGhQ9uqfb3IefJ29BVN8AFBQ7DRHu6oRaAjmxu/gKgXiU/VBSEX303HAxewPw4+4k/o0vPKTU4lmlrXoCFAYBWbf0CZV8MA9CB7V1nLUDQRdfR7Dc6G95bvMeGD1ZXzXjkdZgaeB3DtmVwmZymQYaBhasnLBxdABPjFioBq6+CpYsUiclozNyNQ2/9H6Drg8ixMzU5ad6Pua9+7b89aQFUFHnMnb+HAsm0hlxzD+wNALQ5OxXFbw4C6GAdM7d1mbUA/hcZZ1uH3wiH312Lxn3GLnzwlXfAIXrIhW/Nz8AhAwDlHJ6nnAXv3w1xE/vaW5Dz0PVQDRSBOAfnMhw5BNDWIUaJpYcPou4Sjd3B0ZSRjPrUreO6Z51mJMI1bihDzR/lP3MnOofc7J2A8pIWqNQooHinCJf4nHkJPBYNWaDdTHwcG0BpV2cqCr7qM+t9IW3bNgNZ95GHSvDq6jG7TwVIYh1NzLVMVXHznpSkT8c60fiEpa+oCoSO5TxzPgIuNlaLOlpxGAf/b43hmvcoKt7XapQsRau6QcH5AIL087vPXwHfs/9gtLuWvHQU/cPIlSafVNLc0QRQ1yGGRc13X6BiDADl9k6xcxFw0Y0jLNGSt55DU+agXsHg/nk+PC/94Esh/ymjl8K47oHI25+GlfdQQVL9rk048tEAtUxRqrVQluzdtdGon8m4Jv4NbXRSAiiFRBSTvs0qMKgtF3j1PbAzANDWnFQcHgJQ40vO/rTXrIFt2Ej9SP2GZe+tRdMwAA244g7YGwBoW34GSv5hXP2jmJjBzMAC1fZ0o69tgIIyMDnn4FyGI+/Ba9BnAKDeKy+D6wLj5FHhM3egs2J8BSTmLp6IuOd5I/e2MWUzyj/8+zFvf68zLoGbAYD21FfjwOPHtUD/lZqcZKxmMsZe4uYsfRUqRrLTjbdXoSinpu7alDTaNLPnLJ2pqELzEoJ66O1Pw9JjKHbJz9sLsnH4jb9BO9DqY6yTdo5bDJ/zrjImuqsqDv3fPThaNqrnj4h7XoC5AYDWffcFqr4c3QLV79dj2Sp4nCa5qsHRf7QdB/96q9F155c2AWEIvulRo227aypwaO0D6O8YKvs8Ho6F3mYMoA3Jm1AxAKATgsq61Ts5ATRxKesTjfgl/tfcB5vQId50W146Kt5/EWpvj5H1p7/pzJ09EHTbM9AMk0HTf1/x/lq0pBlboJOuvBu2EUMJ7I6CbJT9+zmZn/s53qB7xpbDdpEz4HORMSgVPnrdYCtejYUlQte8DBProdbfbABX+sqD6B+lx/lo+zWxssaky++GVeCQe0swOfTYn9A3xkOomJrB44xL4TzntMEpexprUfycMeVq9PM9vrrPgJbroNKKXfQsOMTMgamtA7pqK9Gw7Uv0NgwqE1X0davRaWmbB/lQhudpKCTDcwy47sER1T4EnapP/oGjRSOU/GBqYw+30y+C06xFRi8Z7qNhx9eo+cJYH1a/b16boFv/BnPnITZH084NqNm4HmpvNxgfHnUoCvwuuw12k431ZNsLslD2xl9H3KN+l90KuynGNFa+iGu/eR+tWbsM4qej7E3RwDZ8GrzPvw6mdkNizk3Jm1D1ic4CnQDQkxRAExMX+/fDRMwwApLbmX+A/axTxgRCbtfX3Ij6je+jdZ8xr9Np4ZlwO32kEC9/U71uLVoJoIoCt99dCoeEpdCYjd3Arr+1CXUb16N1j06F3XCYu3nD47zrYDkpGIyTjjpUrXTJNLV1hKmDscCv4fYE6o78fahe9wq0vcatvfky8Fh1LWwnz4ZiUP8/fH/9XR2o/+pdtKRulq/spifCbcXFMHUaf1sPnm/9pg8H5wBQk5qcNLo8/cABxCUufR+A1NU6JCyDxznGtfPark6UPns7ept0avCqqpy9J2XTqO2gZ805NVqjalkaKmEAx3kr4H6msRuuP+/uylIcLcxGX0sjNFbWsPAOgE34dPCFMXx0lhxA+WsPg27z4FA0cD/rD7CPXQgC6JhDVdHTUIW6z/6FjoMjKmblt5NuehLm7iNbdNAabdi4Ds3JuuoyM2cP+N/y9Kj703Z3oetIIbqrjqC/XdfSWTG3gqm1Lcw9fGEVECHnOXy0pGxCzQSAGi3LSWeBxiUuORdQPuIq2ETPgsdlYzcsM1opbT8OP3INtIbWl8YEPjc+BgufwXDY4E9q161Fe/oOWIVPh9cV42wlr2pR+vj16G8xbl/r8ce7YBM5orX32A/iOL5p+vZ9NG01DhM6zP8dXH73+3H8muikRekDV1A5H/73vQ7lBLo96ndAYnbZk9fJC4qjT1H903Zt1hVtjzLiEpdS+SSMX/nd8QLMDNxg/ebNWz5B40Zd4zNAfTQ1ebO+jGrEjHEJS+6CogzGUJyWnAunpatHWJTjWxCgq7QANW/+Ff1Hjd1k2xlz4X7hccMYg7vp72hD6cNX6lkXjJ2SgyQ3mYVvMLxveGTUFynXs/ThK6A92i5zWUfMgOcf7xyRgBrv+QzfrjVlE+o/nbBADdflZATQQYk3m5mL4HLeiNLuMe+vyqdvRl+9sXitmXcgvG58DBgm9tDwwUvoSN8Bm+lz4HICD0/Vs7eit0ZX9aMfHtc9BIuAnyabrp+z7fuv0fTVgNLSwIcOS1fDge+XcY7Kv97M7kLwuWeQ9jPOXw5tVvXc7eitHi50Mfo0cYlLmRr34rc+974GEwP3cvC8dn6Dpi8H3efnU5OT/nyMg1Li5yz9QC8GLaAzNR4uq66DcixLcZQJj2bvRsP6l0YNxdglngqnlYOsr+OuEa3X8vsv07vzvdAoCdCqO/Xaow6nrILDMukbN2IMv0ctQ6fA5bzrYXIMr+S4BwSgqzAHzRveQ09FsWw+4cLrVu2kA1DDPusaa1u4XvcoTN3kmTzm6MxOQdP7z+utAr7iySsRP8d++cWwXWBMHv//9q4tNqoqiq5978y0pYUyUqS85aUSFFIVptNqgtpWojH64yN+mfAjRjR+iPHLUtAPDBo/EAXjj2KMMTEmJkpTMNLSZlohRnkYgUbS8hCbtkBph7n3nm33nZnO3OmdRwsJBO75nDnPdc7Z95x99t5r8NsdGD58wN6IFa80wT87a3jFsXajR7swsGc75CSRnkruDyH44kYgh6+ynV9iiLpE7ckcmJyi+z59F2bKVMfOos+oxMwNTdDKbBf63Hj8GcHA1x/ZeARfeA0lVRO3Zoke68LAV2PjHS4JGOWZgYvTOxGqqRejStuftvyZ9SgN20HlU4kZfbubEOuO6yyZ6OXOg83uyshEKYmoP3X6oBCxjb24CQ7T6p9H8cqavFzuZv+/uPTjl5CxjCWi88TqfXl6wokAAAUJSURBVAbZ3hWCZ8WrW+C7I2USlBVcZgz9+gMu/SzaCnsUhyPtLQ+uqW14i5i32T9pOmZu2AL/fCeDaPRIBP174nOSnqi4BFNWP4aymnXQg05PulyTLLrq6LHfMNT6I4weJ12zJ0DjyN12AlSYOYdj/s4klYfoFH3zlkCbOn0cw6K9fC0LVv8FmOfFOzKRCDug+J+kDzQFAii6x3nFjvWcghpM8MmTBv+CpdDKgq4b0m5jsA/m2XRPHP4FILFFsY3zZBP65izKqkMTvZaUl3x6cBbI57TpS3ZdXbkMo/cUOPW6LApDuSbOtRdEIADf3KXQs9i52n0d+A/mOedrvq9yQc52HXLOfbxfRNpbUqGMXHZ2KFz/BggSTcnuZ9kTL6F41SNAcSlU/3kM7f8OV3+Xg5qdoqT05YXErUyQzIk/uyNkla9iNgIrQii6eyW04CzoZeVQI1egLg/APNMNEVhG91GnvhM4Tkp/Mhikc/0XTeFnt3mlRcVh4zptPMPm2NwYBqy+s7D6UgydSc53iT16+szgAQJs9j29fAb8C+KeSm5zQkAXx+lqUkpzIvjunAf/4vsQWLQcWrACeuk0UCLMIcvYhgZh9HTD6PkbsWNdUNEMEgLGFYA/Cfj8H7S2/pRY4LnE8K39320nQGU6Ew8I4iKYQ6OfdeKPm1eLH5o69XJsJOaLJFkQr/MyOVESMB6IxvzvMFCgAnVSPWAieoqZhT5S6E1uyHqQaEJ+Kq7KjPKUOaJMITL2vzyspT/axAcy4QhOCToLsU4fz+mbH14F8OdXA+bbSQeDxG1HDDXd7FXz10jUEjlYM+pc32hbrodC9cugQ16Xxr/wOGs7MTJEVaWltEKREqVl3rB8+TsDkaQ7ddC29vZmJ2dzAYVv1Sw3ZMPcDGCGww33KuItow4jwijmdPNw7+AwMX8WLTKbkhskHK6rUkSdjq/8tQ1O4svt0ljb3NGxd/RlpVGrrm1/bjSEWWOSGO7aqneUbmOoTZ3t+2xL7FBtXTUxbWXg8QLbEOa7XSwnPUC8ClI2UwVWIKdEBu2GaW3OF7QjWWV19bq7mKxvkg4QLk0pEHZGDtaOvtrEBc9EUpxs0HiTQOIkn9vdLF6xAtF+TalNHR0tcuJ0pPjHmt8bvYqLjqfQ/dZP4A+LA+b2zKDF1TUNrzP44yxjsudEY60pvn7sRKHahjpWvJEI9ZM4NPxFoD1sWbsjkX3iweWlNAQKndBbFrTVq9dW6rp/CWtcyZzhLxePNhODpvWaI+qkm01h9cN1a5VFOe13SKduzUKRIjXbrQ2ADGjcG/MbJ5PCOR1wOXn19l5cZkEtBMh1UxPhIinuAfQS1qz5zOR66tGBC8z66WxXWzHzMuBbSMxZFHbxvlpRPpHEw3ZMILU0V7vOBZR7vPkXW6NWXdO2nm1bXpJAp0GJwQzwH9C0rZG25kP568idIxwOlyit7FFSeJqJVhF4Lgu5G9EgWJ0FNHkZbzZ1+v5Q697UnTtLtbW19XNM8GKwVsnMrvtO0ynKhnXaNKeczEbgF/+otj2rFKXpaMbPiVs3bBdUoygMpdayRmuIWU7aM8GJEzdBPDZE8B5hoi4iHLgeWF7rXNzM5W97AXozT47Xt8IQEB1mPuqNwmrycnkITAwBT4BODC8vt4eAh4CHwBgCngD1FoOHgIeAh8AkEfAE6CSB84p5CHgIeAh4AtRbAx4CHgIeApNE4H/CykA1G7NJjwAAAABJRU5ErkJggg==;" vertex="1" parent="1">
          <mxGeometry x="500" y="220" width="66" height="35.36" as="geometry" />
        </mxCell>
      </root>
    </mxGraphModel>
  </diagram>
</mxfile>
